<svg height="1024" legacy-metrics="false" node-id="1" sillyvg="true" template-height="1024" template-width="1630" version="1.1" viewBox="0 0 1630 1024" width="1630" xmlns="http://www.w3.org/2000/svg" xmlns:xlink="http://www.w3.org/1999/xlink"><defs node-id="21"></defs><g node-id="23"><path d="M 543.42 923.77 L 545.07 926.47 L 547.31 929.09 L 550.22 931.64 L 553.90 934.14 L 558.47 936.57 L 564.05 938.93 L 570.65 941.19 L 578.38 943.30 L 587.39 945.25 L 599.18 947.22 L 612.62 948.90 L 627.86 950.24 L 643.09 951.14 L 659.63 951.73 L 677.56 951.99 L 695.46 951.92 L 714.32 951.57 L 734.17 950.91 L 764.11 949.47 L 795.37 947.46 L 826.88 944.98 L 858.83 942.05 L 890.76 938.75 L 922.25 935.14 L 953.43 931.22 L 983.29 927.14 L 1012.54 922.81 L 1039.63 918.49 L 1065.81 913.97 L 1088.96 909.63 L 1110.89 905.13 L 1128.96 901.00 L 1140.55 898.05 L 1149.89 895.39 L 1157.30 893.02 L 1195.76 880.13 L 1230.72 869.00 L 1295.05 849.20 L 1324.36 839.96 L 1350.41 831.20 L 1367.31 825.04 L 1382.79 818.84 L 1396.92 812.60 L 1407.43 807.46 L 1417.20 802.14 L 1426.28 796.64 L 1434.71 790.97 L 1441.29 786.04 L 1447.49 780.87 L 1453.31 775.46 L 1458.78 769.81 L 1463.89 763.90 L 1468.64 757.74 L 1473.08 751.18 L 1477.22 744.22 L 1481.06 736.82 L 1484.59 728.97 L 1487.61 721.16 L 1490.36 712.78 L 1492.85 703.77 L 1495.04 694.12 L 1496.92 683.77 L 1498.64 671.21 L 1499.92 657.43 L 1500.72 642.35 L 1501.00 625.87 L 1500.70 606.77 L 1499.76 587.51 L 1498.18 568.07 L 1496.58 553.53 L 1494.61 539.04 L 1492.25 524.58 L 1489.52 510.15 L 1486.40 495.79 L 1482.88 481.61 L 1478.97 467.58 L 1474.67 453.71 L 1469.94 439.96 L 1464.80 426.49 L 1459.26 413.29 L 1453.32 400.36 L 1446.89 387.63 L 1440.05 375.28 L 1432.79 363.31 L 1425.11 351.70 L 1416.93 340.41 L 1408.32 329.59 L 1399.26 319.24 L 1389.74 309.33 L 1381.79 301.75 L 1373.53 294.52 L 1364.96 287.63 L 1356.08 281.07 L 1346.87 274.86 L 1336.97 268.82 L 1326.71 263.12 L 1316.10 257.76 L 1305.10 252.74 L 1293.72 248.06 L 1279.41 242.80 L 1264.54 237.97 L 1249.10 233.57 L 1233.06 229.62 L 1217.05 226.19 L 1200.51 223.11 L 1183.43 220.37 L 1165.79 218.00 L 1142.33 215.41 L 1118.02 213.29 L 1092.84 211.65 L 1067.65 210.46 L 1041.74 209.58 L 1015.09 209.03 L 974.93 208.63 L 933.47 208.59 L 848.89 208.79 L 834.33 208.53 L 819.68 207.86 L 804.91 206.76 L 790.03 205.22 L 770.27 202.64 L 750.40 199.52 L 730.41 195.85 L 710.49 191.77 L 690.57 187.37 L 670.62 182.64 L 640.82 175.20 L 611.25 167.56 L 581.80 159.92 L 552.87 152.59 L 533.59 147.92 L 514.66 143.63 L 496.08 139.71 L 477.41 136.17 L 459.20 133.23 L 441.45 130.87 L 428.03 129.50 L 414.91 128.58 L 402.10 128.10 L 389.57 128.06 L 376.96 128.52 L 364.68 129.55 L 352.71 131.12 L 341.02 133.25 L 331.73 135.41 L 322.63 138.00 L 313.72 141.03 L 304.98 144.50 L 296.39 148.40 L 281.81 155.75 L 268.10 163.11 L 255.23 170.48 L 243.16 177.85 L 231.86 185.24 L 221.30 192.62 L 210.53 200.75 L 200.58 208.94 L 191.40 217.18 L 182.96 225.47 L 175.23 233.82 L 168.17 242.24 L 162.32 249.97 L 156.99 257.81 L 152.16 265.75 L 147.83 273.81 L 143.98 282.00 L 140.59 290.33 L 137.67 298.80 L 135.23 307.38 L 133.25 316.16 L 131.73 325.18 L 130.69 334.44 L 130.12 343.96 L 130.03 353.77 L 130.45 363.86 L 131.50 375.14 L 133.19 386.87 L 135.57 399.09 L 138.67 411.82 L 142.52 425.11 L 147.19 438.98 L 151.62 450.66 L 156.21 461.54 L 160.94 471.67 L 165.80 481.09 L 171.10 490.47 L 176.56 499.31 L 182.17 507.63 L 187.92 515.47 L 196.08 525.63 L 204.53 535.25 L 213.29 544.34 L 222.40 553.08 L 231.85 561.61 L 241.64 569.92 L 256.75 582.09 L 272.71 594.45 L 306.21 620.16 L 323.57 633.96 L 341.88 649.26 L 353.96 659.87 L 366.48 671.43 L 379.46 684.00 L 392.06 696.88 L 405.13 711.05 L 418.67 726.59 L 428.41 738.35 L 438.42 751.02 L 448.70 764.64 L 459.25 779.26 L 469.27 793.79 L 479.55 809.42 L 490.10 826.22 L 500.92 844.25 L 511.16 862.08 L 521.65 881.24 L 532.40 901.78 L 543.42 923.77 Z" fill="#f0f1f9" fill-rule="evenodd" group-id="1" id="椭圆形备份-22" node-id="6" stroke-linecap="butt" stroke-width="1" target-height="823.9291" target-width="1370.9673" target-x="130.03268" target-y="128.05875"></path><path d="M 420.11 76.83 L 369.28 362.03 L 420.11 335.76 L 997.35 283.19 L 1179.10 76.83 Z" fill="#f4f4f4" fill-rule="evenodd" group-id="1" id="路径-28" node-id="7" stroke="#555555" stroke-linecap="butt" stroke-width="8.460701" target-height="285.2046" target-width="809.81213" target-x="369.28384" target-y="76.825455"></path><path d="M 1181.78 76.23 L 1345.33 939.48 L 575.22 939.48 L 425.14 76.23 L 1181.78 76.23 Z" fill="#ffffff" fill-rule="evenodd" group-id="1" id="矩形备份-9" node-id="8" stroke="#555555" stroke-linecap="butt" stroke-width="8.460701" target-height="863.2469" target-width="920.19763" target-x="425.13657" target-y="76.23035"></path><path d="M 451.62 210.58 L 1208.93 190.71 L 1208.59 199.70 L 451.28 219.58 Z" fill="#5b5b5d" fill-rule="nonzero" group-id="1" id="路径-2备份-3" node-id="9" stroke-linecap="butt" stroke-width="1" target-height="28.87645" target-width="757.6447" target-x="451.28107" target-y="190.70514"></path><path d="M 1136.78 529.13 L 1136.45 538.50 L 1135.53 547.60 L 1134.03 556.47 L 1131.94 565.12 L 1129.28 573.65 L 1126.12 581.87 L 1122.46 589.80 L 1118.29 597.46 L 1113.64 604.85 L 1108.56 611.86 L 1103.06 618.53 L 1097.12 624.86 L 1090.79 630.79 L 1084.13 636.29 L 1077.11 641.36 L 1069.72 646.02 L 1062.06 650.19 L 1054.12 653.85 L 1045.90 657.01 L 1037.37 659.67 L 1028.72 661.75 L 1019.85 663.25 L 1010.74 664.18 L 1001.37 664.50 L 992.00 664.18 L 982.90 663.25 L 974.03 661.75 L 965.38 659.67 L 956.85 657.01 L 948.62 653.85 L 940.69 650.19 L 933.03 646.02 L 925.64 641.36 L 918.62 636.29 L 911.95 630.79 L 905.63 624.86 L 899.69 618.53 L 894.19 611.86 L 889.11 604.85 L 884.45 597.46 L 880.29 589.80 L 876.63 581.87 L 873.46 573.65 L 870.80 565.12 L 868.72 556.47 L 867.22 547.60 L 866.29 538.50 L 865.97 529.13 L 866.29 519.77 L 867.22 510.66 L 868.72 501.80 L 870.80 493.15 L 873.46 484.62 L 876.63 476.40 L 880.29 468.47 L 884.45 460.81 L 889.11 453.42 L 894.19 446.40 L 899.69 439.74 L 905.63 433.41 L 911.95 427.48 L 918.62 421.98 L 925.64 416.90 L 933.03 412.24 L 940.69 408.08 L 948.62 404.42 L 956.85 401.26 L 965.38 398.60 L 974.03 396.52 L 982.90 395.01 L 992.00 394.09 L 1001.37 393.76 L 1010.74 394.09 L 1019.85 395.01 L 1028.72 396.52 L 1037.37 398.60 L 1045.90 401.26 L 1054.12 404.42 L 1062.06 408.08 L 1069.72 412.24 L 1077.11 416.90 L 1084.13 421.98 L 1090.79 427.48 L 1097.12 433.41 L 1103.06 439.74 L 1108.56 446.40 L 1113.64 453.42 L 1118.29 460.81 L 1122.46 468.47 L 1126.12 476.40 L 1129.28 484.62 L 1131.94 493.15 L 1134.03 501.80 L 1135.53 510.66 L 1136.45 519.77 L 1136.78 529.13 Z" fill="#ffffff" fill-rule="evenodd" group-id="1" id="椭圆形" node-id="10" stroke-linecap="butt" stroke-width="1" target-height="270.74243" target-width="270.81476" target-x="865.96625" target-y="393.76196"></path><path d="M 524.07 116.17 L 521.06 116.35 L 517.98 116.84 L 515.04 117.68 L 512.21 118.87 L 509.54 120.39 L 507.08 122.22 L 504.82 124.36 L 502.61 127.08 L 500.86 129.94 L 499.53 132.95 L 498.60 136.11 L 498.09 139.31 L 498.00 142.55 L 498.32 145.78 L 499.05 148.92 L 500.20 152.00 L 501.74 154.91 L 503.69 157.62 L 506.09 160.16 L 507.44 161.30 L 510.03 162.97 L 512.90 164.35 L 516.10 165.42 L 519.40 166.16 L 522.79 166.62 L 526.29 166.79 L 531.48 166.52 L 536.34 165.66 L 539.47 164.73 L 542.21 163.60 L 544.58 162.26 L 547.02 160.42 L 549.03 158.47 L 550.67 156.39 L 551.96 154.19 L 553.23 151.00 L 553.96 147.72 L 554.16 144.29 L 553.85 140.85 L 553.08 137.45 L 551.83 134.05 L 550.16 130.83 L 548.09 127.80 L 545.61 124.96 L 542.80 122.45 L 539.65 120.30 L 536.14 118.50 L 532.43 117.20 L 528.42 116.42 L 524.07 116.17 Z M 540.30 155.77 L 537.63 157.13 L 534.19 158.19 L 530.48 158.81 L 526.48 159.02 L 522.47 158.78 L 518.69 158.09 L 516.27 157.34 L 514.16 156.38 L 512.35 155.23 L 511.28 154.33 L 509.17 151.97 L 507.59 149.42 L 506.50 146.64 L 505.91 143.70 L 505.81 140.76 L 506.23 137.77 L 507.14 134.90 L 508.56 132.20 L 510.54 129.64 L 512.94 127.50 L 515.66 125.84 L 518.63 124.69 L 521.80 124.09 L 524.17 123.95 L 527.95 124.21 L 531.36 125.00 L 534.45 126.30 L 537.31 128.07 L 539.79 130.13 L 541.90 132.51 L 543.67 135.17 L 544.97 137.90 L 545.83 140.73 L 546.25 143.65 L 546.14 146.42 L 545.53 149.10 L 544.40 151.58 L 542.68 153.79 L 540.30 155.77 Z" fill="#555555" fill-rule="nonzero" group-id="1" id="路径-3备份-10" node-id="11" stroke-linecap="butt" stroke-width="1" target-height="50.617294" target-width="56.15683" target-x="497.99948" target-y="116.17174"></path><path d="M 667.94 116.17 L 664.94 116.35 L 661.86 116.84 L 658.91 117.68 L 656.08 118.87 L 653.41 120.39 L 650.95 122.22 L 648.69 124.36 L 646.48 127.08 L 644.73 129.94 L 643.40 132.95 L 642.47 136.11 L 641.96 139.31 L 641.87 142.55 L 642.19 145.78 L 642.92 148.92 L 644.07 152.00 L 645.61 154.91 L 647.56 157.62 L 649.96 160.16 L 651.31 161.30 L 653.90 162.97 L 656.77 164.35 L 659.97 165.42 L 663.27 166.16 L 666.66 166.62 L 670.16 166.79 L 675.35 166.52 L 680.21 165.66 L 683.34 164.73 L 686.08 163.60 L 688.45 162.26 L 690.89 160.42 L 692.90 158.47 L 694.54 156.39 L 695.83 154.19 L 697.10 151.00 L 697.83 147.72 L 698.03 144.29 L 697.72 140.85 L 696.95 137.45 L 695.70 134.05 L 694.03 130.83 L 691.97 127.80 L 689.48 124.96 L 686.67 122.45 L 683.52 120.30 L 680.01 118.50 L 676.30 117.20 L 672.29 116.42 L 667.94 116.17 Z M 684.17 155.77 L 681.50 157.13 L 678.06 158.19 L 674.35 158.81 L 670.35 159.02 L 666.34 158.78 L 662.56 158.09 L 660.14 157.34 L 658.04 156.38 L 656.22 155.23 L 655.15 154.33 L 653.04 151.97 L 651.46 149.42 L 650.37 146.64 L 649.78 143.70 L 649.68 140.76 L 650.10 137.77 L 651.01 134.90 L 652.43 132.20 L 654.41 129.64 L 656.81 127.50 L 659.53 125.84 L 662.50 124.69 L 665.67 124.09 L 668.04 123.95 L 671.82 124.21 L 675.23 125.00 L 678.32 126.30 L 681.18 128.07 L 683.66 130.13 L 685.77 132.51 L 687.54 135.17 L 688.84 137.90 L 689.70 140.73 L 690.12 143.65 L 690.01 146.42 L 689.41 149.10 L 688.27 151.58 L 686.55 153.79 L 684.17 155.77 Z" fill="#555555" fill-rule="nonzero" group-id="1" id="路径-3备份-11" node-id="12" stroke-linecap="butt" stroke-width="1" target-height="50.617302" target-width="56.15686" target-x="641.8699" target-y="116.171745"></path><path d="M 820.27 116.17 L 817.27 116.35 L 814.19 116.84 L 811.24 117.68 L 808.41 118.87 L 805.74 120.39 L 803.29 122.22 L 801.02 124.36 L 798.82 127.08 L 797.06 129.94 L 795.73 132.95 L 794.80 136.11 L 794.30 139.31 L 794.20 142.55 L 794.52 145.78 L 795.26 148.92 L 796.40 152.00 L 797.94 154.91 L 799.90 157.62 L 802.29 160.16 L 803.65 161.30 L 806.23 162.97 L 809.10 164.35 L 812.30 165.42 L 815.60 166.16 L 818.99 166.62 L 822.49 166.79 L 827.68 166.52 L 832.54 165.66 L 835.68 164.73 L 838.41 163.60 L 840.79 162.26 L 843.22 160.42 L 845.23 158.47 L 846.87 156.39 L 848.16 154.19 L 849.43 151.00 L 850.16 147.72 L 850.36 144.29 L 850.05 140.85 L 849.28 137.45 L 848.03 134.05 L 846.36 130.83 L 844.30 127.80 L 841.81 124.96 L 839.00 122.45 L 835.85 120.30 L 832.35 118.50 L 828.64 117.20 L 824.63 116.42 L 820.27 116.17 Z M 836.50 155.77 L 833.84 157.13 L 830.39 158.19 L 826.68 158.81 L 822.68 159.02 L 818.67 158.78 L 814.89 158.09 L 812.47 157.34 L 810.37 156.38 L 808.55 155.23 L 807.48 154.33 L 805.37 151.97 L 803.80 149.42 L 802.71 146.64 L 802.11 143.70 L 802.02 140.76 L 802.43 137.77 L 803.34 134.90 L 804.77 132.20 L 806.74 129.64 L 809.15 127.50 L 811.87 125.84 L 814.84 124.69 L 818.00 124.09 L 820.38 123.95 L 824.15 124.21 L 827.56 125.00 L 830.65 126.30 L 833.52 128.07 L 835.99 130.13 L 838.11 132.51 L 839.87 135.17 L 841.17 137.90 L 842.04 140.73 L 842.45 143.65 L 842.34 146.42 L 841.74 149.10 L 840.61 151.58 L 838.89 153.79 L 836.50 155.77 Z" fill="#555555" fill-rule="nonzero" group-id="1" id="路径-3备份-12" node-id="13" stroke-linecap="butt" stroke-width="1" target-height="50.617294" target-width="56.15692" target-x="794.2031" target-y="116.17174"></path><path d="M 640.98 825.46 L 640.98 884.38 L 582.79 935.70 L 1351.66 939.47 L 1389.45 896.76 L 1389.45 825.46 L 640.98 825.46 Z" fill="#3681fd" fill-rule="evenodd" group-id="1" id="路径-25备份-3" node-id="14" stroke="#555555" stroke-linecap="butt" stroke-width="8.460701" target-height="114.00348" target-width="806.655" target-x="582.7905" target-y="825.46436"></path><g node-id="24"><path d="M 656.05 400.34 L 652.83 404.27 L 643.79 414.78 L 637.63 421.65 L 629.92 429.96 L 621.64 438.53 L 612.19 447.88 L 602.26 457.20 L 591.57 466.64 L 580.47 475.73 L 569.03 484.31 L 561.17 489.69 L 553.35 494.58 L 545.55 498.98 L 537.54 502.95 L 529.73 506.18 L 522.10 508.73 L 516.23 510.21 L 510.55 511.18 L 505.03 511.65 L 499.66 511.64 L 494.31 511.09 L 489.14 509.94 L 484.11 508.18 L 479.19 505.80 L 475.56 503.54 L 472.00 500.79 L 468.51 497.53 L 465.06 493.72 L 461.67 489.29 L 459.07 484.97 L 456.93 480.21 L 455.25 474.97 L 454.09 469.58 L 453.38 463.99 L 453.14 458.19 L 453.35 452.38 L 454.00 446.67 L 455.09 441.03 L 456.63 435.50 L 458.56 430.37 L 460.87 425.58 L 462.93 422.15 L 465.17 419.08 L 467.60 416.35 L 470.22 413.94 L 473.10 411.85 L 476.16 410.21 L 479.42 408.99 L 482.91 408.20 L 493.43 406.56 L 498.37 406.05 L 503.45 406.00 L 506.83 406.29 L 510.60 406.95 L 514.81 408.04 L 518.90 409.45 L 523.71 411.47 L 529.32 414.21 L 537.89 419.05 L 548.83 426.03 L 551.79 428.38 L 554.32 431.07 L 556.43 434.12 L 558.15 437.58 L 559.42 441.20 L 560.35 445.12 L 560.93 449.38 L 561.13 454.02 L 560.85 460.14 L 559.99 466.67 L 558.50 473.65 L 556.53 480.51 L 554.04 487.54 L 550.99 494.76 L 547.54 501.79 L 543.65 508.75 L 539.31 515.62 L 534.61 522.25 L 529.57 528.56 L 524.20 534.54 L 518.46 540.17 L 512.52 545.25 L 506.36 549.79 L 501.50 552.88 L 496.58 555.55 L 491.59 557.81 L 486.53 559.67 L 481.32 561.12 L 476.08 562.06 L 470.79 562.51 L 465.43 562.46 L 448.91 561.16 L 433.03 559.33 L 417.76 557.00 L 403.08 554.18 L 388.97 550.88 L 375.40 547.13 L 362.34 542.92 L 349.78 538.26" fill-opacity="0.2" fill-rule="nonzero" group-id="1,2" id="路径-5备份-3" node-id="15" stroke="#555555" stroke-dasharray="39.74125 39.74125" stroke-linecap="butt" stroke-opacity="0.2" stroke-width="8.174652" target-height="162.17334" target-width="306.2785" target-x="349.77582" target-y="400.33838"></path></g><path d="M 1001.37 351.46 L 1011.24 351.74 L 1020.88 352.52 L 1030.32 353.80 L 1039.56 355.56 L 1048.62 357.81 L 1057.61 360.55 L 1066.34 363.71 L 1074.82 367.29 L 1083.06 371.29 L 1091.07 375.72 L 1098.87 380.56 L 1106.36 385.76 L 1113.54 391.31 L 1120.43 397.22 L 1127.04 403.50 L 1133.32 410.10 L 1139.23 416.99 L 1144.79 424.18 L 1149.98 431.66 L 1154.83 439.46 L 1159.26 447.47 L 1163.26 455.71 L 1166.84 464.19 L 1170.01 472.91 L 1172.75 481.90 L 1174.99 490.96 L 1176.76 500.20 L 1178.03 509.63 L 1178.81 519.27 L 1179.10 529.13 L 1178.81 539.00 L 1178.03 548.64 L 1176.76 558.07 L 1174.99 567.31 L 1172.75 576.37 L 1170.01 585.35 L 1166.84 594.08 L 1163.26 602.56 L 1159.26 610.80 L 1154.83 618.81 L 1149.98 626.61 L 1144.79 634.09 L 1139.23 641.27 L 1133.32 648.16 L 1127.04 654.77 L 1120.43 661.05 L 1113.54 666.96 L 1106.36 672.51 L 1098.87 677.70 L 1091.07 682.55 L 1083.06 686.98 L 1074.82 690.98 L 1066.34 694.56 L 1057.61 697.72 L 1048.62 700.46 L 1039.56 702.71 L 1030.32 704.47 L 1020.88 705.74 L 1011.24 706.53 L 1001.37 706.81 L 991.51 706.53 L 981.87 705.74 L 972.43 704.47 L 963.19 702.71 L 954.13 700.46 L 945.14 697.72 L 936.41 694.56 L 927.93 690.98 L 919.69 686.98 L 911.67 682.55 L 903.87 677.70 L 896.39 672.51 L 889.20 666.96 L 882.31 661.05 L 875.71 654.77 L 869.42 648.16 L 863.51 641.27 L 857.96 634.09 L 852.76 626.61 L 847.92 618.81 L 843.49 610.80 L 839.48 602.56 L 835.90 594.08 L 832.74 585.35 L 830.00 576.37 L 827.75 567.31 L 825.99 558.07 L 824.72 548.64 L 823.93 539.00 L 823.65 529.13 L 823.93 519.27 L 824.72 509.63 L 825.99 500.20 L 827.75 490.96 L 830.00 481.90 L 832.74 472.91 L 835.90 464.19 L 839.48 455.71 L 843.49 447.47 L 847.92 439.46 L 852.76 431.66 L 857.96 424.18 L 863.51 416.99 L 869.42 410.10 L 875.71 403.50 L 882.31 397.22 L 889.20 391.31 L 896.39 385.76 L 903.87 380.56 L 911.67 375.72 L 919.69 371.29 L 927.93 367.29 L 936.41 363.71 L 945.14 360.55 L 954.13 357.81 L 963.19 355.56 L 972.43 353.80 L 981.87 352.52 L 991.51 351.74 L 1001.37 351.46 Z M 1001.37 402.22 L 992.59 402.53 L 984.05 403.39 L 975.74 404.80 L 967.63 406.76 L 959.63 409.25 L 951.92 412.21 L 944.48 415.64 L 937.30 419.55 L 930.37 423.92 L 923.79 428.67 L 917.54 433.83 L 911.61 439.39 L 906.04 445.32 L 900.89 451.57 L 896.13 458.15 L 891.76 465.08 L 887.85 472.26 L 884.42 479.69 L 881.46 487.40 L 878.96 495.40 L 877.01 503.50 L 875.60 511.82 L 874.74 520.35 L 874.43 529.13 L 874.74 537.91 L 875.60 546.45 L 877.01 554.76 L 878.96 562.87 L 881.46 570.87 L 884.42 578.57 L 887.85 586.01 L 891.76 593.19 L 896.13 600.11 L 900.89 606.69 L 906.04 612.94 L 911.61 618.87 L 917.54 624.44 L 923.79 629.59 L 930.37 634.35 L 937.30 638.72 L 944.48 642.62 L 951.92 646.05 L 959.63 649.02 L 967.63 651.51 L 975.74 653.46 L 984.05 654.87 L 992.59 655.74 L 1001.37 656.04 L 1010.16 655.74 L 1018.70 654.87 L 1027.01 653.46 L 1035.12 651.51 L 1043.12 649.02 L 1050.83 646.05 L 1058.26 642.62 L 1065.44 638.72 L 1072.37 634.35 L 1078.96 629.59 L 1085.21 624.44 L 1091.14 618.87 L 1096.70 612.94 L 1101.86 606.69 L 1106.62 600.11 L 1110.99 593.19 L 1114.89 586.01 L 1118.33 578.57 L 1121.29 570.87 L 1123.78 562.87 L 1125.74 554.76 L 1127.15 546.45 L 1128.01 537.91 L 1128.32 529.13 L 1128.01 520.35 L 1127.15 511.82 L 1125.74 503.50 L 1123.78 495.40 L 1121.29 487.40 L 1118.33 479.69 L 1114.89 472.26 L 1110.99 465.08 L 1106.62 458.15 L 1101.86 451.57 L 1096.70 445.32 L 1091.14 439.39 L 1085.21 433.83 L 1078.96 428.67 L 1072.37 423.92 L 1065.44 419.55 L 1058.26 415.64 L 1050.83 412.21 L 1043.12 409.25 L 1035.12 406.76 L 1027.01 404.80 L 1018.70 403.39 L 1010.16 402.53 L 1001.37 402.22 Z" fill="#3681fd" fill-rule="nonzero" group-id="1" id="椭圆形" node-id="16" stroke-linecap="butt" stroke-width="1" target-height="355.34946" target-width="355.44452" target-x="823.6514" target-y="351.45847"></path><path d="M 1108.27 609.49 L 1219.89 721.08 L 1183.99 756.98 L 1072.37 645.38 Z" fill="#3681fd" fill-rule="nonzero" group-id="1" id="路径-29" node-id="17" stroke-linecap="butt" stroke-width="1" target-height="147.49042" target-width="147.52979" target-x="1072.365" target-y="609.4892"></path><path d="M 905.76 536.29 L 906.05 528.70 L 906.82 521.41 L 908.05 514.39 L 909.74 507.62 L 911.90 500.92 L 914.43 494.54 L 917.34 488.44 L 920.61 482.61 L 924.27 476.98 L 928.21 471.69 L 932.42 466.72 L 936.92 462.06 L 941.72 457.67 L 946.70 453.66 L 951.86 450.01 L 957.21 446.72 L 962.78 443.77 L 968.44 441.24 L 974.18 439.12 L 980.03 437.39 L 985.99 436.08 L 991.95 435.22 L 997.92 434.81 L 1003.91 434.84 L 1004.26 441.90 L 1004.29 462.79 L 997.33 463.67 L 990.86 464.94 L 984.87 466.56 L 979.30 468.51 L 974.14 470.80 L 969.03 473.55 L 964.32 476.57 L 959.99 479.84 L 956.01 483.38 L 952.37 487.19 L 948.22 492.36 L 944.58 497.83 L 941.45 503.62 L 938.81 509.76 L 936.69 516.08 L 935.05 522.60 L 933.90 529.33 L 933.24 536.29 L 905.76 536.29 Z" fill="#3681fd" fill-rule="nonzero" group-id="1" id="路径备份-13" node-id="18" stroke-linecap="butt" stroke-width="1" target-height="101.48312" target-width="98.53241" target-x="905.7618" target-y="434.80966"></path><path d="M 451.12 665.09 L 386.35 604.10 L 313.49 630.79 L 367.65 586.43 L 301.29 538.71 L 203.17 677.02 Z" fill="#3681fd" fill-rule="evenodd" group-id="1" id="路径-4备份-3" node-id="19" stroke-linecap="butt" stroke-width="1" target-height="138.30518" target-width="247.94572" target-x="203.17284" target-y="538.7104"></path></g></svg>