<svg height="423" legacy-metrics="false" node-id="1" sillyvg="true" template-height="423" template-width="681" version="1.1" viewBox="0 0 681 423" width="681" xmlns="http://www.w3.org/2000/svg" xmlns:xlink="http://www.w3.org/1999/xlink"><defs node-id="118"><clipPath id="mask-2" node-id="16"><path d="M 627.37 225.06 C 598.07 246.85 556.52 263.74 588.54 320.26 C 620.56 376.77 499.43 422.43 431.29 422.43 C 363.15 422.43 227.21 397.37 123.29 340.92 C 19.37 284.48 -20.57 243.38 10.01 131.48 C 40.60 19.59 188.54 20.58 248.67 71.02 C 308.80 121.46 369.67 80.72 414.48 45.53 C 459.30 10.34 518.29 -15.18 590.09 10.34 C 661.90 35.85 682.78 91.08 675.64 138.33 C 668.49 185.58 656.67 203.27 627.37 225.06 Z" fill="#000000" fill-rule="evenodd" node-id="121" stroke="none" target-height="422.39346" target-width="676.861" target-x="0.054779798" target-y="0.040454134"></path></clipPath><clipPath id="mask-4" node-id="53"><path d="M 2.28 20.55 L 88.43 0.57 C 89.50 0.32 90.58 0.99 90.83 2.07 C 90.86 2.21 90.88 2.36 90.88 2.52 L 90.88 73.48 C 90.88 74.46 90.17 75.30 89.20 75.46 L 3.05 89.51 C 1.96 89.68 0.93 88.94 0.75 87.85 C 0.74 87.75 0.73 87.64 0.73 87.53 L 0.73 22.49 C 0.73 21.56 1.37 20.76 2.28 20.55 Z" fill="#000000" fill-rule="evenodd" node-id="125" stroke="none" target-height="88.95973" target-width="90.149506" target-x="0.7286048" target-y="0.5468237"></path></clipPath><clipPath id="mask-6" node-id="89"><path d="M 6.70 7.64 L 74.70 0.11 C 77.15 -0.16 79.07 1.65 79.01 4.17 L 77.76 53.64 C 77.69 56.15 75.65 58.41 73.21 58.68 L 5.21 62.21 C 2.76 62.48 0.84 60.66 0.91 58.15 L 2.15 12.68 C 2.22 10.16 4.26 7.91 6.70 7.64 Z" fill="#000000" fill-rule="evenodd" node-id="129" stroke="none" target-height="62.10441" target-width="78.09813" target-x="0.9068743" target-y="0.105843045"></path></clipPath><clipPath id="mask-8" node-id="95"><path d="M 97.36 19.35 C 101.14 18.92 104.28 15.27 104.39 11.22 C 104.49 7.17 101.52 4.23 97.75 4.67 C 93.98 5.11 90.83 8.75 90.72 12.80 C 90.62 16.86 93.59 19.79 97.36 19.35 Z" fill="#000000" fill-rule="evenodd" node-id="133" stroke="none" target-height="14.681972" target-width="13.6623" target-x="90.7248" target-y="4.6711893"></path></clipPath><clipPath id="mask-10" node-id="108"><path d="M 530.50 404.42 L 536.63 404.11 L 542.56 403.26 L 548.32 401.87 L 553.94 399.95 L 559.37 397.52 L 564.57 394.65 L 569.57 391.30 L 574.38 387.48 L 578.86 383.30 L 583.06 378.75 L 586.98 373.80 L 590.65 368.43 L 593.90 362.85 L 596.81 356.97 L 599.36 350.76 L 601.57 344.21 L 603.32 337.58 L 604.64 330.72 L 605.52 323.62 L 605.96 316.25 L 604.56 316.09 L 588.60 315.41 L 525.61 313.42 L 526.89 242.22 L 526.97 224.12 L 526.85 222.52 L 520.87 223.16 L 515.09 224.31 L 509.48 225.98 L 504.02 228.17 L 498.76 230.83 L 493.73 233.92 L 488.91 237.46 L 484.28 241.46 L 479.99 245.78 L 475.98 250.47 L 472.24 255.54 L 468.77 261.01 L 465.71 266.67 L 463.00 272.61 L 460.64 278.87 L 458.63 285.45 L 457.08 292.10 L 455.95 298.97 L 455.25 306.06 L 455.00 313.42 L 455.27 320.99 L 456.00 328.30 L 457.20 335.35 L 458.85 342.18 L 460.97 348.93 L 463.47 355.33 L 466.33 361.40 L 469.57 367.16 L 473.23 372.71 L 477.17 377.83 L 481.39 382.54 L 485.91 386.86 L 490.78 390.82 L 495.84 394.28 L 501.12 397.27 L 506.64 399.78 L 512.35 401.78 L 518.21 403.22 L 524.25 404.10 L 530.50 404.42 Z" fill="#000000" fill-rule="evenodd" node-id="137" stroke-linecap="butt" stroke-width="1" target-height="181.89706" target-width="150.96426" target-x="454.99997" target-y="222.52023"></path></clipPath><clipPath id="mask-2_3" node-id="16"><path d="M 631.41 225.30 L 625.00 229.90 L 618.35 234.47 L 611.71 239.08 L 605.29 243.82 L 599.20 248.83 L 593.74 254.12 L 590.46 257.92 L 587.61 261.93 L 585.19 266.16 L 583.70 269.48 L 582.53 273.00 L 581.68 276.74 L 581.14 280.72 L 581.00 284.65 L 581.25 288.91 L 581.94 293.54 L 583.10 298.57 L 584.59 303.33 L 586.62 308.54 L 589.25 314.24 L 592.57 320.50 L 594.75 324.91 L 596.32 329.15 L 597.33 333.24 L 597.82 337.22 L 597.80 341.12 L 597.33 345.03 L 596.43 348.89 L 595.11 352.71 L 593.34 356.51 L 591.09 360.31 L 587.92 364.70 L 584.19 369.05 L 579.85 373.37 L 574.85 377.67 L 567.89 382.86 L 560.13 387.91 L 551.51 392.78 L 542.65 397.21 L 533.31 401.37 L 523.46 405.25 L 513.48 408.75 L 503.37 411.89 L 493.14 414.66 L 482.82 417.07 L 472.76 419.05 L 462.96 420.61 L 453.08 421.77 L 443.89 422.45 L 435.32 422.68 L 425.54 422.52 L 414.55 422.02 L 402.26 421.13 L 390.02 419.94 L 376.83 418.37 L 362.64 416.39 L 348.52 414.13 L 333.72 411.46 L 318.21 408.37 L 302.79 404.98 L 286.96 401.18 L 270.72 396.94 L 254.57 392.39 L 238.30 387.41 L 221.91 382.01 L 205.64 376.23 L 189.51 370.05 L 173.53 363.45 L 157.73 356.42 L 142.33 348.99 L 127.32 341.17 L 110.08 331.61 L 94.59 322.50 L 80.72 313.82 L 70.41 306.88 L 61.06 300.04 L 52.60 293.30 L 44.97 286.65 L 39.00 280.90 L 33.56 275.09 L 28.64 269.21 L 24.21 263.26 L 20.25 257.24 L 16.65 250.93 L 13.51 244.39 L 10.81 237.60 L 8.55 230.55 L 6.73 223.21 L 5.42 215.94 L 4.54 208.23 L 4.09 200.05 L 4.10 191.38 L 4.60 182.17 L 5.50 173.41 L 6.85 164.03 L 8.71 153.98 L 11.09 143.23 L 14.05 131.73 L 16.33 124.26 L 18.91 117.23 L 21.76 110.61 L 24.90 104.38 L 28.31 98.52 L 33.10 91.39 L 38.24 84.81 L 43.73 78.74 L 49.57 73.16 L 55.81 67.97 L 62.32 63.24 L 69.09 58.96 L 76.15 55.11 L 83.43 51.69 L 90.89 48.68 L 98.53 46.07 L 106.36 43.86 L 114.29 42.05 L 122.29 40.62 L 130.35 39.56 L 138.51 38.88 L 149.40 38.53 L 160.19 38.79 L 170.90 39.66 L 181.55 41.12 L 191.86 43.12 L 201.86 45.66 L 211.69 48.78 L 220.95 52.35 L 229.69 56.37 L 236.08 59.79 L 242.04 63.41 L 247.57 67.24 L 252.70 71.26 L 259.38 76.48 L 265.89 80.90 L 272.24 84.58 L 278.47 87.58 L 285.01 90.14 L 291.44 92.12 L 297.77 93.54 L 304.03 94.42 L 310.38 94.84 L 316.67 94.82 L 322.90 94.37 L 329.10 93.49 L 337.27 91.74 L 345.35 89.40 L 353.37 86.46 L 361.22 83.06 L 368.95 79.26 L 376.56 75.04 L 387.67 68.20 L 398.38 60.91 L 408.74 53.31 L 418.52 45.78 L 427.63 38.89 L 437.15 32.35 L 447.10 26.15 L 454.74 21.84 L 462.60 17.85 L 470.69 14.18 L 479.01 10.84 L 487.45 7.91 L 496.12 5.43 L 505.03 3.40 L 514.20 1.81 L 523.37 0.77 L 532.82 0.28 L 542.55 0.38 L 552.59 1.07 L 560.45 2.04 L 568.52 3.46 L 576.81 5.34 L 585.34 7.71 L 594.13 10.58 L 602.81 13.93 L 610.82 17.47 L 618.22 21.19 L 625.03 25.09 L 631.28 29.16 L 637.50 33.71 L 643.19 38.38 L 648.37 43.15 L 653.07 48.04 L 657.31 53.05 L 662.28 59.76 L 666.58 66.56 L 670.25 73.45 L 673.32 80.46 L 675.90 87.72 L 677.93 94.98 L 679.43 102.26 L 680.41 109.57 L 680.91 116.96 L 680.95 124.25 L 680.53 131.45 L 679.67 138.57 L 678.11 147.98 L 676.46 156.31 L 674.72 163.65 L 672.65 170.91 L 670.41 177.42 L 668.03 183.24 L 665.28 188.89 L 662.27 194.12 L 658.99 198.97 L 655.39 203.58 L 651.40 208.07 L 646.99 212.45 L 642.36 216.60 L 637.18 220.88 L 631.41 225.30 Z" fill="#000000" fill-rule="evenodd" node-id="121" stroke-linecap="butt" stroke-width="1" target-height="422.39346" target-width="676.8611" target-x="4.0865707" target-y="0.28475714"></path></clipPath><clipPath id="mask-2_4" node-id="16"><path d="M 631.41 225.30 L 625.00 229.90 L 618.35 234.47 L 611.71 239.08 L 605.29 243.82 L 599.20 248.83 L 593.74 254.12 L 590.46 257.92 L 587.61 261.93 L 585.19 266.16 L 583.70 269.48 L 582.53 273.00 L 581.68 276.74 L 581.14 280.72 L 581.00 284.65 L 581.25 288.91 L 581.94 293.54 L 583.10 298.57 L 584.59 303.33 L 586.62 308.54 L 589.25 314.24 L 592.57 320.50 L 594.75 324.91 L 596.32 329.15 L 597.33 333.24 L 597.82 337.22 L 597.80 341.12 L 597.33 345.03 L 596.43 348.89 L 595.11 352.71 L 593.34 356.51 L 591.09 360.31 L 587.92 364.70 L 584.19 369.05 L 579.85 373.37 L 574.85 377.67 L 567.89 382.86 L 560.13 387.91 L 551.51 392.78 L 542.65 397.21 L 533.31 401.37 L 523.46 405.25 L 513.48 408.75 L 503.37 411.89 L 493.14 414.66 L 482.82 417.07 L 472.76 419.05 L 462.96 420.61 L 453.08 421.77 L 443.89 422.45 L 435.32 422.68 L 425.54 422.52 L 414.55 422.02 L 402.26 421.13 L 390.02 419.94 L 376.83 418.37 L 362.64 416.39 L 348.52 414.13 L 333.72 411.46 L 318.21 408.37 L 302.79 404.98 L 286.96 401.18 L 270.72 396.94 L 254.57 392.39 L 238.30 387.41 L 221.91 382.01 L 205.64 376.23 L 189.51 370.05 L 173.53 363.45 L 157.73 356.42 L 142.33 348.99 L 127.32 341.17 L 110.08 331.61 L 94.59 322.50 L 80.72 313.82 L 70.41 306.88 L 61.06 300.04 L 52.60 293.30 L 44.97 286.65 L 39.00 280.90 L 33.56 275.09 L 28.64 269.21 L 24.21 263.26 L 20.25 257.24 L 16.65 250.93 L 13.51 244.39 L 10.81 237.60 L 8.55 230.55 L 6.73 223.21 L 5.42 215.94 L 4.54 208.23 L 4.09 200.05 L 4.10 191.38 L 4.60 182.17 L 5.50 173.41 L 6.85 164.03 L 8.71 153.98 L 11.09 143.23 L 14.05 131.73 L 16.33 124.26 L 18.91 117.23 L 21.76 110.61 L 24.90 104.38 L 28.31 98.52 L 33.10 91.39 L 38.24 84.81 L 43.73 78.74 L 49.57 73.16 L 55.81 67.97 L 62.32 63.24 L 69.09 58.96 L 76.15 55.11 L 83.43 51.69 L 90.89 48.68 L 98.53 46.07 L 106.36 43.86 L 114.29 42.05 L 122.29 40.62 L 130.35 39.56 L 138.51 38.88 L 149.40 38.53 L 160.19 38.79 L 170.90 39.66 L 181.55 41.12 L 191.86 43.12 L 201.86 45.66 L 211.69 48.78 L 220.95 52.35 L 229.69 56.37 L 236.08 59.79 L 242.04 63.41 L 247.57 67.24 L 252.70 71.26 L 259.38 76.48 L 265.89 80.90 L 272.24 84.58 L 278.47 87.58 L 285.01 90.14 L 291.44 92.12 L 297.77 93.54 L 304.03 94.42 L 310.38 94.84 L 316.67 94.82 L 322.90 94.37 L 329.10 93.49 L 337.27 91.74 L 345.35 89.40 L 353.37 86.46 L 361.22 83.06 L 368.95 79.26 L 376.56 75.04 L 387.67 68.20 L 398.38 60.91 L 408.74 53.31 L 418.52 45.78 L 427.63 38.89 L 437.15 32.35 L 447.10 26.15 L 454.74 21.84 L 462.60 17.85 L 470.69 14.18 L 479.01 10.84 L 487.45 7.91 L 496.12 5.43 L 505.03 3.40 L 514.20 1.81 L 523.37 0.77 L 532.82 0.28 L 542.55 0.38 L 552.59 1.07 L 560.45 2.04 L 568.52 3.46 L 576.81 5.34 L 585.34 7.71 L 594.13 10.58 L 602.81 13.93 L 610.82 17.47 L 618.22 21.19 L 625.03 25.09 L 631.28 29.16 L 637.50 33.71 L 643.19 38.38 L 648.37 43.15 L 653.07 48.04 L 657.31 53.05 L 662.28 59.76 L 666.58 66.56 L 670.25 73.45 L 673.32 80.46 L 675.90 87.72 L 677.93 94.98 L 679.43 102.26 L 680.41 109.57 L 680.91 116.96 L 680.95 124.25 L 680.53 131.45 L 679.67 138.57 L 678.11 147.98 L 676.46 156.31 L 674.72 163.65 L 672.65 170.91 L 670.41 177.42 L 668.03 183.24 L 665.28 188.89 L 662.27 194.12 L 658.99 198.97 L 655.39 203.58 L 651.40 208.07 L 646.99 212.45 L 642.36 216.60 L 637.18 220.88 L 631.41 225.30 Z" fill="#000000" fill-rule="evenodd" node-id="121" stroke-linecap="butt" stroke-width="1" target-height="422.39346" target-width="676.8611" target-x="4.0865707" target-y="0.28475714"></path></clipPath><clipPath id="mask-4_4" node-id="53"><path d="M 227.61 138.36 L 313.76 118.39 L 314.56 118.36 L 315.27 118.64 L 315.83 119.15 L 316.16 119.88 L 316.21 120.33 L 316.21 191.30 L 316.08 192.00 L 315.73 192.60 L 315.21 193.03 L 314.53 193.27 L 228.38 207.32 L 227.58 207.29 L 226.89 206.97 L 226.37 206.42 L 226.09 205.67 L 226.06 205.35 L 226.06 140.31 L 226.18 139.64 L 226.50 139.07 L 226.98 138.63 L 227.61 138.36 Z" fill="#000000" fill-rule="evenodd" node-id="125" stroke-linecap="butt" stroke-width="1" target-height="88.959724" target-width="90.149506" target-x="226.06088" target-y="118.36349"></path></clipPath><clipPath id="mask-4_5" node-id="53"><path d="M 227.61 138.36 L 313.76 118.39 L 314.56 118.36 L 315.27 118.64 L 315.83 119.15 L 316.16 119.88 L 316.21 120.33 L 316.21 191.30 L 316.08 192.00 L 315.73 192.60 L 315.21 193.03 L 314.53 193.27 L 228.38 207.32 L 227.58 207.29 L 226.89 206.97 L 226.37 206.42 L 226.09 205.67 L 226.06 205.35 L 226.06 140.31 L 226.18 139.64 L 226.50 139.07 L 226.98 138.63 L 227.61 138.36 Z" fill="#000000" fill-rule="evenodd" node-id="125" stroke-linecap="butt" stroke-width="1" target-height="88.959724" target-width="90.149506" target-x="226.06088" target-y="118.36349"></path></clipPath><clipPath id="mask-4_6" node-id="53"><path d="M 227.61 138.36 L 313.76 118.39 L 314.56 118.36 L 315.27 118.64 L 315.83 119.15 L 316.16 119.88 L 316.21 120.33 L 316.21 191.30 L 316.08 192.00 L 315.73 192.60 L 315.21 193.03 L 314.53 193.27 L 228.38 207.32 L 227.58 207.29 L 226.89 206.97 L 226.37 206.42 L 226.09 205.67 L 226.06 205.35 L 226.06 140.31 L 226.18 139.64 L 226.50 139.07 L 226.98 138.63 L 227.61 138.36 Z" fill="#000000" fill-rule="evenodd" node-id="125" stroke-linecap="butt" stroke-width="1" target-height="88.959724" target-width="90.149506" target-x="226.06088" target-y="118.36349"></path></clipPath><clipPath id="mask-6_4" node-id="89"><path d="M 376.03 271.77 L 444.04 264.24 L 445.25 264.28 L 446.26 264.61 L 447.13 265.22 L 447.79 266.06 L 448.20 267.06 L 448.34 268.30 L 447.09 317.77 L 446.69 319.58 L 445.71 321.13 L 444.78 321.96 L 443.73 322.51 L 442.54 322.81 L 374.54 326.34 L 373.33 326.30 L 372.32 325.97 L 371.45 325.35 L 370.78 324.52 L 370.38 323.51 L 370.24 322.28 L 371.48 276.81 L 371.88 274.99 L 372.87 273.45 L 373.80 272.62 L 374.84 272.07 L 376.03 271.77 Z" fill="#000000" fill-rule="evenodd" node-id="129" stroke-linecap="butt" stroke-width="1" target-height="62.1044" target-width="78.098145" target-x="370.23914" target-y="264.23697"></path></clipPath><clipPath id="mask-6_5" node-id="89"><path d="M 376.03 271.77 L 444.04 264.24 L 445.25 264.28 L 446.26 264.61 L 447.13 265.22 L 447.79 266.06 L 448.20 267.06 L 448.34 268.30 L 447.09 317.77 L 446.69 319.58 L 445.71 321.13 L 444.78 321.96 L 443.73 322.51 L 442.54 322.81 L 374.54 326.34 L 373.33 326.30 L 372.32 325.97 L 371.45 325.35 L 370.78 324.52 L 370.38 323.51 L 370.24 322.28 L 371.48 276.81 L 371.88 274.99 L 372.87 273.45 L 373.80 272.62 L 374.84 272.07 L 376.03 271.77 Z" fill="#000000" fill-rule="evenodd" node-id="129" stroke-linecap="butt" stroke-width="1" target-height="62.1044" target-width="78.098145" target-x="370.23914" target-y="264.23697"></path></clipPath><clipPath id="mask-6_6" node-id="89"><path d="M 376.03 271.77 L 444.04 264.24 L 445.25 264.28 L 446.26 264.61 L 447.13 265.22 L 447.79 266.06 L 448.20 267.06 L 448.34 268.30 L 447.09 317.77 L 446.69 319.58 L 445.71 321.13 L 444.78 321.96 L 443.73 322.51 L 442.54 322.81 L 374.54 326.34 L 373.33 326.30 L 372.32 325.97 L 371.45 325.35 L 370.78 324.52 L 370.38 323.51 L 370.24 322.28 L 371.48 276.81 L 371.88 274.99 L 372.87 273.45 L 373.80 272.62 L 374.84 272.07 L 376.03 271.77 Z" fill="#000000" fill-rule="evenodd" node-id="129" stroke-linecap="butt" stroke-width="1" target-height="62.1044" target-width="78.098145" target-x="370.23914" target-y="264.23697"></path></clipPath><clipPath id="mask-8_3" node-id="95"><path d="M 466.70 283.35 L 468.52 282.88 L 470.17 281.95 L 471.58 280.65 L 472.69 279.03 L 473.42 277.21 L 473.72 275.22 L 473.50 273.22 L 472.87 271.60 L 471.85 270.26 L 470.51 269.27 L 468.94 268.74 L 467.08 268.67 L 465.26 269.14 L 463.61 270.07 L 462.20 271.38 L 461.09 272.99 L 460.35 274.82 L 460.06 276.80 L 460.28 278.80 L 460.90 280.43 L 461.92 281.76 L 463.27 282.75 L 464.83 283.28 L 466.70 283.35 Z" fill="#000000" fill-rule="evenodd" node-id="133" stroke-linecap="butt" stroke-width="1" target-height="14.681946" target-width="13.6622925" target-x="460.05707" target-y="268.6712"></path></clipPath><clipPath id="mask-8_4" node-id="95"><path d="M 466.70 283.35 L 468.52 282.88 L 470.17 281.95 L 471.58 280.65 L 472.69 279.03 L 473.42 277.21 L 473.72 275.22 L 473.50 273.22 L 472.87 271.60 L 471.85 270.26 L 470.51 269.27 L 468.94 268.74 L 467.08 268.67 L 465.26 269.14 L 463.61 270.07 L 462.20 271.38 L 461.09 272.99 L 460.35 274.82 L 460.06 276.80 L 460.28 278.80 L 460.90 280.43 L 461.92 281.76 L 463.27 282.75 L 464.83 283.28 L 466.70 283.35 Z" fill="#000000" fill-rule="evenodd" node-id="133" stroke-linecap="butt" stroke-width="1" target-height="14.681946" target-width="13.6622925" target-x="460.05707" target-y="268.6712"></path></clipPath></defs><g node-id="297"><g node-id="298"><g node-id="299"><g node-id="309"><path d="M 631.41 225.30 L 625.00 229.90 L 618.35 234.47 L 611.71 239.08 L 605.29 243.82 L 599.20 248.83 L 593.74 254.12 L 590.46 257.92 L 587.61 261.93 L 585.19 266.16 L 583.70 269.48 L 582.53 273.00 L 581.68 276.74 L 581.14 280.72 L 581.00 284.65 L 581.25 288.91 L 581.94 293.54 L 583.10 298.57 L 584.59 303.33 L 586.62 308.54 L 589.25 314.24 L 592.57 320.50 L 594.75 324.91 L 596.32 329.15 L 597.33 333.24 L 597.82 337.22 L 597.80 341.12 L 597.33 345.03 L 596.43 348.89 L 595.11 352.71 L 593.34 356.51 L 591.09 360.31 L 587.92 364.70 L 584.19 369.05 L 579.85 373.37 L 574.85 377.67 L 567.89 382.86 L 560.13 387.91 L 551.51 392.78 L 542.65 397.21 L 533.31 401.37 L 523.46 405.25 L 513.48 408.75 L 503.37 411.89 L 493.14 414.66 L 482.82 417.07 L 472.76 419.05 L 462.96 420.61 L 453.08 421.77 L 443.89 422.45 L 435.32 422.68 L 425.54 422.52 L 414.55 422.02 L 402.26 421.13 L 390.02 419.94 L 376.83 418.37 L 362.64 416.39 L 348.52 414.13 L 333.72 411.46 L 318.21 408.37 L 302.79 404.98 L 286.96 401.18 L 270.72 396.94 L 254.57 392.39 L 238.30 387.41 L 221.91 382.01 L 205.64 376.23 L 189.51 370.05 L 173.53 363.45 L 157.73 356.42 L 142.33 348.99 L 127.32 341.17 L 110.08 331.61 L 94.59 322.50 L 80.72 313.82 L 70.41 306.88 L 61.06 300.04 L 52.60 293.30 L 44.97 286.65 L 39.00 280.90 L 33.56 275.09 L 28.64 269.21 L 24.21 263.26 L 20.25 257.24 L 16.65 250.93 L 13.51 244.39 L 10.81 237.60 L 8.55 230.55 L 6.73 223.21 L 5.42 215.94 L 4.54 208.23 L 4.09 200.05 L 4.10 191.38 L 4.60 182.17 L 5.50 173.41 L 6.85 164.03 L 8.71 153.98 L 11.09 143.23 L 14.05 131.73 L 16.33 124.26 L 18.91 117.23 L 21.76 110.61 L 24.90 104.38 L 28.31 98.52 L 33.10 91.39 L 38.24 84.81 L 43.73 78.74 L 49.57 73.16 L 55.81 67.97 L 62.32 63.24 L 69.09 58.96 L 76.15 55.11 L 83.43 51.69 L 90.89 48.68 L 98.53 46.07 L 106.36 43.86 L 114.29 42.05 L 122.29 40.62 L 130.35 39.56 L 138.51 38.88 L 149.40 38.53 L 160.19 38.79 L 170.90 39.66 L 181.55 41.12 L 191.86 43.12 L 201.86 45.66 L 211.69 48.78 L 220.95 52.35 L 229.69 56.37 L 236.08 59.79 L 242.04 63.41 L 247.57 67.24 L 252.70 71.26 L 259.38 76.48 L 265.89 80.90 L 272.24 84.58 L 278.47 87.58 L 285.01 90.14 L 291.44 92.12 L 297.77 93.54 L 304.03 94.42 L 310.38 94.84 L 316.67 94.82 L 322.90 94.37 L 329.10 93.49 L 337.27 91.74 L 345.35 89.40 L 353.37 86.46 L 361.22 83.06 L 368.95 79.26 L 376.56 75.04 L 387.67 68.20 L 398.38 60.91 L 408.74 53.31 L 418.52 45.78 L 427.63 38.89 L 437.15 32.35 L 447.10 26.15 L 454.74 21.84 L 462.60 17.85 L 470.69 14.18 L 479.01 10.84 L 487.45 7.91 L 496.12 5.43 L 505.03 3.40 L 514.20 1.81 L 523.37 0.77 L 532.82 0.28 L 542.55 0.38 L 552.59 1.07 L 560.45 2.04 L 568.52 3.46 L 576.81 5.34 L 585.34 7.71 L 594.13 10.58 L 602.81 13.93 L 610.82 17.47 L 618.22 21.19 L 625.03 25.09 L 631.28 29.16 L 637.50 33.71 L 643.19 38.38 L 648.37 43.15 L 653.07 48.04 L 657.31 53.05 L 662.28 59.76 L 666.58 66.56 L 670.25 73.45 L 673.32 80.46 L 675.90 87.72 L 677.93 94.98 L 679.43 102.26 L 680.41 109.57 L 680.91 116.96 L 680.95 124.25 L 680.53 131.45 L 679.67 138.57 L 678.11 147.98 L 676.46 156.31 L 674.72 163.65 L 672.65 170.91 L 670.41 177.42 L 668.03 183.24 L 665.28 188.89 L 662.27 194.12 L 658.99 198.97 L 655.39 203.58 L 651.40 208.07 L 646.99 212.45 L 642.36 216.60 L 637.18 220.88 L 631.41 225.30 Z" fill="#f3f7ff" fill-rule="evenodd" group-id="1,2,3,13" node-id="146" stroke-linecap="butt" stroke-width="1" target-height="422.39346" target-width="676.8611" target-x="4.0865707" target-y="0.28475714"></path></g><g node-id="310"><g clip-path="url(#mask-2_3)" group-id="1,2,3,14" node-id="149"><path d="M 27.33 322.00 L 658.33 322.00 L 658.33 484.00 L 27.33 484.00 Z" fill="#d0defe" fill-rule="evenodd" group-id="1,2,3,14" id="矩形" node-id="19" stroke-linecap="butt" stroke-width="1" target-height="162" target-width="631" target-x="27.332275" target-y="322"></path></g></g><g clip-path="url(#mask-2_4)" group-id="1,2,3,15" node-id="153"><path d="M 27.33 322.00 L 658.33 322.00 L 658.33 341.00 L 27.33 341.00 Z" fill="#c4d6ff" fill-rule="evenodd" group-id="1,2,3,15" id="矩形" node-id="20" stroke-linecap="butt" stroke-width="1" target-height="19" target-width="631" target-x="27.332275" target-y="322"></path></g></g><g node-id="300"><path d="M 187.20 50.82 L 278.06 24.77 L 278.70 24.87 L 278.96 25.49 L 278.54 60.99 L 278.27 61.76 L 277.61 62.24 L 218.67 79.14 L 204.52 94.75 L 199.17 84.73 L 186.76 88.29 L 186.11 88.19 L 185.85 87.57 L 186.27 52.07 L 186.55 51.30 L 187.20 50.82 Z" fill="#c9dcff" fill-rule="evenodd" group-id="1,2,4" id="矩形" node-id="22" stroke-linecap="butt" stroke-width="1" target-height="69.97934" target-width="93.1125" target-x="185.84993" target-y="24.768904"></path><path d="M 203.41 74.78 L 205.12 74.12 L 206.72 73.19 L 208.23 71.97 L 210.17 69.80 L 211.69 67.25 L 212.67 64.47 L 213.04 61.61 L 212.89 59.71 L 212.46 58.10 L 211.79 56.72 L 210.85 55.52 L 209.73 54.61 L 208.40 53.96 L 206.97 53.62 L 205.38 53.59 L 203.61 53.92 L 201.90 54.57 L 200.30 55.50 L 198.78 56.72 L 196.84 58.90 L 195.33 61.44 L 194.34 64.22 L 193.98 67.08 L 194.13 68.98 L 194.56 70.59 L 195.23 71.97 L 196.17 73.17 L 197.29 74.08 L 198.61 74.73 L 200.05 75.08 L 201.63 75.10 L 203.41 74.78 Z" fill="#ffbb3c" fill-rule="evenodd" group-id="1,2,4" id="椭圆形" node-id="23" stroke-linecap="butt" stroke-width="1" target-height="21.512184" target-width="19.056412" target-x="193.98035" target-y="53.590355"></path><path d="M 267.84 37.70 L 268.60 37.78 L 269.08 38.37 L 269.03 39.08 L 268.52 39.57 L 268.41 39.61 L 224.07 52.84 L 223.31 52.76 L 222.83 52.17 L 222.89 51.45 L 223.39 50.96 L 223.50 50.92 L 267.84 37.70 Z" fill="#ffffff" fill-rule="nonzero" group-id="1,2,4" id="路径-257" node-id="24" stroke-linecap="butt" stroke-width="1" target-height="15.141006" target-width="46.253662" target-x="222.83081" target-y="37.698174"></path><path d="M 223.52 58.92 L 267.86 46.48 L 268.62 46.57 L 269.09 47.18 L 269.02 47.89 L 268.51 48.37 L 268.40 48.41 L 224.06 60.85 L 223.30 60.76 L 222.83 60.16 L 222.89 59.44 L 223.41 58.96 L 223.52 58.92 Z" fill="#ffffff" fill-rule="nonzero" group-id="1,2,4" id="路径-258" node-id="25" stroke-linecap="butt" stroke-width="1" target-height="14.365204" target-width="46.26268" target-x="222.82631" target-y="46.483902"></path><path d="M 223.54 67.38 L 267.87 55.85 L 268.63 55.95 L 269.09 56.56 L 269.01 57.28 L 268.49 57.75 L 268.38 57.78 L 224.04 69.32 L 223.28 69.21 L 222.82 68.60 L 222.90 67.89 L 223.43 67.42 L 223.54 67.38 Z" fill="#ffffff" fill-rule="nonzero" group-id="1,2,4" id="路径-259" node-id="26" stroke-linecap="butt" stroke-width="1" target-height="13.469833" target-width="46.273193" target-x="222.82104" target-y="55.848877"></path><path d="M 210.03 56.56 L 210.33 56.33 L 210.71 56.39 L 210.93 56.65 L 210.93 56.99 L 210.89 57.07 L 202.26 71.59 L 195.28 65.58 L 195.11 65.24 L 195.23 64.87 L 195.53 64.71 L 195.86 64.77 L 195.93 64.82 L 202.00 70.05 L 210.03 56.56 Z" fill="#ffffff" fill-rule="nonzero" group-id="1,2,4" id="路径-284" node-id="27" stroke-linecap="butt" stroke-width="1" target-height="15.253387" target-width="15.8233185" target-x="195.10614" target-y="56.33207"></path></g><g node-id="301"><path d="M 77.20 111.82 L 168.06 85.77 L 168.70 85.87 L 168.96 86.49 L 168.54 121.99 L 168.27 122.76 L 167.61 123.24 L 108.67 140.14 L 94.52 155.75 L 89.17 145.73 L 76.76 149.29 L 76.11 149.19 L 75.85 148.57 L 76.27 113.07 L 76.55 112.30 L 77.20 111.82 Z" fill="#c9dcff" fill-rule="evenodd" group-id="1,2,5" id="矩形" node-id="29" stroke-linecap="butt" stroke-width="1" target-height="69.97934" target-width="93.11251" target-x="75.84992" target-y="85.768906"></path><path d="M 93.41 135.78 L 95.12 135.12 L 96.72 134.19 L 98.23 132.97 L 100.17 130.80 L 101.69 128.25 L 102.67 125.47 L 103.04 122.61 L 102.89 120.71 L 102.46 119.10 L 101.79 117.72 L 100.85 116.52 L 99.73 115.61 L 98.40 114.96 L 96.97 114.62 L 95.38 114.59 L 93.61 114.92 L 91.90 115.57 L 90.30 116.50 L 88.78 117.72 L 86.84 119.90 L 85.33 122.44 L 84.34 125.22 L 83.98 128.08 L 84.13 129.98 L 84.56 131.59 L 85.23 132.97 L 86.17 134.17 L 87.29 135.08 L 88.61 135.73 L 90.05 136.08 L 91.63 136.10 L 93.41 135.78 Z" fill="#ffbb3c" fill-rule="evenodd" group-id="1,2,5" id="椭圆形" node-id="30" stroke-linecap="butt" stroke-width="1" target-height="21.512177" target-width="19.056404" target-x="83.98035" target-y="114.59036"></path><path d="M 157.84 98.70 L 158.60 98.78 L 159.08 99.37 L 159.03 100.08 L 158.52 100.57 L 158.41 100.61 L 114.07 113.84 L 113.31 113.76 L 112.83 113.17 L 112.89 112.45 L 113.39 111.96 L 113.50 111.92 L 157.84 98.70 Z" fill="#ffffff" fill-rule="nonzero" group-id="1,2,5" id="路径-257" node-id="31" stroke-linecap="butt" stroke-width="1" target-height="15.141006" target-width="46.253677" target-x="112.830795" target-y="98.69817"></path><path d="M 113.52 119.92 L 157.86 107.48 L 158.62 107.57 L 159.09 108.18 L 159.02 108.89 L 158.51 109.37 L 158.40 109.41 L 114.06 121.85 L 113.30 121.76 L 112.83 121.16 L 112.89 120.44 L 113.41 119.96 L 113.52 119.92 Z" fill="#ffffff" fill-rule="nonzero" group-id="1,2,5" id="路径-258" node-id="32" stroke-linecap="butt" stroke-width="1" target-height="14.365196" target-width="46.26268" target-x="112.826294" target-y="107.48391"></path><path d="M 113.54 128.38 L 157.87 116.85 L 158.63 116.95 L 159.09 117.56 L 159.01 118.28 L 158.49 118.75 L 158.38 118.78 L 114.04 130.32 L 113.28 130.21 L 112.82 129.60 L 112.90 128.89 L 113.43 128.42 L 113.54 128.38 Z" fill="#ffffff" fill-rule="nonzero" group-id="1,2,5" id="路径-259" node-id="33" stroke-linecap="butt" stroke-width="1" target-height="13.469833" target-width="46.27318" target-x="112.821045" target-y="116.84888"></path></g><g node-id="302"><path d="M 41.20 103.82 L 132.06 77.77 L 132.70 77.87 L 132.96 78.49 L 132.54 113.99 L 132.27 114.76 L 131.61 115.24 L 72.67 132.14 L 58.52 147.75 L 53.17 137.73 L 40.76 141.29 L 40.11 141.19 L 39.85 140.57 L 40.27 105.07 L 40.55 104.30 L 41.20 103.82 Z" fill="#c9dcff" fill-rule="evenodd" group-id="1,2,6" id="矩形" node-id="35" stroke-linecap="butt" stroke-width="1" target-height="69.97934" target-width="93.11251" target-x="39.849922" target-y="77.768906"></path><path d="M 57.41 127.78 L 59.12 127.12 L 60.72 126.19 L 62.23 124.97 L 64.17 122.80 L 65.69 120.25 L 66.67 117.47 L 67.04 114.61 L 66.89 112.71 L 66.46 111.10 L 65.79 109.72 L 64.85 108.52 L 63.73 107.61 L 62.40 106.96 L 60.97 106.62 L 59.38 106.59 L 57.61 106.92 L 55.90 107.57 L 54.30 108.50 L 52.78 109.72 L 50.84 111.90 L 49.33 114.44 L 48.34 117.22 L 47.98 120.08 L 48.13 121.98 L 48.56 123.59 L 49.23 124.97 L 50.17 126.17 L 51.29 127.08 L 52.61 127.73 L 54.05 128.08 L 55.63 128.10 L 57.41 127.78 Z" fill="#ffbb3c" fill-rule="evenodd" group-id="1,2,6" id="椭圆形" node-id="36" stroke-linecap="butt" stroke-width="1" target-height="21.512177" target-width="19.056404" target-x="47.980347" target-y="106.59036"></path><path d="M 121.84 90.70 L 122.60 90.78 L 123.08 91.37 L 123.03 92.08 L 122.52 92.57 L 122.41 92.61 L 78.07 105.84 L 77.31 105.76 L 76.83 105.17 L 76.89 104.45 L 77.39 103.96 L 77.50 103.92 L 121.84 90.70 Z" fill="#ffffff" fill-rule="nonzero" group-id="1,2,6" id="路径-257" node-id="37" stroke-linecap="butt" stroke-width="1" target-height="15.141006" target-width="46.253685" target-x="76.830795" target-y="90.69817"></path><path d="M 77.52 111.92 L 121.86 99.48 L 122.62 99.57 L 123.09 100.18 L 123.02 100.89 L 122.51 101.37 L 122.40 101.41 L 78.06 113.85 L 77.30 113.76 L 76.83 113.16 L 76.89 112.44 L 77.41 111.96 L 77.52 111.92 Z" fill="#ffffff" fill-rule="nonzero" group-id="1,2,6" id="路径-258" node-id="38" stroke-linecap="butt" stroke-width="1" target-height="14.365196" target-width="46.26268" target-x="76.826294" target-y="99.48391"></path><path d="M 77.54 120.38 L 121.87 108.85 L 122.63 108.95 L 123.09 109.56 L 123.01 110.28 L 122.49 110.75 L 122.38 110.78 L 78.04 122.32 L 77.28 122.21 L 76.82 121.60 L 76.90 120.89 L 77.43 120.42 L 77.54 120.38 Z" fill="#ffffff" fill-rule="nonzero" group-id="1,2,6" id="路径-259" node-id="39" stroke-linecap="butt" stroke-width="1" target-height="13.469833" target-width="46.27318" target-x="76.821045" target-y="108.84888"></path></g><g node-id="303"><path d="M 2.20 95.82 L 93.06 69.77 L 93.70 69.87 L 93.96 70.49 L 93.54 105.99 L 93.27 106.76 L 92.61 107.24 L 33.67 124.14 L 19.52 139.75 L 14.17 129.73 L 1.76 133.29 L 1.11 133.19 L 0.85 132.57 L 1.27 97.07 L 1.55 96.30 L 2.20 95.82 Z" fill="#c9dcff" fill-rule="evenodd" group-id="1,2,7" id="矩形" node-id="41" stroke-linecap="butt" stroke-width="1" target-height="69.97934" target-width="93.11251" target-x="0.84992313" target-y="69.768906"></path><path d="M 18.41 119.78 L 20.12 119.12 L 21.72 118.19 L 23.23 116.97 L 25.17 114.80 L 26.69 112.25 L 27.67 109.47 L 28.04 106.61 L 27.89 104.71 L 27.46 103.10 L 26.79 101.72 L 25.85 100.52 L 24.73 99.61 L 23.40 98.96 L 21.97 98.62 L 20.38 98.59 L 18.61 98.92 L 16.90 99.57 L 15.30 100.50 L 13.78 101.72 L 11.84 103.90 L 10.33 106.44 L 9.34 109.22 L 8.98 112.08 L 9.13 113.98 L 9.56 115.59 L 10.23 116.97 L 11.17 118.17 L 12.29 119.08 L 13.61 119.73 L 15.05 120.08 L 16.63 120.10 L 18.41 119.78 Z" fill="#ffbb3c" fill-rule="evenodd" group-id="1,2,7" id="椭圆形" node-id="42" stroke-linecap="butt" stroke-width="1" target-height="21.512184" target-width="19.056406" target-x="8.980347" target-y="98.59036"></path><path d="M 82.84 82.70 L 83.60 82.78 L 84.08 83.37 L 84.03 84.08 L 83.52 84.57 L 83.41 84.61 L 39.07 97.84 L 38.31 97.76 L 37.83 97.17 L 37.89 96.45 L 38.39 95.96 L 38.50 95.92 L 82.84 82.70 Z" fill="#ffffff" fill-rule="nonzero" group-id="1,2,7" id="路径-257" node-id="43" stroke-linecap="butt" stroke-width="1" target-height="15.141006" target-width="46.253685" target-x="37.830795" target-y="82.69817"></path><path d="M 38.52 103.92 L 82.86 91.48 L 83.62 91.57 L 84.09 92.18 L 84.02 92.89 L 83.51 93.37 L 83.40 93.41 L 39.06 105.85 L 38.30 105.76 L 37.83 105.16 L 37.89 104.44 L 38.41 103.96 L 38.52 103.92 Z" fill="#ffffff" fill-rule="nonzero" group-id="1,2,7" id="路径-258" node-id="44" stroke-linecap="butt" stroke-width="1" target-height="14.365196" target-width="46.262672" target-x="37.8263" target-y="91.48391"></path><path d="M 38.54 112.38 L 82.87 100.85 L 83.63 100.95 L 84.09 101.56 L 84.01 102.28 L 83.49 102.75 L 83.38 102.78 L 39.04 114.32 L 38.28 114.21 L 37.82 113.60 L 37.90 112.89 L 38.43 112.42 L 38.54 112.38 Z" fill="#ffffff" fill-rule="nonzero" group-id="1,2,7" id="路径-259" node-id="45" stroke-linecap="butt" stroke-width="1" target-height="13.469833" target-width="46.27318" target-x="37.821045" target-y="100.84888"></path></g><path d="M 198.61 93.56 L 560.52 1.84 L 562.94 1.57 L 565.23 1.92 L 567.34 2.83 L 569.15 4.25 L 570.55 6.10 L 571.46 8.35 L 571.73 10.57 L 571.73 87.82 L 571.73 87.82 L 571.73 356.94 L 571.40 359.35 L 570.50 361.48 L 569.09 363.30 L 567.27 364.71 L 565.14 365.61 L 562.73 365.94 L 200.83 365.94 L 198.41 365.61 L 196.28 364.71 L 194.46 363.30 L 193.05 361.48 L 192.15 359.35 L 191.83 356.94 L 191.83 102.28 L 192.06 100.24 L 192.69 98.42 L 193.72 96.76 L 195.08 95.35 L 196.70 94.29 L 198.61 93.56 Z" fill="#6ea0fd" fill-rule="evenodd" group-id="1,2" id="路径-256" node-id="46" stroke-linecap="butt" stroke-width="1" target-height="364.37003" target-width="379.90573" target-x="191.82516" target-y="1.5653982"></path><path d="M 187.61 96.56 L 549.52 4.84 L 551.94 4.57 L 554.23 4.92 L 556.34 5.83 L 558.15 7.25 L 559.55 9.10 L 560.46 11.35 L 560.73 13.57 L 560.73 356.94 L 560.40 359.35 L 559.50 361.48 L 558.09 363.30 L 556.27 364.71 L 554.14 365.61 L 551.73 365.94 L 189.83 365.94 L 187.41 365.61 L 185.28 364.71 L 183.46 363.30 L 182.05 361.48 L 181.15 359.35 L 180.83 356.94 L 180.83 105.28 L 181.06 103.24 L 181.69 101.42 L 182.72 99.76 L 184.08 98.35 L 185.70 97.29 L 187.61 96.56 Z" fill="#a4c3fc" fill-rule="evenodd" group-id="1,2" id="路径-256" node-id="47" stroke-linecap="butt" stroke-width="1" target-height="361.37003" target-width="379.90573" target-x="180.82516" target-y="4.565398"></path><path d="M 201.16 109.60 L 534.16 26.78 L 536.58 26.51 L 538.86 26.87 L 540.97 27.80 L 542.78 29.23 L 544.17 31.08 L 545.07 33.34 L 545.33 35.51 L 545.33 345.00 L 545.01 347.41 L 544.10 349.54 L 542.70 351.36 L 540.87 352.77 L 538.74 353.67 L 536.33 354.00 L 203.33 354.00 L 200.92 353.67 L 198.79 352.77 L 196.97 351.36 L 195.56 349.54 L 194.66 347.41 L 194.33 345.00 L 194.33 118.34 L 194.57 116.29 L 195.21 114.46 L 196.24 112.79 L 197.61 111.39 L 199.23 110.33 L 201.16 109.60 Z" fill="#ffffff" fill-rule="evenodd" group-id="1,2" id="路径-256" node-id="48" stroke-linecap="butt" stroke-width="1" target-height="327.48627" target-width="351" target-x="194.33228" target-y="26.513721"></path><path d="M 217.20 129.16 L 326.62 103.71 L 328.22 103.67 L 329.64 104.21 L 330.75 105.25 L 331.42 106.70 L 331.52 107.61 L 331.52 336.16 L 331.22 337.70 L 330.40 338.94 L 329.18 339.80 L 327.65 340.16 L 218.23 343.69 L 216.65 343.42 L 215.37 342.61 L 214.47 341.37 L 214.10 339.82 L 214.10 339.69 L 214.10 133.06 L 214.33 131.72 L 214.97 130.57 L 215.94 129.69 L 217.20 129.16 Z" fill="#ffda92" fill-rule="evenodd" group-id="1,2" id="路径-264" node-id="49" stroke-linecap="butt" stroke-width="1" target-height="240.01707" target-width="117.42259" target-x="214.10182" target-y="103.6689"></path><path d="M 215.20 127.16 L 324.62 101.71 L 326.22 101.67 L 327.64 102.21 L 328.75 103.25 L 329.42 104.70 L 329.52 105.61 L 329.52 334.16 L 329.22 335.70 L 328.40 336.94 L 327.18 337.80 L 325.65 338.16 L 216.23 341.69 L 214.65 341.42 L 213.37 340.61 L 212.47 339.37 L 212.10 337.82 L 212.10 337.69 L 212.10 131.06 L 212.33 129.72 L 212.97 128.57 L 213.94 127.69 L 215.20 127.16 Z" fill="#dde9ff" fill-rule="evenodd" group-id="1,2" id="路径-264" node-id="50" stroke-linecap="butt" stroke-width="1" target-height="240.01706" target-width="117.42259" target-x="212.10182" target-y="101.66891"></path><path d="M 228.04 272.18 L 314.19 259.34 L 314.99 259.38 L 315.67 259.71 L 316.19 260.27 L 316.46 261.03 L 316.48 261.32 L 316.48 313.93 L 316.34 314.68 L 315.94 315.30 L 315.35 315.73 L 314.61 315.92 L 228.46 321.37 L 227.67 321.26 L 227.01 320.88 L 226.55 320.28 L 226.34 319.50 L 226.33 319.38 L 226.33 274.16 L 226.46 273.45 L 226.82 272.85 L 227.35 272.42 L 228.04 272.18 Z" fill="#ecf3ff" fill-rule="evenodd" group-id="1,2" id="路径-265" node-id="51" stroke-linecap="butt" stroke-width="1" target-height="62.031494" target-width="90.149506" target-x="226.33228" target-y="259.342"></path><path d="M 227.61 138.36 L 313.76 118.39 L 314.56 118.36 L 315.27 118.64 L 315.83 119.15 L 316.16 119.88 L 316.21 120.33 L 316.21 191.30 L 316.08 192.00 L 315.73 192.60 L 315.21 193.03 L 314.53 193.27 L 228.38 207.32 L 227.58 207.29 L 226.89 206.97 L 226.37 206.42 L 226.09 205.67 L 226.06 205.35 L 226.06 140.31 L 226.18 139.64 L 226.50 139.07 L 226.98 138.63 L 227.61 138.36 Z" fill="#ffffff" fill-rule="evenodd" group-id="1,2,8,16" node-id="195" stroke-linecap="butt" stroke-width="1" target-height="88.959724" target-width="90.149506" target-x="226.06088" target-y="118.36349"></path><g clip-path="url(#mask-4_4)" group-id="1,2,8,17" node-id="198"><path d="M 272.65 192.33 L 288.79 168.87 L 319.33 198.69 L 272.33 203.87 Z" fill="#d9e4ff" fill-rule="evenodd" group-id="1,2,8,17" id="路径-5" node-id="56" stroke-linecap="butt" stroke-width="1" target-height="35" target-width="47" target-x="272.33228" target-y="168.86887"></path></g><g clip-path="url(#mask-4_5)" group-id="1,2,8,18" node-id="202"><path d="M 222.83 195.92 L 248.64 161.87 L 295.33 205.81 L 222.33 213.87 Z" fill="#bcd1ff" fill-rule="evenodd" group-id="1,2,8,18" id="路径-5" node-id="57" stroke-linecap="butt" stroke-width="1" target-height="52" target-width="73" target-x="222.33228" target-y="161.86887"></path></g><g clip-path="url(#mask-4_6)" group-id="1,2,8,19" node-id="206"><path d="M 308.67 139.04 L 310.97 138.59 L 313.11 137.79 L 315.12 136.65 L 316.94 135.22 L 318.49 133.57 L 319.80 131.69 L 320.80 129.63 L 321.43 127.48 L 321.71 125.20 L 321.56 122.93 L 321.03 120.91 L 320.16 119.09 L 318.95 117.47 L 317.48 116.15 L 315.73 115.10 L 313.82 114.39 L 311.71 114.04 L 309.38 114.07 L 307.08 114.53 L 304.93 115.32 L 302.93 116.46 L 301.11 117.89 L 299.56 119.54 L 298.25 121.42 L 297.25 123.48 L 296.61 125.63 L 296.34 127.91 L 296.49 130.19 L 297.01 132.21 L 297.89 134.02 L 299.10 135.64 L 300.56 136.96 L 302.31 138.02 L 304.23 138.73 L 306.33 139.07 L 308.67 139.04 Z" fill="#ffe17f" fill-rule="evenodd" group-id="1,2,8,19" id="椭圆形" node-id="58" stroke-linecap="butt" stroke-width="1" target-height="25.030823" target-width="25.372925" target-x="296.33734" target-y="114.04126"></path></g><path d="M 150.71 231.37 L 300.71 207.73 L 302.31 207.80 L 303.69 208.45 L 304.72 209.56 L 305.28 211.06 L 305.33 211.68 L 305.33 246.34 L 305.07 247.77 L 304.36 248.96 L 303.28 249.84 L 301.90 250.30 L 151.90 271.85 L 150.30 271.76 L 148.93 271.09 L 147.91 269.97 L 147.37 268.46 L 147.33 267.89 L 147.33 235.32 L 147.59 233.91 L 148.29 232.72 L 149.35 231.85 L 150.71 231.37 Z" fill="#ffedcc" fill-rule="evenodd" group-id="1,2,9" id="路径-265" node-id="60" stroke-linecap="butt" stroke-width="1" target-height="64.12285" target-width="158" target-x="147.33228" target-y="207.72865"></path><path d="M 152.71 229.37 L 302.71 205.73 L 304.31 205.80 L 305.69 206.45 L 306.72 207.56 L 307.28 209.06 L 307.33 209.68 L 307.33 244.34 L 307.07 245.77 L 306.36 246.96 L 305.28 247.84 L 303.90 248.30 L 153.90 269.85 L 152.30 269.76 L 150.93 269.09 L 149.91 267.97 L 149.37 266.46 L 149.33 265.89 L 149.33 233.32 L 149.59 231.91 L 150.29 230.72 L 151.35 229.85 L 152.71 229.37 Z" fill="#c9dcff" fill-rule="evenodd" group-id="1,2,9" id="路径-265" node-id="61" stroke-linecap="butt" stroke-width="1" target-height="64.12285" target-width="158" target-x="149.33228" target-y="205.72865"></path><path d="M 190.70 228.00 L 189.44 228.18 L 188.36 228.64 L 187.42 229.37 L 186.69 230.32 L 186.24 231.41 L 186.06 232.69 L 186.25 234.00 L 186.76 235.16 L 187.55 236.13 L 188.57 236.85 L 183.15 247.43 L 181.99 247.66 L 174.50 242.45 L 175.16 241.17 L 175.40 239.66 L 175.23 238.39 L 174.78 237.30 L 174.05 236.35 L 173.11 235.61 L 172.03 235.15 L 170.77 234.97 L 169.51 235.15 L 168.43 235.61 L 167.49 236.35 L 166.76 237.30 L 166.31 238.39 L 166.13 239.66 L 166.33 241.00 L 166.83 242.14 L 167.63 243.11 L 162.95 251.63 L 161.69 251.81 L 160.62 252.27 L 159.68 253.01 L 158.96 253.95 L 158.51 255.04 L 158.33 256.31 L 158.51 257.59 L 158.96 258.68 L 159.69 259.63 L 160.63 260.36 L 161.71 260.82 L 162.97 261.00 L 164.23 260.82 L 165.30 260.36 L 166.25 259.63 L 166.97 258.68 L 167.42 257.59 L 167.60 256.31 L 167.45 255.13 L 167.04 254.07 L 166.39 253.15 L 165.54 252.41 L 170.01 244.29 L 170.77 244.35 L 172.22 244.11 L 179.73 249.33 L 179.08 250.61 L 178.84 252.10 L 179.01 253.38 L 179.47 254.47 L 180.19 255.42 L 181.14 256.15 L 182.21 256.61 L 183.47 256.79 L 184.73 256.61 L 185.81 256.15 L 186.75 255.42 L 187.48 254.47 L 187.93 253.38 L 188.11 252.10 L 187.94 250.85 L 187.48 249.74 L 186.75 248.79 L 185.82 248.06 L 191.32 237.33 L 192.91 236.80 L 194.18 235.78 L 195.02 234.38 L 195.33 232.69 L 195.15 231.41 L 194.70 230.32 L 193.97 229.37 L 193.03 228.64 L 191.95 228.18 L 190.70 228.00 Z M 163.33 259.00 L 162.55 258.84 L 161.92 258.41 L 161.49 257.78 L 161.33 257.00 L 161.49 256.22 L 161.92 255.59 L 162.55 255.16 L 163.33 255.00 L 164.12 255.16 L 164.75 255.59 L 165.17 256.22 L 165.33 257.00 L 165.17 257.78 L 164.75 258.41 L 164.12 258.84 L 163.33 259.00 Z M 170.33 242.00 L 169.55 241.84 L 168.92 241.41 L 168.49 240.78 L 168.33 240.00 L 168.49 239.22 L 168.92 238.59 L 169.55 238.16 L 170.33 238.00 L 171.12 238.16 L 171.75 238.59 L 172.17 239.22 L 172.33 240.00 L 172.17 240.78 L 171.75 241.41 L 171.12 241.84 L 170.33 242.00 L 170.33 242.00 Z M 183.33 255.00 L 182.55 254.84 L 181.92 254.41 L 181.49 253.78 L 181.33 253.00 L 181.49 252.22 L 181.92 251.59 L 182.55 251.16 L 183.33 251.00 L 184.12 251.16 L 184.75 251.59 L 185.17 252.22 L 185.33 253.00 L 185.17 253.78 L 184.75 254.41 L 184.12 254.84 L 183.33 255.00 Z M 190.33 235.00 L 189.55 234.84 L 188.92 234.41 L 188.49 233.78 L 188.33 233.00 L 188.49 232.22 L 188.92 231.59 L 189.55 231.16 L 190.33 231.00 L 191.12 231.16 L 191.75 231.59 L 192.17 232.22 L 192.33 233.00 L 192.17 233.78 L 191.75 234.41 L 191.12 234.84 L 190.33 235.00 L 190.33 235.00 Z" fill="#ffedcc" fill-rule="nonzero" group-id="1,2,9" id="形状" node-id="62" stroke-linecap="butt" stroke-width="1" target-height="33" target-width="37" target-x="158.33228" target-y="228"></path><path d="M 292.54 216.44 L 293.28 216.62 L 293.68 217.27 L 293.54 217.97 L 292.97 218.39 L 292.86 218.42 L 208.42 231.99 L 207.67 231.81 L 207.27 231.16 L 207.42 230.46 L 207.99 230.04 L 208.10 230.01 L 292.54 216.44 Z" fill="#ffffff" fill-rule="nonzero" group-id="1,2,9" id="路径-279" node-id="63" stroke-linecap="butt" stroke-width="1" target-height="15.544983" target-width="86.41141" target-x="207.27267" target-y="216.44235"></path><path d="M 292.54 227.44 L 293.28 227.62 L 293.68 228.27 L 293.54 228.97 L 292.97 229.39 L 292.86 229.42 L 208.42 242.99 L 207.67 242.81 L 207.27 242.16 L 207.42 241.46 L 207.99 241.04 L 208.10 241.01 L 292.54 227.44 Z" fill="#ffffff" fill-rule="nonzero" group-id="1,2,9" id="路径-279" node-id="64" stroke-linecap="butt" stroke-width="1" target-height="15.544983" target-width="86.41141" target-x="207.27267" target-y="227.44235"></path><path d="M 273.24 241.01 L 273.99 241.19 L 274.39 241.83 L 274.25 242.54 L 273.69 242.96 L 273.57 242.99 L 208.43 253.99 L 207.68 253.81 L 207.27 253.17 L 207.42 252.46 L 207.98 252.04 L 208.09 252.01 L 273.24 241.01 Z" fill="#ffffff" fill-rule="nonzero" group-id="1,2,9" id="路径-279" node-id="65" stroke-linecap="butt" stroke-width="1" target-height="12.972076" target-width="67.119095" target-x="207.27397" target-y="241.01396"></path><path d="M 360.33 90.87 L 525.41 50.00 L 525.41 81.54 L 360.33 118.39 Z" fill="#ffda92" fill-rule="evenodd" group-id="1,2" id="路径-266" node-id="66" stroke-linecap="butt" stroke-width="1" target-height="68.38778" target-width="165.0755" target-x="360.33228" target-y="50"></path><path d="M 358.33 89.87 L 523.41 49.00 L 523.41 80.54 L 358.33 117.39 Z" fill="#dde9ff" fill-rule="evenodd" group-id="1,2" id="路径-266" node-id="67" stroke-linecap="butt" stroke-width="1" target-height="68.38778" target-width="165.0755" target-x="358.33228" target-y="49"></path><path d="M 360.39 131.27 L 525.94 96.74 L 525.94 224.29 L 360.39 250.51 Z" fill="#ffda92" fill-rule="evenodd" group-id="1,2,10" id="路径-267" node-id="69" stroke-linecap="butt" stroke-width="1" target-height="153.76682" target-width="165.54639" target-x="360.3943" target-y="96.74114"></path><path d="M 358.39 129.27 L 523.94 94.74 L 523.94 222.29 L 358.39 248.51 Z" fill="#dde9ff" fill-rule="evenodd" group-id="1,2,10" id="路径-267" node-id="70" stroke-linecap="butt" stroke-width="1" target-height="153.76682" target-width="165.54639" target-x="358.3943" target-y="94.74114"></path><path d="M 391.15 155.08 L 397.15 154.13 L 397.15 237.49 L 391.15 238.44 Z" fill="#ffffff" fill-rule="evenodd" group-id="1,2,10,20" id="矩形备份-15" node-id="72" stroke-linecap="butt" stroke-width="1" target-height="84.30913" target-width="6.007904" target-x="391.14648" target-y="154.1317"></path><path d="M 439.96 159.38 L 445.97 158.43 L 445.97 229.78 L 439.96 230.73 Z" fill="#ffffff" fill-rule="evenodd" group-id="1,2,10,20" id="矩形备份-19" node-id="73" stroke-linecap="butt" stroke-width="1" target-height="72.293335" target-width="6.007904" target-x="439.96072" target-y="158.43318"></path><path d="M 367.11 188.92 L 373.12 187.97 L 373.12 241.29 L 367.11 242.24 Z" fill="#ffffff" fill-rule="evenodd" group-id="1,2,10,20" id="矩形备份-13" node-id="74" stroke-linecap="butt" stroke-width="1" target-height="54.269608" target-width="6.007904" target-x="367.11487" target-y="187.96904"></path><path d="M 415.93 175.95 L 421.94 175.00 L 421.94 233.57 L 415.93 234.52 Z" fill="#ffffff" fill-rule="evenodd" group-id="1,2,10,20" id="矩形备份-16" node-id="75" stroke-linecap="butt" stroke-width="1" target-height="59.52652" target-width="6.007904" target-x="415.9291" target-y="174.9978"></path><path d="M 464.74 128.43 L 470.75 127.48 L 470.75 225.86 L 464.74 226.81 Z" fill="#ffffff" fill-rule="evenodd" group-id="1,2,10,20" id="矩形备份-20" node-id="76" stroke-linecap="butt" stroke-width="1" target-height="99.328896" target-width="6.007904" target-x="464.74332" target-y="127.48112"></path><path d="M 501.54 160.16 L 507.55 159.22 L 507.55 220.05 L 501.54 220.99 Z" fill="#ffffff" fill-rule="evenodd" group-id="1,2,10,20" id="矩形备份-23" node-id="77" stroke-linecap="butt" stroke-width="1" target-height="61.77948" target-width="6.007904" target-x="501.54175" target-y="159.21512"></path><path d="M 403.16 183.22 L 409.17 182.27 L 409.17 235.59 L 403.16 236.54 Z" fill="#ffffff" fill-rule="evenodd" group-id="1,2,10,20" id="矩形备份-17" node-id="78" stroke-linecap="butt" stroke-width="1" target-height="54.269623" target-width="6.007904" target-x="403.1623" target-y="182.27231"></path><path d="M 451.98 137.96 L 457.98 137.01 L 457.98 227.88 L 451.98 228.83 Z" fill="#ffffff" fill-rule="evenodd" group-id="1,2,10,20" id="矩形备份-21" node-id="79" stroke-linecap="butt" stroke-width="1" target-height="91.819016" target-width="6.007904" target-x="451.97653" target-y="137.00859"></path><path d="M 488.77 128.39 L 494.78 127.44 L 494.78 222.06 L 488.77 223.01 Z" fill="#ffffff" fill-rule="evenodd" group-id="1,2,10,20" id="矩形备份-24" node-id="80" stroke-linecap="butt" stroke-width="1" target-height="95.57397" target-width="6.0078735" target-x="488.77496" target-y="127.43824"></path><path d="M 379.13 172.00 L 385.14 171.05 L 385.14 239.39 L 379.13 240.34 Z" fill="#ffffff" fill-rule="evenodd" group-id="1,2,10,20" id="矩形备份-14" node-id="81" stroke-linecap="butt" stroke-width="1" target-height="69.28938" target-width="6.007904" target-x="379.13068" target-y="171.05037"></path><path d="M 427.94 169.54 L 433.95 168.59 L 433.95 231.68 L 427.94 232.63 Z" fill="#ffffff" fill-rule="evenodd" group-id="1,2,10,20" id="矩形备份-18" node-id="82" stroke-linecap="butt" stroke-width="1" target-height="64.03247" target-width="6.007904" target-x="427.94492" target-y="168.59296"></path><path d="M 476.76 113.76 L 482.77 112.82 L 482.77 223.96 L 476.76 224.91 Z" fill="#6ea0fd" fill-rule="evenodd" group-id="1,2,10,20" id="矩形备份-22" node-id="83" stroke-linecap="butt" stroke-width="1" target-height="112.095695" target-width="6.0078735" target-x="476.75916" target-y="112.81541"></path><path d="M 513.56 143.25 L 519.57 142.30 L 519.57 218.15 L 513.56 219.10 Z" fill="#ffffff" fill-rule="evenodd" group-id="1,2,10,20" id="矩形备份-25" node-id="84" stroke-linecap="butt" stroke-width="1" target-height="76.799255" target-width="6.0078735" target-x="513.55756" target-y="142.29645"></path><path d="M 361.33 266.53 L 526.88 245.00 L 526.88 332.55 L 361.33 335.77 Z" fill="#ffda92" fill-rule="evenodd" group-id="1,2" id="路径-267" node-id="85" stroke-linecap="butt" stroke-width="1" target-height="90.766815" target-width="165.54639" target-x="361.33228" target-y="245"></path><path d="M 359.33 264.53 L 524.88 243.00 L 524.88 330.55 L 359.33 333.77 Z" fill="#dde9ff" fill-rule="evenodd" group-id="1,2" id="路径-267" node-id="86" stroke-linecap="butt" stroke-width="1" target-height="90.766815" target-width="165.54639" target-x="359.33228" target-y="243"></path><path d="M 376.03 271.77 L 444.04 264.24 L 445.25 264.28 L 446.26 264.61 L 447.13 265.22 L 447.79 266.06 L 448.20 267.06 L 448.34 268.30 L 447.09 317.77 L 446.69 319.58 L 445.71 321.13 L 444.78 321.96 L 443.73 322.51 L 442.54 322.81 L 374.54 326.34 L 373.33 326.30 L 372.32 325.97 L 371.45 325.35 L 370.78 324.52 L 370.38 323.51 L 370.24 322.28 L 371.48 276.81 L 371.88 274.99 L 372.87 273.45 L 373.80 272.62 L 374.84 272.07 L 376.03 271.77 Z" fill="#ffffff" fill-rule="evenodd" group-id="1,2,11,21,29" node-id="245" stroke-linecap="butt" stroke-width="1" target-height="62.1044" target-width="78.098145" target-x="370.23914" target-y="264.23697"></path><g clip-path="url(#mask-6_4)" group-id="1,2,11,21,30" node-id="248"><path d="M 413.65 325.46 L 429.79 302.00 L 460.33 331.82 L 413.33 337.00 Z" fill="#d9e4ff" fill-rule="evenodd" group-id="1,2,11,21,30" id="路径-5" node-id="92" stroke-linecap="butt" stroke-width="1" target-height="35" target-width="47" target-x="413.33228" target-y="302"></path></g><g clip-path="url(#mask-6_5)" group-id="1,2,11,21,31" node-id="252"><path d="M 363.83 329.05 L 389.64 295.00 L 436.33 338.94 L 363.33 347.00 Z" fill="#bcd1ff" fill-rule="evenodd" group-id="1,2,11,21,31" id="路径-5" node-id="93" stroke-linecap="butt" stroke-width="1" target-height="52" target-width="73" target-x="363.33228" target-y="295"></path></g><g clip-path="url(#mask-6_6)" group-id="1,2,11,21,32" node-id="256"><path d="M 443.10 281.17 L 445.41 280.72 L 447.55 279.92 L 449.55 278.78 L 451.37 277.35 L 452.93 275.70 L 454.23 273.82 L 455.23 271.77 L 455.87 269.61 L 456.14 267.34 L 455.99 265.06 L 455.47 263.04 L 454.59 261.22 L 453.38 259.60 L 451.92 258.28 L 450.17 257.23 L 448.25 256.52 L 446.15 256.17 L 443.81 256.21 L 441.51 256.66 L 439.37 257.45 L 437.36 258.59 L 435.54 260.02 L 433.99 261.67 L 432.68 263.56 L 431.68 265.61 L 431.05 267.76 L 430.77 270.04 L 430.93 272.32 L 431.45 274.34 L 432.32 276.16 L 433.53 277.77 L 435.00 279.09 L 436.75 280.15 L 438.66 280.86 L 440.77 281.20 L 443.10 281.17 Z" fill="#ffe17f" fill-rule="evenodd" group-id="1,2,11,21,32" id="椭圆形" node-id="94" stroke-linecap="butt" stroke-width="1" target-height="25.030823" target-width="25.372925" target-x="430.77124" target-y="256.1724"></path></g><path d="M 466.70 283.35 L 468.52 282.88 L 470.17 281.95 L 471.58 280.65 L 472.69 279.03 L 473.42 277.21 L 473.72 275.22 L 473.50 273.22 L 472.87 271.60 L 471.85 270.26 L 470.51 269.27 L 468.94 268.74 L 467.08 268.67 L 465.26 269.14 L 463.61 270.07 L 462.20 271.38 L 461.09 272.99 L 460.35 274.82 L 460.06 276.80 L 460.28 278.80 L 460.90 280.43 L 461.92 281.76 L 463.27 282.75 L 464.83 283.28 L 466.70 283.35 Z" fill="#bed2ff" fill-rule="evenodd" group-id="1,2,11,22" node-id="262" stroke-linecap="butt" stroke-width="1" target-height="14.681946" target-width="13.6622925" target-x="460.05707" target-y="268.6712"></path><g clip-path="url(#mask-8_3)" group-id="1,2,11,23" node-id="265"><path d="M 466.81 277.61 L 467.96 277.30 L 468.90 276.65 L 469.56 275.76 L 469.82 274.73 L 469.61 273.73 L 469.02 272.97 L 468.13 272.51 L 466.97 272.41 L 465.82 272.72 L 464.88 273.37 L 464.22 274.26 L 463.96 275.29 L 464.16 276.29 L 464.76 277.05 L 465.65 277.51 L 466.81 277.61 Z" fill="#ffffff" fill-rule="evenodd" group-id="1,2,11,23" id="椭圆形" node-id="98" stroke-linecap="butt" stroke-width="1" target-height="5.208679" target-width="5.8552856" target-x="463.96057" target-y="272.40543"></path></g><g clip-path="url(#mask-8_4)" group-id="1,2,11,24" node-id="269"><path d="M 465.75 290.53 L 467.32 290.13 L 468.71 289.39 L 469.94 288.29 L 470.90 286.94 L 471.50 285.46 L 471.77 283.80 L 471.58 282.15 L 471.05 280.80 L 470.17 279.69 L 469.02 278.87 L 467.68 278.43 L 466.08 278.38 L 464.50 278.78 L 463.12 279.52 L 461.89 280.62 L 460.93 281.96 L 460.32 283.45 L 460.06 285.11 L 460.24 286.76 L 460.78 288.10 L 461.66 289.21 L 462.81 290.03 L 464.15 290.47 L 465.75 290.53 Z" fill="#ffffff" fill-rule="evenodd" group-id="1,2,11,24" id="椭圆形复制" node-id="99" stroke-linecap="butt" stroke-width="1" target-height="12.153595" target-width="11.710541" target-x="460.05667" target-y="278.37543"></path></g><path d="M 484.75 267.19 L 502.90 265.24 L 504.13 265.37 L 505.08 265.92 L 505.72 266.82 L 505.94 268.03 L 505.66 269.27 L 504.96 270.33 L 503.95 271.11 L 502.72 271.49 L 484.58 273.43 L 483.34 273.31 L 482.39 272.76 L 481.75 271.85 L 481.53 270.65 L 481.81 269.41 L 482.51 268.34 L 483.53 267.57 L 484.75 267.19 Z" fill="#d4dff2" fill-rule="evenodd" group-id="1,2,11" id="矩形" node-id="100" stroke-linecap="butt" stroke-width="1" target-height="8.188538" target-width="24.404236" target-x="481.53357" target-y="265.24475"></path><path d="M 483.50 276.82 L 521.65 272.62 L 522.40 272.70 L 522.99 273.05 L 523.38 273.61 L 523.51 274.37 L 523.34 275.14 L 522.91 275.81 L 522.29 276.29 L 521.55 276.53 L 483.39 280.72 L 482.64 280.64 L 482.05 280.29 L 481.67 279.73 L 481.53 278.98 L 481.70 278.20 L 482.13 277.54 L 482.75 277.05 L 483.50 276.82 Z" fill="#d4dff2" fill-rule="evenodd" group-id="1,2,11" id="矩形" node-id="101" stroke-linecap="butt" stroke-width="1" target-height="8.092804" target-width="41.97809" target-x="481.53308" target-y="272.6246"></path><path d="M 461.05 294.87 L 521.65 288.23 L 522.40 288.30 L 522.99 288.65 L 523.38 289.21 L 523.51 289.97 L 523.34 290.74 L 522.91 291.41 L 522.29 291.89 L 521.54 292.13 L 460.94 298.77 L 460.19 298.70 L 459.60 298.35 L 459.21 297.79 L 459.08 297.03 L 459.25 296.25 L 459.68 295.59 L 460.30 295.11 L 461.05 294.87 Z" fill="#ddeaff" fill-opacity="0.8" fill-rule="evenodd" group-id="1,2,11,25" id="矩形" node-id="102" stroke-linecap="butt" stroke-opacity="0.8" stroke-width="1" target-height="10.543579" target-width="64.43234" target-x="459.07883" target-y="288.22784"></path><path d="M 461.02 304.23 L 520.70 297.59 L 521.44 297.66 L 522.02 298.01 L 522.40 298.57 L 522.53 299.33 L 522.37 300.11 L 521.94 300.77 L 521.33 301.26 L 520.60 301.49 L 460.91 308.13 L 460.17 308.06 L 459.59 307.71 L 459.21 307.15 L 459.08 306.39 L 459.25 305.62 L 459.67 304.95 L 460.28 304.47 L 461.02 304.23 Z" fill="#ddeaff" fill-opacity="0.8" fill-rule="evenodd" group-id="1,2,11,26" id="矩形" node-id="103" stroke-linecap="butt" stroke-opacity="0.8" stroke-width="1" target-height="10.543579" target-width="63.456085" target-x="459.07883" target-y="297.58978"></path><path d="M 460.11 312.81 L 486.47 309.97 L 487.24 310.05 L 487.83 310.40 L 488.23 310.96 L 488.37 311.71 L 488.19 312.49 L 487.76 313.16 L 487.12 313.64 L 486.36 313.88 L 460.00 316.72 L 459.23 316.64 L 458.63 316.29 L 458.24 315.73 L 458.10 314.97 L 458.28 314.20 L 458.71 313.53 L 459.34 313.05 L 460.11 312.81 Z" fill="#ddeaff" fill-opacity="0.8" fill-rule="evenodd" group-id="1,2,11,27" id="矩形" node-id="104" stroke-linecap="butt" stroke-opacity="0.8" stroke-width="1" target-height="6.740631" target-width="30.262848" target-x="458.10257" target-y="309.9745"></path><path d="M 545.50 404.42 L 551.63 404.11 L 557.56 403.26 L 563.32 401.87 L 568.94 399.95 L 574.37 397.52 L 579.57 394.65 L 584.57 391.30 L 589.38 387.48 L 593.86 383.30 L 598.06 378.75 L 601.98 373.80 L 605.65 368.43 L 608.90 362.85 L 611.81 356.97 L 614.36 350.76 L 616.57 344.21 L 618.32 337.58 L 619.64 330.72 L 620.52 323.62 L 620.96 316.25 L 619.56 316.09 L 603.60 315.41 L 540.61 313.42 L 541.89 242.31 L 541.97 224.15 L 541.85 222.52 L 532.60 222.36 L 527.79 222.43 L 523.06 222.84 L 519.97 223.39 L 517.07 224.25 L 514.32 225.41 L 509.40 228.25 L 504.71 231.56 L 500.24 235.37 L 495.98 239.70 L 492.09 244.32 L 488.47 249.31 L 485.11 254.69 L 482.01 260.48 L 479.31 266.41 L 476.92 272.59 L 474.86 279.02 L 473.12 285.72 L 471.77 292.49 L 470.80 299.35 L 470.21 306.32 L 470.00 313.42 L 470.27 320.99 L 471.00 328.30 L 472.20 335.35 L 473.85 342.18 L 475.97 348.93 L 478.47 355.33 L 481.33 361.40 L 484.57 367.16 L 488.23 372.71 L 492.17 377.83 L 496.39 382.54 L 500.91 386.86 L 505.78 390.82 L 510.84 394.28 L 516.12 397.27 L 521.64 399.78 L 527.35 401.78 L 533.21 403.22 L 539.25 404.10 L 545.50 404.42 Z" fill="#ffbb3c" fill-rule="evenodd" group-id="1,2,12" id="椭圆形" node-id="106" stroke-linecap="butt" stroke-width="1" target-height="182.05609" target-width="150.96445" target-x="469.99997" target-y="222.3612"></path><path d="M 530.50 404.42 L 536.63 404.11 L 542.56 403.26 L 548.32 401.87 L 553.94 399.95 L 559.37 397.52 L 564.57 394.65 L 569.57 391.30 L 574.38 387.48 L 578.86 383.30 L 583.06 378.75 L 586.98 373.80 L 590.65 368.43 L 593.90 362.85 L 596.81 356.97 L 599.36 350.76 L 601.57 344.21 L 603.32 337.58 L 604.64 330.72 L 605.52 323.62 L 605.96 316.25 L 604.56 316.09 L 588.60 315.41 L 525.61 313.42 L 526.89 242.22 L 526.97 224.12 L 526.85 222.52 L 520.87 223.16 L 515.09 224.31 L 509.48 225.98 L 504.02 228.17 L 498.76 230.83 L 493.73 233.92 L 488.91 237.46 L 484.28 241.46 L 479.99 245.78 L 475.98 250.47 L 472.24 255.54 L 468.77 261.01 L 465.71 266.67 L 463.00 272.61 L 460.64 278.87 L 458.63 285.45 L 457.08 292.10 L 455.95 298.97 L 455.25 306.06 L 455.00 313.42 L 455.27 320.99 L 456.00 328.30 L 457.20 335.35 L 458.85 342.18 L 460.97 348.93 L 463.47 355.33 L 466.33 361.40 L 469.57 367.16 L 473.23 372.71 L 477.17 377.83 L 481.39 382.54 L 485.91 386.86 L 490.78 390.82 L 495.84 394.28 L 501.12 397.27 L 506.64 399.78 L 512.35 401.78 L 518.21 403.22 L 524.25 404.10 L 530.50 404.42 Z" fill="#ffda92" fill-rule="evenodd" group-id="1,2,12,28,33" node-id="292" stroke-linecap="butt" stroke-width="1" target-height="181.89706" target-width="150.96426" target-x="454.99997" target-y="222.52023"></path><g clip-path="url(#mask-10)" group-id="1,2,12,28,34" node-id="295"><path d="M 535.50 404.42 L 541.63 404.11 L 547.56 403.26 L 553.32 401.87 L 558.94 399.95 L 564.37 397.52 L 569.57 394.65 L 574.57 391.30 L 579.38 387.48 L 583.86 383.30 L 588.06 378.75 L 591.98 373.80 L 595.65 368.43 L 598.90 362.85 L 601.81 356.97 L 604.36 350.76 L 606.57 344.21 L 608.32 337.58 L 609.64 330.72 L 610.52 323.62 L 610.96 316.25 L 609.56 316.09 L 593.60 315.41 L 530.61 313.42 L 531.89 242.22 L 531.97 224.12 L 531.85 222.52 L 525.87 223.16 L 520.09 224.31 L 514.48 225.98 L 509.02 228.17 L 503.76 230.83 L 498.73 233.92 L 493.91 237.46 L 489.28 241.46 L 484.99 245.78 L 480.98 250.47 L 477.24 255.54 L 473.77 261.01 L 470.71 266.67 L 468.00 272.61 L 465.64 278.87 L 463.63 285.45 L 462.08 292.10 L 460.95 298.97 L 460.25 306.06 L 460.00 313.42 L 460.27 320.99 L 461.00 328.30 L 462.20 335.35 L 463.85 342.18 L 465.97 348.93 L 468.47 355.33 L 471.33 361.40 L 474.57 367.16 L 478.23 372.71 L 482.17 377.83 L 486.39 382.54 L 490.91 386.86 L 495.78 390.82 L 500.84 394.28 L 506.12 397.27 L 511.64 399.78 L 517.35 401.78 L 523.21 403.22 L 529.25 404.10 L 535.50 404.42 Z" fill="#ffca65" fill-rule="evenodd" group-id="1,2,12,28,34" id="椭圆形" node-id="111" stroke-linecap="butt" stroke-width="1" target-height="181.89706" target-width="150.96426" target-x="459.99997" target-y="222.52023"></path></g><path d="M 542.14 305.18 L 610.21 268.06 L 612.77 274.97 L 614.59 281.53 L 615.71 287.80 L 616.20 293.81 L 616.07 299.59 L 615.35 305.18 L 542.14 305.18 Z" fill="#c4d6ff" fill-rule="evenodd" group-id="1,2,12" id="路径-262" node-id="112" stroke-linecap="butt" stroke-width="1" target-height="37.1192" target-width="74.060486" target-x="542.1375" target-y="268.05792"></path><path d="M 610.21 268.06 L 628.28 268.06 L 630.89 275.46 L 632.81 282.32 L 634.08 288.67 L 634.77 294.57 L 634.93 300.06 L 634.59 305.18 L 615.61 305.50 L 610.21 268.06 Z" fill="#6ea0fd" fill-rule="evenodd" group-id="1,2,12" id="路径-263" node-id="113" stroke-linecap="butt" stroke-width="1" target-height="37.441956" target-width="24.713135" target-x="610.21375" target-y="268.05792"></path><path d="M 536.61 194.10 L 545.41 193.25 L 553.71 193.00 L 561.55 193.33 L 568.97 194.20 L 576.00 195.58 L 582.66 197.48 L 589.01 199.87 L 595.05 202.76 L 600.82 206.15 L 606.33 210.06 L 611.61 214.52 L 616.65 219.54 L 621.47 225.16 L 626.07 231.43 L 630.45 238.40 L 634.59 246.10 L 538.13 300.10 L 538.13 289.32 L 615.35 245.26 L 536.61 194.10 Z" fill="#ffbb3c" fill-rule="evenodd" group-id="1,2,12" id="路径-261" node-id="114" stroke-linecap="butt" stroke-width="1" target-height="107.09851" target-width="97.98053" target-x="536.6084" target-y="193.00183"></path><path d="M 538.13 289.32 L 615.35 245.26 L 612.34 238.53 L 608.97 232.36 L 605.25 226.73 L 601.17 221.58 L 596.73 216.90 L 591.92 212.66 L 586.72 208.85 L 581.10 205.45 L 575.04 202.46 L 568.49 199.89 L 561.42 197.74 L 553.78 196.05 L 545.53 194.82 L 536.61 194.10 L 538.13 289.32 Z" fill="#ffca65" fill-rule="evenodd" group-id="1,2,12" id="路径-260" node-id="115" stroke-linecap="butt" stroke-width="1" target-height="95.21648" target-width="78.746216" target-x="536.6084" target-y="194.09953"></path><path d="M 175.42 260.68 L 173.50 262.97 L 174.26 263.62 L 176.19 261.32 L 175.42 260.68 Z M 171.52 265.21 L 169.49 267.40 L 170.22 268.09 L 172.27 265.88 L 171.52 265.21 Z M 167.40 269.54 L 165.26 271.62 L 165.94 272.35 L 168.11 270.25 L 167.40 269.54 Z M 163.05 273.62 L 160.76 275.53 L 161.39 276.31 L 163.70 274.37 L 163.05 273.62 Z M 158.40 277.36 L 155.96 279.07 L 156.52 279.90 L 158.99 278.16 L 158.40 277.36 Z M 153.42 280.66 L 150.82 282.08 L 151.27 282.97 L 153.93 281.52 L 153.42 280.66 Z M 148.14 283.32 L 145.37 284.36 L 145.69 285.31 L 148.53 284.24 L 148.14 283.32 Z M 142.51 285.18 L 139.61 285.72 L 139.74 286.71 L 142.74 286.15 L 142.51 285.18 Z M 136.63 285.98 L 133.68 285.93 L 133.61 286.93 L 136.66 286.98 L 136.63 285.98 Z M 130.70 285.60 L 127.77 285.09 L 127.57 286.07 L 130.55 286.59 L 130.70 285.60 Z M 124.88 284.39 L 122.04 283.53 L 121.72 284.48 L 124.62 285.36 L 124.88 284.39 Z M 119.25 282.49 L 116.54 281.29 L 116.11 282.19 L 118.88 283.42 L 119.25 282.49 Z M 113.89 279.91 L 111.35 278.37 L 110.80 279.20 L 113.40 280.78 L 113.89 279.91 Z M 108.94 276.67 L 106.65 274.79 L 105.99 275.53 L 108.33 277.46 L 108.94 276.67 Z M 104.52 272.71 L 102.61 270.46 L 101.82 271.06 L 103.79 273.39 L 104.52 272.71 Z M 100.96 267.98 L 99.68 265.35 L 98.75 265.72 L 100.09 268.48 L 100.96 267.98 Z M 98.86 262.53 L 98.67 261.07 L 98.65 259.65 L 97.65 259.61 L 97.68 261.14 L 97.88 262.71 L 98.86 262.53 Z M 99.10 256.85 L 100.14 254.14 L 99.25 253.69 L 98.14 256.58 L 99.10 256.85 Z M 101.76 251.71 L 102.80 250.68 L 103.93 249.86 L 103.41 249.01 L 102.15 249.92 L 101.01 251.05 L 101.76 251.71 Z M 106.57 248.77 L 107.97 248.55 L 109.41 248.55 L 109.48 247.55 L 107.89 247.55 L 106.34 247.79 L 106.57 248.77 Z M 112.21 249.17 L 113.51 249.76 L 114.73 250.53 L 115.32 249.73 L 113.99 248.88 L 112.56 248.23 L 112.21 249.17 Z M 116.84 252.60 L 117.62 253.79 L 118.24 255.10 L 119.17 254.73 L 118.49 253.30 L 117.63 252.00 L 116.84 252.60 Z M 118.91 257.81 L 118.99 259.22 L 118.91 260.70 L 119.90 260.81 L 119.99 259.22 L 119.90 257.70 L 118.91 257.81 Z M 118.30 263.56 L 117.19 266.25 L 118.08 266.71 L 119.25 263.86 L 118.30 263.56 Z M 115.61 268.75 L 113.66 270.92 L 114.35 271.65 L 116.41 269.36 L 115.61 268.75 Z M 111.37 272.74 L 108.82 274.13 L 109.22 275.05 L 111.93 273.57 L 111.37 272.74 Z M 105.97 275.10 L 103.08 275.55 L 103.16 276.55 L 106.20 276.07 L 105.97 275.10 Z M 100.23 275.57 L 98.61 275.41 L 97.42 275.15 L 97.13 276.10 L 98.48 276.40 L 100.16 276.57 L 100.23 275.57 Z M 94.80 273.92 L 92.48 272.15 L 91.82 272.90 L 94.27 274.77 L 94.80 273.92 Z M 90.42 270.04 L 88.58 267.72 L 87.77 268.31 L 89.66 270.70 L 90.42 270.04 Z M 86.94 265.28 L 85.45 262.72 L 84.57 263.20 L 86.09 265.81 L 86.94 265.28 Z M 84.08 260.05 L 82.85 257.33 L 81.93 257.73 L 83.18 260.48 L 84.08 260.05 Z M 81.73 254.55 L 80.73 251.74 L 79.78 252.06 L 80.80 254.90 L 81.73 254.55 Z M 79.81 248.87 L 79.00 246.00 L 78.03 246.25 L 78.86 249.16 L 79.81 248.87 Z M 78.29 243.13 L 77.65 240.21 L 76.67 240.41 L 77.31 243.35 L 78.29 243.13 Z M 77.10 237.29 L 76.62 234.34 L 75.64 234.48 L 76.11 237.46 L 77.10 237.29 Z M 76.23 231.40 L 75.91 228.43 L 74.92 228.52 L 75.24 231.52 L 76.23 231.40 Z M 75.67 225.44 L 75.50 222.46 L 74.50 222.50 L 74.67 225.51 L 75.67 225.44 Z M 75.41 219.45 L 75.39 216.47 L 74.39 216.46 L 74.41 219.47 L 75.41 219.45 Z M 75.44 213.47 L 75.56 210.48 L 74.56 210.43 L 74.44 213.44 L 75.44 213.47 Z M 75.75 207.48 L 76.01 204.51 L 75.02 204.41 L 74.75 207.41 L 75.75 207.48 Z M 76.34 201.53 L 76.74 198.56 L 75.75 198.42 L 75.35 201.40 L 76.34 201.53 Z M 77.21 195.59 L 77.75 192.65 L 76.77 192.46 L 76.23 195.43 L 77.21 195.59 Z M 78.35 189.71 L 79.02 186.80 L 78.05 186.57 L 77.37 189.50 L 78.35 189.71 Z M 79.76 183.89 L 80.56 181.01 L 79.60 180.73 L 78.79 183.63 L 79.76 183.89 Z M 81.43 178.13 L 82.36 175.29 L 81.41 174.97 L 80.47 177.83 L 81.43 178.13 Z M 83.33 172.51 L 83.59 171.80 L 84.39 169.71 L 83.46 169.35 L 82.65 171.46 L 82.39 172.17 L 83.33 172.51 Z M 85.51 166.95 L 86.71 164.21 L 85.80 163.80 L 84.59 166.56 L 85.51 166.95 Z M 87.98 161.50 L 89.31 158.82 L 88.42 158.37 L 87.08 161.06 L 87.98 161.50 Z M 90.72 156.17 L 92.18 153.57 L 91.31 153.07 L 89.84 155.69 L 90.72 156.17 Z M 93.71 151.00 L 95.30 148.47 L 94.46 147.93 L 92.86 150.48 L 93.71 151.00 Z M 96.95 145.98 L 98.66 143.53 L 97.84 142.94 L 96.12 145.42 L 96.95 145.98 Z M 100.43 141.10 L 102.24 138.73 L 101.46 138.11 L 99.63 140.50 L 100.43 141.10 Z M 104.12 136.38 L 106.04 134.09 L 105.28 133.44 L 103.35 135.75 L 104.12 136.38 Z M 107.99 131.86 L 110.00 129.64 L 109.26 128.96 L 107.24 131.19 L 107.99 131.86 Z M 112.05 127.46 L 114.14 125.33 L 113.44 124.62 L 111.33 126.77 L 112.05 127.46 Z M 116.28 123.22 L 118.45 121.17 L 117.77 120.43 L 115.59 122.51 L 116.28 123.22 Z M 120.66 119.14 L 122.90 117.15 L 122.24 116.40 L 119.99 118.39 L 120.66 119.14 Z M 125.18 115.19 L 127.47 113.27 L 126.84 112.50 L 124.53 114.42 L 125.18 115.19 Z M 129.80 111.38 L 132.15 109.53 L 131.54 108.74 L 129.18 110.60 L 129.80 111.38 Z M 134.52 107.71 L 136.92 105.92 L 136.33 105.12 L 133.92 106.92 L 134.52 107.71 Z M 139.35 104.15 L 141.79 102.42 L 141.21 101.60 L 138.77 103.34 L 139.35 104.15 Z M 144.24 100.72 L 146.71 99.03 L 146.16 98.20 L 143.67 99.89 L 144.24 100.72 Z M 149.21 97.37 L 151.72 95.74 L 151.18 94.90 L 148.66 96.54 L 149.21 97.37 Z M 154.25 94.12 L 156.79 92.53 L 156.26 91.68 L 153.71 93.28 L 154.25 94.12 Z M 159.33 90.96 L 161.89 89.40 L 161.38 88.55 L 158.81 90.10 L 159.33 90.96 Z M 163.95 87.01 L 164.46 87.87 L 166.17 86.85 L 167.04 86.34 L 166.53 85.48 L 164.80 86.50 L 163.95 87.01 Z M 169.13 83.96 L 169.63 84.83 L 172.23 83.33 L 171.74 82.46 L 169.99 83.47 L 169.13 83.96 Z M 174.84 81.84 L 176.57 80.86 L 177.45 80.37 L 176.96 79.49 L 174.35 80.97 L 174.84 81.84 Z M 180.07 78.90 L 182.69 77.44 L 182.20 76.56 L 179.58 78.02 L 180.07 78.90 Z M 185.32 75.98 L 187.94 74.52 L 187.46 73.65 L 184.83 75.10 L 185.32 75.98 Z M 190.57 73.07 L 193.19 71.62 L 192.71 70.75 L 190.08 72.20 L 190.57 73.07 Z M 195.82 70.17 L 198.30 68.79 L 197.82 67.92 L 195.34 69.29 L 195.82 70.17 Z" fill="#ffca65" fill-rule="nonzero" group-id="1,2" id="路径-353" node-id="116" stroke-linecap="butt" stroke-width="1" target-height="219.0642" target-width="123.91664" target-x="74.38599" target-y="67.916916"></path></g></g></svg>