<svg height="448" legacy-metrics="false" node-id="1" sillyvg="true" template-height="448" template-width="606" version="1.1" viewBox="0 0 606 448" width="606" xmlns="http://www.w3.org/2000/svg" xmlns:xlink="http://www.w3.org/1999/xlink"><defs node-id="29"></defs><g node-id="31"><g node-id="32"><g node-id="33"><path d="M 197.19 114.57 L 482.54 235.69 L 484.40 236.80 L 485.83 238.28 L 486.83 240.06 L 487.35 242.04 L 487.35 244.10 L 486.78 246.18 L 403.55 442.25 L 402.45 444.11 L 400.97 445.54 L 399.19 446.54 L 397.21 447.06 L 395.15 447.06 L 393.06 446.49 L 107.71 325.36 L 105.85 324.26 L 104.42 322.78 L 103.42 321.00 L 102.90 319.02 L 102.90 316.96 L 103.47 314.87 L 186.70 118.81 L 187.80 116.95 L 189.28 115.52 L 191.06 114.51 L 193.04 114.00 L 195.10 114.00 L 197.19 114.57 Z" fill="#ffe3ae" fill-rule="evenodd" group-id="1,2,3" id="矩形" node-id="10" stroke-linecap="butt" stroke-width="1" target-height="333.06686" target-width="384.4549" target-x="102.897385" target-y="113.995674"></path><path d="M 193.73 102.24 L 479.09 223.36 L 480.94 224.47 L 482.38 225.95 L 483.38 227.73 L 483.90 229.71 L 483.89 231.77 L 483.32 233.85 L 400.10 429.92 L 398.99 431.78 L 397.51 433.21 L 395.73 434.21 L 393.75 434.73 L 391.69 434.73 L 389.61 434.16 L 104.25 313.03 L 102.39 311.93 L 100.96 310.45 L 99.96 308.67 L 99.44 306.69 L 99.44 304.63 L 100.01 302.54 L 183.24 106.48 L 184.34 104.62 L 185.82 103.19 L 187.61 102.18 L 189.59 101.66 L 191.64 101.67 L 193.73 102.24 Z" fill="#96baff" fill-rule="evenodd" group-id="1,2,3" id="矩形" node-id="11" stroke-linecap="butt" stroke-width="1" target-height="333.06683" target-width="384.45486" target-x="99.44067" target-y="101.66478"></path><path d="M 161.06 44.54 L 446.42 165.67 L 448.28 166.77 L 449.71 168.25 L 450.71 170.03 L 451.23 172.01 L 451.23 174.07 L 450.66 176.16 L 367.43 372.22 L 366.32 374.08 L 364.85 375.51 L 363.06 376.51 L 361.08 377.03 L 359.03 377.03 L 356.94 376.46 L 71.58 255.33 L 69.72 254.23 L 68.29 252.75 L 67.29 250.97 L 66.77 248.99 L 66.77 246.93 L 67.34 244.84 L 150.57 48.78 L 151.68 46.92 L 153.15 45.49 L 154.94 44.49 L 156.92 43.97 L 158.97 43.97 L 161.06 44.54 Z" fill="#dde9ff" fill-rule="evenodd" group-id="1,2,3" id="矩形" node-id="12" stroke-linecap="butt" stroke-width="1" target-height="333.06683" target-width="384.45486" target-x="66.77258" target-y="43.9666"></path><path d="M 153.94 24.51 L 439.29 145.64 L 441.15 146.74 L 442.58 148.22 L 443.58 150.00 L 444.10 151.98 L 444.10 154.04 L 443.53 156.13 L 360.30 352.19 L 359.20 354.05 L 357.72 355.48 L 355.94 356.49 L 353.96 357.00 L 351.90 357.00 L 349.81 356.43 L 64.46 235.31 L 62.60 234.20 L 61.17 232.72 L 60.17 230.94 L 59.65 228.96 L 59.65 226.90 L 60.22 224.82 L 143.45 28.75 L 144.55 26.89 L 146.03 25.46 L 147.81 24.46 L 149.79 23.94 L 151.85 23.94 L 153.94 24.51 Z" fill="#ffffff" fill-rule="evenodd" group-id="1,2,3" id="矩形" node-id="13" stroke-linecap="butt" stroke-width="1" target-height="333.0668" target-width="384.45483" target-x="59.64778" target-y="23.937523"></path><path d="M 439.29 145.64 L 441.15 146.74 L 442.58 148.22 L 443.58 150.00 L 444.10 151.98 L 444.10 154.04 L 443.53 156.13 L 360.30 352.19 L 359.20 354.05 L 357.72 355.48 L 355.94 356.49 L 353.96 357.00 L 351.90 357.00 L 349.81 356.43 L 64.46 235.31 L 62.60 234.20 L 61.17 232.72 L 60.17 230.94 L 59.65 228.96 L 59.65 226.90 L 60.22 224.82 L 143.45 28.75 L 144.55 26.89 L 146.03 25.46 L 147.81 24.46 L 149.79 23.94 L 151.85 23.94 L 153.94 24.51 L 439.29 145.64 Z M 438.90 146.56 L 153.54 25.43 L 151.73 24.94 L 150.00 24.92 L 148.29 25.34 L 146.74 26.17 L 145.48 27.35 L 144.46 28.92 L 144.37 29.14 L 61.14 225.21 L 60.65 227.02 L 60.63 228.75 L 61.05 230.46 L 61.88 232.01 L 63.06 233.28 L 64.63 234.29 L 64.85 234.38 L 350.21 355.51 L 352.02 356.00 L 353.75 356.03 L 355.46 355.60 L 357.01 354.77 L 358.27 353.59 L 359.29 352.02 L 359.38 351.80 L 442.61 155.74 L 443.10 153.92 L 443.12 152.19 L 442.70 150.48 L 441.87 148.93 L 440.69 147.67 L 439.12 146.65 L 438.90 146.56 Z" fill="#c4d6ff" fill-rule="nonzero" group-id="1,2,3" id="矩形" node-id="14" stroke-linecap="butt" stroke-width="1" target-height="333.0668" target-width="384.45483" target-x="59.64778" target-y="23.937523"></path><path d="M 294.17 131.08 L 377.01 166.25 L 379.03 167.33 L 380.73 168.67 L 382.15 170.28 L 383.28 172.11 L 384.07 174.06 L 384.53 176.16 L 384.62 178.31 L 384.33 180.45 L 383.63 182.64 L 367.22 221.30 L 366.14 223.31 L 364.80 225.02 L 363.19 226.44 L 361.36 227.57 L 359.41 228.36 L 357.31 228.81 L 355.16 228.91 L 353.02 228.62 L 350.83 227.92 L 267.99 192.75 L 265.97 191.67 L 264.27 190.33 L 262.85 188.72 L 261.72 186.89 L 260.93 184.94 L 260.47 182.84 L 260.38 180.69 L 260.67 178.55 L 261.37 176.36 L 277.78 137.70 L 278.86 135.69 L 280.20 133.98 L 281.81 132.56 L 283.64 131.43 L 285.59 130.64 L 287.69 130.19 L 289.84 130.09 L 291.98 130.38 L 294.17 131.08 Z" fill="#dde9ff" fill-rule="evenodd" group-id="1,2,3" id="矩形" node-id="15" stroke-linecap="butt" stroke-width="1" target-height="98.81624" target-width="124.24539" target-x="260.37732" target-y="130.09187"></path><path d="M 319.78 138.80 L 375.01 162.25 L 377.03 163.33 L 378.73 164.67 L 380.15 166.28 L 381.28 168.11 L 382.07 170.06 L 382.53 172.16 L 382.62 174.31 L 382.33 176.45 L 381.63 178.64 L 365.22 217.30 L 364.14 219.31 L 362.80 221.02 L 361.19 222.44 L 359.36 223.57 L 357.41 224.36 L 355.31 224.81 L 353.16 224.91 L 351.02 224.62 L 348.83 223.92 L 293.60 200.48 L 291.59 199.39 L 289.88 198.05 L 288.46 196.44 L 287.33 194.61 L 286.54 192.66 L 286.09 190.56 L 285.99 188.42 L 286.28 186.27 L 286.98 184.09 L 303.39 145.42 L 304.48 143.41 L 305.82 141.71 L 307.43 140.28 L 309.26 139.15 L 311.21 138.37 L 313.31 137.91 L 315.45 137.81 L 317.60 138.11 L 319.78 138.80 Z" fill="#ffe0a5" fill-rule="evenodd" group-id="1,2,3" id="矩形" node-id="16" stroke-linecap="butt" stroke-width="1" target-height="87.094315" target-width="96.63022" target-x="285.9925" target-y="137.8138"></path><path d="M 344.31 216.45 L 343.38 215.79 L 343.04 214.97 L 343.23 213.89 L 356.56 182.47 L 357.21 181.59 L 358.03 181.27 L 359.16 181.47 L 360.09 182.14 L 360.43 182.95 L 360.24 184.04 L 346.91 215.45 L 346.26 216.34 L 345.44 216.66 L 344.31 216.45 Z M 331.37 210.97 L 330.90 210.64 L 330.58 210.16 L 330.45 209.60 L 330.55 209.06 L 337.24 193.30 L 337.56 192.86 L 338.05 192.56 L 338.62 192.46 L 339.18 192.56 L 340.10 192.95 L 340.57 193.28 L 340.88 193.77 L 341.01 194.33 L 340.92 194.86 L 334.23 210.62 L 333.91 211.07 L 333.42 211.36 L 332.85 211.47 L 332.28 211.36 L 331.37 210.97 Z M 317.98 204.94 L 317.44 204.57 L 317.06 204.06 L 316.89 203.47 L 316.97 202.92 L 324.74 184.62 L 325.08 184.18 L 325.62 183.89 L 326.25 183.80 L 326.89 183.94 L 327.22 184.08 L 327.90 184.16 L 328.29 184.43 L 328.55 184.87 L 328.61 185.42 L 328.42 186.18 L 320.66 204.48 L 320.32 204.92 L 319.77 205.21 L 319.14 205.30 L 318.50 205.16 L 317.98 204.94 Z M 302.00 198.23 L 301.56 197.95 L 301.33 197.63 L 301.30 196.94 L 304.49 189.43 L 304.74 189.10 L 305.09 188.94 L 305.91 189.03 L 307.47 189.69 L 307.91 189.97 L 308.14 190.30 L 308.17 190.99 L 304.98 198.50 L 304.46 198.96 L 304.07 199.02 L 303.56 198.90 L 302.00 198.23 Z M 312.15 180.64 L 312.12 180.63 L 311.88 180.34 L 310.82 176.79 L 310.85 176.44 L 311.12 176.20 L 337.21 166.67 L 337.57 166.68 L 337.81 166.92 L 341.71 174.93 L 356.74 168.14 L 354.58 161.92 L 354.68 161.43 L 355.16 161.28 L 370.42 165.19 L 370.49 165.21 L 370.76 165.50 L 370.68 165.95 L 361.46 177.99 L 361.00 178.18 L 360.88 178.14 L 360.62 177.86 L 358.73 172.34 L 340.08 180.99 L 339.69 180.99 L 339.45 180.77 L 335.10 172.52 L 312.50 180.65 L 312.15 180.64 Z" fill="#ffffff" fill-rule="nonzero" group-id="1,2,3" id="形状" node-id="17" stroke-linecap="butt" stroke-width="1" target-height="55.374634" target-width="69.45874" target-x="301.29883" target-y="161.2843"></path><path d="M 242.07 204.98 L 342.40 247.57 L 343.23 248.13 L 343.75 248.93 L 343.93 249.86 L 343.73 250.84 L 343.73 250.84 L 343.16 251.67 L 342.36 252.19 L 341.43 252.37 L 340.45 252.17 L 240.12 209.58 L 239.29 209.01 L 238.77 208.21 L 238.59 207.28 L 238.79 206.30 L 238.79 206.30 L 239.36 205.48 L 240.16 204.96 L 241.09 204.78 L 242.07 204.98 Z" fill="#dde9ff" fill-rule="evenodd" group-id="1,2,3" id="矩形" node-id="18" stroke-linecap="butt" stroke-width="1" target-height="47.591064" target-width="105.336426" target-x="238.59204" target-y="204.77737"></path><path d="M 238.16 214.18 L 338.50 256.77 L 339.32 257.34 L 339.84 258.14 L 340.02 259.07 L 339.82 260.05 L 339.82 260.05 L 339.25 260.87 L 338.46 261.39 L 337.52 261.57 L 336.54 261.37 L 236.21 218.78 L 235.38 218.22 L 234.87 217.42 L 234.68 216.49 L 234.88 215.51 L 234.88 215.51 L 235.45 214.68 L 236.25 214.17 L 237.18 213.98 L 238.16 214.18 Z" fill="#dde9ff" fill-rule="evenodd" group-id="1,2,3" id="矩形" node-id="19" stroke-linecap="butt" stroke-width="1" target-height="47.59105" target-width="105.336426" target-x="234.68472" target-y="213.98244"></path><path d="M 234.25 223.39 L 334.59 265.98 L 335.41 266.54 L 335.93 267.34 L 336.11 268.27 L 335.91 269.25 L 335.91 269.25 L 335.35 270.08 L 334.55 270.60 L 333.62 270.78 L 332.64 270.58 L 232.30 227.99 L 231.48 227.42 L 230.96 226.62 L 230.78 225.69 L 230.98 224.71 L 230.98 224.71 L 231.54 223.89 L 232.34 223.37 L 233.27 223.19 L 234.25 223.39 Z" fill="#dde9ff" fill-rule="evenodd" group-id="1,2,3" id="矩形" node-id="20" stroke-linecap="butt" stroke-width="1" target-height="47.59108" target-width="105.336426" target-x="230.7774" target-y="223.18748"></path><path d="M 103.50 199.00 L 161.71 223.71 L 165.41 242.55 L 149.20 253.16 L 91.00 228.46 Z" fill="#eaf2ff" fill-rule="evenodd" group-id="1,2,3" id="Rectangle" node-id="21" stroke-linecap="butt" stroke-width="1" target-height="54.16194" target-width="74.41006" target-x="91.00001" target-y="199"></path><path d="M 165.77 225.07 L 260.35 265.22 L 264.14 284.20 L 247.85 294.67 L 153.27 254.52 L 169.55 244.06 Z" fill="#e5eeff" fill-rule="evenodd" group-id="1,2,3" id="Rectangle-Copy-2" node-id="22" stroke-linecap="butt" stroke-width="1" target-height="69.60428" target-width="110.871826" target-x="153.26584" target-y="225.06763"></path><path d="M 267.03 267.69 L 339.36 298.40 L 343.05 317.34 L 326.86 327.85 L 254.53 297.15 L 270.72 286.64 Z" fill="#dde9ff" fill-rule="evenodd" group-id="1,2,3" id="Rectangle-Copy-2备份" node-id="23" stroke-linecap="butt" stroke-width="1" target-height="60.160828" target-width="88.52579" target-x="254.52518" target-y="267.69104"></path></g><path d="M 228.57 93.50 L 228.81 90.11 L 229.48 86.93 L 230.57 83.92 L 232.05 81.09 L 233.86 78.52 L 236.00 76.20 L 238.42 74.17 L 241.08 72.49 L 244.00 71.14 L 241.75 63.63 L 238.56 54.80 L 234.96 46.19 L 233.10 42.30 L 231.48 39.32 L 227.05 41.28 L 222.79 43.01 L 219.92 43.95 L 217.21 44.54 L 214.66 44.79 L 212.15 44.61 L 209.77 43.86 L 207.48 42.52 L 205.25 39.96 L 203.48 37.24 L 202.12 34.34 L 201.16 31.29 L 200.62 28.20 L 200.49 25.04 L 200.78 21.89 L 201.47 18.82 L 202.57 15.80 L 196.98 12.75 L 191.17 10.10 L 185.14 7.85 L 178.86 6.00 L 177.51 8.92 L 175.82 11.58 L 173.79 14.00 L 171.47 16.14 L 168.90 17.95 L 166.07 19.43 L 163.06 20.52 L 159.89 21.19 L 156.50 21.43 L 153.92 21.20 L 151.06 20.56 L 147.86 19.44 L 143.22 17.24 L 138.57 14.40 L 134.23 11.11 L 130.55 7.66 L 128.38 5.14 L 126.80 2.80 L 125.72 0.61 L 118.36 2.67 L 115.20 3.79 L 112.15 5.08 L 109.09 6.60 L 105.54 8.61 L 106.92 12.17 L 108.22 16.61 L 109.17 21.29 L 109.73 26.17 L 109.81 29.45 L 109.62 32.52 L 109.14 35.42 L 108.30 38.19 L 107.10 40.54 L 105.54 42.52 L 102.98 44.75 L 100.26 46.52 L 97.36 47.88 L 94.31 48.84 L 91.22 49.38 L 88.06 49.51 L 84.91 49.23 L 81.84 48.55 L 78.82 47.45 L 75.76 53.03 L 73.10 58.83 L 70.85 64.86 L 69.00 71.14 L 71.92 72.49 L 74.58 74.18 L 77.00 76.21 L 79.14 78.53 L 80.95 81.10 L 82.43 83.93 L 83.52 86.94 L 84.19 90.11 L 84.43 93.50 L 84.16 96.01 L 83.44 98.48 L 82.23 100.93 L 80.70 103.21 L 78.87 105.42 L 76.72 107.54 L 73.23 110.41 L 69.53 112.89 L 65.71 114.99 L 62.26 116.50 L 64.51 124.33 L 65.80 127.93 L 67.26 131.42 L 68.94 134.87 L 70.97 138.50 L 73.27 137.68 L 75.96 137.09 L 79.08 136.76 L 83.83 136.75 L 88.85 137.30 L 93.78 138.38 L 98.32 139.93 L 101.17 141.30 L 103.55 142.81 L 105.52 144.48 L 107.05 146.40 L 107.90 148.21 L 108.19 149.98 L 108.05 151.81 L 107.57 153.71 L 106.71 155.70 L 105.08 158.62 L 103.14 161.72 L 101.20 164.87 L 99.53 168.12 L 102.59 169.74 L 106.84 171.66 L 116.41 175.38 L 126.20 178.69 L 134.14 181.00 L 135.49 178.08 L 137.18 175.42 L 139.21 173.00 L 141.53 170.86 L 144.10 169.05 L 146.93 167.57 L 149.94 166.48 L 153.11 165.81 L 156.50 165.57 L 159.02 165.72 L 160.99 166.12 L 162.52 166.72 L 163.92 167.58 L 165.09 168.64 L 166.05 169.91 L 167.24 172.10 L 168.31 174.79 L 170.52 181.00 L 178.06 179.17 L 186.96 176.92 L 191.49 175.62 L 195.65 174.25 L 199.56 172.71 L 202.55 171.20 L 201.45 168.17 L 200.76 165.10 L 200.47 161.95 L 200.60 158.79 L 201.14 155.70 L 202.10 152.65 L 203.46 149.76 L 205.23 147.04 L 207.46 144.48 L 210.02 142.25 L 212.74 140.48 L 215.64 139.12 L 218.69 138.16 L 221.78 137.62 L 224.94 137.49 L 228.09 137.77 L 231.16 138.45 L 234.18 139.55 L 237.24 133.97 L 239.90 128.17 L 242.15 122.14 L 244.00 115.86 L 241.08 114.51 L 238.42 112.83 L 236.00 110.80 L 233.86 108.48 L 232.05 105.91 L 230.57 103.08 L 229.48 100.07 L 228.81 96.89 L 228.57 93.50 Z M 156.50 117.52 L 153.20 117.29 L 150.10 116.66 L 147.15 115.63 L 144.36 114.23 L 141.82 112.52 L 139.52 110.48 L 137.48 108.18 L 135.77 105.64 L 134.37 102.85 L 133.34 99.90 L 132.71 96.80 L 132.48 93.50 L 132.71 90.20 L 133.34 87.10 L 134.37 84.15 L 135.77 81.36 L 137.48 78.83 L 139.52 76.52 L 141.83 74.48 L 144.36 72.77 L 147.15 71.37 L 150.10 70.34 L 153.20 69.71 L 156.50 69.48 L 159.80 69.71 L 162.90 70.34 L 165.85 71.37 L 168.64 72.77 L 171.18 74.48 L 173.48 76.52 L 175.52 78.83 L 177.23 81.36 L 178.63 84.15 L 179.66 87.10 L 180.29 90.20 L 180.52 93.50 L 180.29 96.80 L 179.66 99.90 L 178.63 102.85 L 177.23 105.64 L 175.52 108.18 L 173.48 110.48 L 171.18 112.52 L 168.64 114.23 L 165.85 115.63 L 162.90 116.66 L 159.80 117.29 L 156.50 117.52 Z" fill="#ffbb3c" fill-rule="nonzero" group-id="1,2" id="形状" node-id="24" stroke-linecap="butt" stroke-width="1" target-height="180.39014" target-width="181.73584" target-x="62.26416" target-y="0.6098633"></path><path d="M 218.57 88.50 L 218.81 85.11 L 219.48 81.93 L 220.57 78.92 L 222.05 76.09 L 223.86 73.52 L 226.00 71.20 L 228.42 69.17 L 231.08 67.49 L 234.00 66.14 L 232.15 59.86 L 229.90 53.83 L 227.25 48.03 L 224.20 42.45 L 221.17 43.55 L 218.10 44.24 L 214.95 44.52 L 211.79 44.39 L 208.70 43.85 L 205.65 42.89 L 202.76 41.53 L 200.04 39.75 L 197.48 37.52 L 195.25 34.96 L 193.48 32.24 L 192.12 29.34 L 191.16 26.29 L 190.62 23.20 L 190.49 20.04 L 190.78 16.89 L 191.47 13.82 L 192.57 10.80 L 186.98 7.75 L 181.17 5.10 L 175.14 2.85 L 168.86 1.00 L 167.51 3.92 L 165.82 6.58 L 163.79 9.00 L 161.47 11.14 L 158.90 12.95 L 156.07 14.43 L 153.06 15.52 L 149.89 16.19 L 146.50 16.43 L 143.11 16.19 L 139.93 15.52 L 136.92 14.43 L 134.09 12.95 L 131.52 11.14 L 129.20 9.00 L 127.17 6.58 L 125.49 3.92 L 124.14 1.00 L 117.86 2.85 L 111.83 5.10 L 106.03 7.75 L 100.45 10.80 L 101.55 13.83 L 102.24 16.90 L 102.53 20.05 L 102.40 23.21 L 101.86 26.30 L 100.90 29.35 L 99.54 32.24 L 97.77 34.96 L 95.54 37.52 L 92.98 39.75 L 90.26 41.52 L 87.36 42.88 L 84.31 43.84 L 81.22 44.38 L 78.06 44.51 L 74.91 44.23 L 71.84 43.55 L 68.82 42.45 L 65.76 48.03 L 63.10 53.83 L 60.85 59.86 L 59.00 66.14 L 61.92 67.49 L 64.58 69.18 L 67.00 71.21 L 69.14 73.53 L 70.95 76.10 L 72.43 78.93 L 73.52 81.94 L 74.19 85.11 L 74.43 88.50 L 74.19 91.89 L 73.52 95.07 L 72.43 98.08 L 70.95 100.91 L 69.14 103.48 L 67.00 105.80 L 64.58 107.83 L 61.92 109.51 L 59.00 110.86 L 60.85 117.14 L 63.10 123.17 L 65.75 128.97 L 68.80 134.55 L 71.83 133.45 L 74.90 132.76 L 78.05 132.48 L 81.21 132.61 L 84.30 133.15 L 87.35 134.11 L 90.24 135.47 L 92.96 137.25 L 95.52 139.48 L 97.75 142.04 L 99.52 144.76 L 100.88 147.66 L 101.84 150.71 L 102.38 153.80 L 102.51 156.96 L 102.22 160.11 L 101.53 163.18 L 100.43 166.20 L 106.02 169.25 L 111.83 171.90 L 117.86 174.15 L 124.14 176.00 L 125.49 173.08 L 127.18 170.42 L 129.21 168.00 L 131.53 165.86 L 134.10 164.05 L 136.93 162.57 L 139.94 161.48 L 143.11 160.81 L 146.50 160.57 L 149.89 160.81 L 153.07 161.48 L 156.08 162.57 L 158.91 164.05 L 161.48 165.86 L 163.80 168.00 L 165.83 170.42 L 167.51 173.08 L 168.86 176.00 L 175.14 174.15 L 181.17 171.90 L 186.97 169.25 L 192.55 166.20 L 191.45 163.17 L 190.76 160.10 L 190.47 156.95 L 190.60 153.79 L 191.14 150.70 L 192.10 147.65 L 193.46 144.76 L 195.23 142.04 L 197.46 139.48 L 200.02 137.25 L 202.74 135.48 L 205.64 134.12 L 208.69 133.16 L 211.78 132.62 L 214.94 132.49 L 218.09 132.77 L 221.16 133.45 L 224.18 134.55 L 227.24 128.97 L 229.90 123.17 L 232.15 117.14 L 234.00 110.86 L 231.08 109.51 L 228.42 107.83 L 226.00 105.80 L 223.86 103.48 L 222.05 100.91 L 220.57 98.08 L 219.48 95.07 L 218.81 91.89 L 218.57 88.50 Z M 146.50 112.52 L 143.20 112.29 L 140.10 111.66 L 137.15 110.63 L 134.36 109.23 L 131.82 107.52 L 129.52 105.48 L 127.48 103.18 L 125.77 100.64 L 124.37 97.85 L 123.34 94.90 L 122.71 91.80 L 122.48 88.50 L 122.71 85.20 L 123.34 82.10 L 124.37 79.15 L 125.77 76.36 L 127.48 73.82 L 129.52 71.52 L 131.83 69.48 L 134.36 67.77 L 137.15 66.37 L 140.10 65.34 L 143.20 64.71 L 146.50 64.48 L 149.80 64.71 L 152.90 65.34 L 155.85 66.37 L 158.64 67.77 L 161.18 69.48 L 163.48 71.52 L 165.52 73.83 L 167.23 76.36 L 168.63 79.15 L 169.66 82.10 L 170.29 85.20 L 170.52 88.50 L 170.29 91.80 L 169.66 94.90 L 168.63 97.85 L 167.23 100.64 L 165.52 103.17 L 163.48 105.48 L 161.18 107.52 L 158.64 109.23 L 155.85 110.63 L 152.90 111.66 L 149.80 112.29 L 146.50 112.52 Z" fill="#ffca65" fill-rule="nonzero" group-id="1,2" id="形状" node-id="25" stroke-linecap="butt" stroke-width="1" target-height="175" target-width="175" target-x="59" target-y="1"></path><path d="M 440.86 205.46 L 460.94 208.51 L 479.45 211.83 L 496.48 215.39 L 509.37 218.47 L 521.24 221.63 L 532.14 224.87 L 542.12 228.17 L 552.33 231.95 L 561.39 235.74 L 569.39 239.52 L 576.42 243.28 L 582.19 246.79 L 587.16 250.24 L 591.41 253.63 L 595.00 256.96 L 598.00 260.23 L 600.81 263.99 L 602.90 267.66 L 604.34 271.28 L 605.20 274.88 L 605.50 278.50 L 605.18 282.25 L 604.26 285.97 L 602.72 289.71 L 600.50 293.49 L 597.51 297.36 L 594.33 300.71 L 590.53 304.11 L 586.05 307.57 L 580.82 311.08 L 574.76 314.64 L 567.38 318.46 L 559.03 322.27 L 549.62 326.08 L 539.06 329.86 L 528.71 333.17 L 517.50 336.39 L 505.35 339.52 L 492.21 342.54 L 474.86 346.04 L 456.17 349.27 L 436.05 352.20 L 415.91 354.62 L 394.70 356.68 L 372.37 358.34 L 350.05 359.52 L 326.93 360.25 L 303.00 360.50 L 279.07 360.25 L 255.95 359.52 L 233.63 358.34 L 211.30 356.68 L 190.09 354.62 L 169.95 352.20 L 149.83 349.27 L 131.14 346.04 L 113.79 342.54 L 100.65 339.52 L 88.50 336.39 L 77.29 333.17 L 66.94 329.86 L 56.38 326.08 L 46.97 322.27 L 38.62 318.46 L 31.24 314.64 L 25.18 311.08 L 19.95 307.57 L 15.47 304.11 L 11.67 300.71 L 8.49 297.36 L 5.50 293.49 L 3.28 289.71 L 1.74 285.97 L 0.82 282.25 L 0.50 278.50 L 0.77 275.04 L 1.55 271.60 L 2.87 268.13 L 4.77 264.62 L 7.32 261.02 L 10.84 257.07 L 15.25 253.04 L 20.66 248.89 L 27.22 244.64 L 33.75 240.98 L 41.22 237.28 L 49.73 233.55 L 59.38 229.80 L 60.53 229.37 L 60.87 230.31 L 51.13 234.06 L 42.54 237.77 L 35.01 241.45 L 28.43 245.09 L 21.80 249.32 L 16.34 253.43 L 11.90 257.43 L 8.37 261.32 L 5.79 264.88 L 3.87 268.35 L 2.55 271.75 L 1.77 275.13 L 1.50 278.50 L 1.82 282.17 L 2.73 285.82 L 4.26 289.49 L 6.48 293.21 L 9.46 297.02 L 12.64 300.32 L 16.42 303.66 L 20.89 307.07 L 26.10 310.53 L 32.15 314.05 L 39.50 317.81 L 47.83 321.58 L 57.22 325.35 L 67.75 329.09 L 78.06 332.36 L 89.24 335.55 L 101.35 338.65 L 114.44 341.65 L 131.74 345.12 L 150.37 348.33 L 170.42 351.24 L 190.49 353.65 L 211.63 355.70 L 233.88 357.35 L 256.13 358.52 L 279.16 359.25 L 303.00 359.50 L 326.84 359.25 L 349.87 358.52 L 372.12 357.35 L 394.37 355.70 L 415.51 353.65 L 435.58 351.24 L 455.63 348.33 L 474.26 345.12 L 491.56 341.65 L 504.65 338.65 L 516.76 335.55 L 527.94 332.36 L 538.25 329.09 L 548.78 325.35 L 558.17 321.58 L 566.50 317.81 L 573.85 314.05 L 579.90 310.53 L 585.11 307.07 L 589.58 303.66 L 593.36 300.32 L 596.54 297.02 L 599.52 293.21 L 601.74 289.49 L 603.27 285.82 L 604.18 282.17 L 604.50 278.50 L 604.21 275.01 L 603.38 271.53 L 601.97 268.02 L 599.93 264.45 L 597.19 260.80 L 593.44 256.81 L 588.77 252.73 L 583.05 248.55 L 576.13 244.26 L 569.27 240.58 L 561.46 236.87 L 552.62 233.14 L 542.65 229.42 L 529.45 225.09 L 514.64 220.87 L 498.07 216.78 L 481.43 213.24 L 463.34 209.93 L 443.71 206.87 L 440.72 206.45 L 440.86 205.46 Z" fill="#ffca65" fill-rule="nonzero" group-id="1,2" id="路径" node-id="26" stroke-linecap="butt" stroke-width="1" target-height="155.03667" target-width="605" target-x="0.5" target-y="205.46333"></path><path d="M 439.05 164.69 L 455.60 162.82 L 470.96 161.49 L 485.20 160.64 L 498.38 160.25 L 512.03 160.30 L 524.28 160.83 L 535.25 161.78 L 545.04 163.11 L 553.30 164.68 L 560.53 166.49 L 566.83 168.52 L 572.30 170.73 L 577.02 173.10 L 581.04 175.62 L 584.38 178.26 L 587.12 181.01 L 589.32 183.88 L 591.03 186.89 L 592.28 190.06 L 593.07 193.74 L 593.28 197.56 L 592.90 201.59 L 591.88 205.86 L 590.16 210.43 L 588.09 214.57 L 585.45 218.93 L 582.18 223.54 L 578.20 228.43 L 573.45 233.60 L 567.51 239.41 L 560.64 245.50 L 552.75 251.89 L 543.76 258.60 L 534.83 264.79 L 525.05 271.15 L 514.34 277.69 L 502.67 284.42 L 487.10 292.84 L 470.16 301.39 L 451.78 310.08 L 433.23 318.28 L 413.55 326.45 L 392.68 334.57 L 371.68 342.23 L 349.79 349.68 L 326.97 356.92 L 304.01 363.67 L 281.69 369.74 L 260.00 375.14 L 238.16 380.07 L 217.28 384.31 L 197.31 387.88 L 177.22 390.96 L 158.39 393.34 L 140.78 395.06 L 127.33 396.01 L 114.80 396.57 L 103.13 396.77 L 92.27 396.63 L 81.07 396.10 L 70.95 395.22 L 61.85 394.01 L 53.68 392.51 L 46.84 390.88 L 40.82 389.05 L 35.52 387.06 L 30.90 384.92 L 26.87 382.64 L 22.88 379.82 L 19.65 376.85 L 17.08 373.73 L 15.12 370.43 L 13.72 366.94 L 12.94 363.37 L 12.71 359.64 L 13.05 355.72 L 13.99 351.54 L 15.62 347.07 L 17.57 343.02 L 20.09 338.74 L 23.24 334.19 L 27.09 329.37 L 31.70 324.24 L 37.48 318.50 L 44.21 312.44 L 52.00 306.05 L 60.95 299.31 L 69.82 293.11 L 79.63 286.68 L 90.45 280.03 L 102.34 273.14 L 104.25 272.07 L 104.74 272.94 L 92.69 279.86 L 81.72 286.54 L 71.78 292.99 L 62.80 299.22 L 53.72 305.99 L 45.81 312.39 L 38.98 318.46 L 33.12 324.21 L 28.42 329.35 L 24.51 334.17 L 21.30 338.71 L 18.73 342.97 L 16.74 347.00 L 15.06 351.45 L 14.08 355.60 L 13.71 359.48 L 13.92 363.14 L 14.67 366.65 L 16.05 370.07 L 17.99 373.29 L 20.53 376.35 L 23.74 379.26 L 27.70 382.03 L 31.70 384.26 L 36.30 386.35 L 41.57 388.30 L 47.57 390.09 L 54.38 391.68 L 62.51 393.13 L 71.58 394.31 L 81.65 395.16 L 92.82 395.66 L 103.63 395.78 L 115.26 395.56 L 127.75 394.98 L 141.14 394.02 L 158.70 392.28 L 177.46 389.90 L 197.48 386.82 L 217.38 383.26 L 238.19 379.04 L 259.95 374.11 L 281.57 368.73 L 303.81 362.69 L 326.68 355.96 L 349.41 348.75 L 371.22 341.32 L 392.15 333.70 L 412.95 325.61 L 432.56 317.47 L 451.05 309.30 L 469.37 300.65 L 486.26 292.14 L 501.78 283.76 L 513.42 277.07 L 524.10 270.56 L 533.86 264.24 L 542.76 258.10 L 551.74 251.44 L 559.61 245.10 L 566.47 239.06 L 572.41 233.30 L 577.16 228.17 L 581.14 223.34 L 584.41 218.78 L 587.05 214.47 L 589.12 210.39 L 590.86 205.87 L 591.89 201.66 L 592.29 197.71 L 592.09 193.95 L 591.32 190.35 L 590.12 187.30 L 588.47 184.40 L 586.33 181.62 L 583.67 178.95 L 580.41 176.39 L 576.49 173.94 L 571.89 171.63 L 566.56 169.48 L 560.42 167.49 L 553.36 165.71 L 545.30 164.17 L 535.75 162.85 L 525.04 161.89 L 513.07 161.34 L 499.73 161.24 L 486.86 161.58 L 472.95 162.35 L 457.93 163.60 L 441.75 165.36 L 439.17 165.68 L 439.05 164.69 Z" fill="#ffca65" fill-rule="nonzero" group-id="1,2" id="路径" node-id="27" stroke-linecap="butt" stroke-width="0.99999994" target-height="236.52061" target-width="580.5733" target-x="12.708969" target-y="160.25014"></path></g></g></svg>