<svg height="468" legacy-metrics="false" node-id="1" sillyvg="true" template-height="468" template-width="647" version="1.1" viewBox="0 0 647 468" width="647" xmlns="http://www.w3.org/2000/svg" xmlns:xlink="http://www.w3.org/1999/xlink"><defs node-id="50"><clipPath id="mask-2" node-id="13"><path d="M 224.93 18.10 C 137.95 -16.27 77.65 -1.70 44.03 61.81 C -6.40 157.08 -26.07 276.65 53.92 355.62 C 133.90 434.58 228.69 387.13 249.05 377.71 C 269.40 368.30 364.49 334.16 456.47 377.71 C 548.45 421.27 607.74 419.60 633.98 368.30 C 660.22 317.00 622.89 299.27 599.70 245.72 C 576.52 192.17 594.82 145.45 585.67 120.77 C 576.52 96.10 548.20 32.09 486.55 10.61 C 424.90 -10.87 383.39 22.41 352.44 33.32 C 331.80 40.59 289.30 35.52 224.93 18.10 Z" fill="#000000" fill-rule="evenodd" node-id="53" stroke="none" target-height="408.69205" target-width="642.89264" target-x="0.0668173" target-y="0.007030487"></path></clipPath><clipPath id="mask-4" node-id="19"><path d="M 224.93 18.10 C 137.95 -16.27 77.65 -1.70 44.03 61.81 C -6.40 157.08 -26.07 276.65 53.92 355.62 C 133.90 434.58 228.69 387.13 249.05 377.71 C 269.40 368.30 364.49 334.16 456.47 377.71 C 548.45 421.27 607.74 419.60 633.98 368.30 C 660.22 317.00 622.89 299.27 599.70 245.72 C 576.52 192.17 594.82 145.45 585.67 120.77 C 576.52 96.10 548.20 32.09 486.55 10.61 C 424.90 -10.87 383.39 22.41 352.44 33.32 C 331.80 40.59 289.30 35.52 224.93 18.10 Z" fill="#000000" fill-rule="evenodd" node-id="57" stroke="none" target-height="408.69205" target-width="642.89264" target-x="0.0668173" target-y="0.007030487"></path></clipPath><clipPath id="mask-2_3" node-id="13"><path d="M 228.63 76.48 L 215.10 71.46 L 202.33 67.34 L 190.27 64.07 L 178.88 61.59 L 168.11 59.84 L 157.93 58.79 L 148.30 58.39 L 139.16 58.60 L 130.50 59.38 L 122.27 60.73 L 114.43 62.61 L 106.96 65.02 L 99.83 67.95 L 93.00 71.40 L 86.47 75.39 L 80.20 79.92 L 74.20 85.02 L 68.43 90.71 L 62.90 97.04 L 57.61 104.03 L 52.55 111.73 L 47.73 120.20 L 40.75 133.95 L 34.24 147.99 L 28.21 162.32 L 22.72 176.87 L 17.87 191.52 L 13.65 206.29 L 10.91 217.50 L 8.60 228.68 L 6.72 239.83 L 5.27 250.96 L 4.27 262.18 L 3.77 273.28 L 3.77 284.29 L 4.27 295.21 L 5.31 306.11 L 6.92 316.84 L 9.10 327.43 L 11.86 337.88 L 14.49 346.11 L 17.54 354.21 L 21.01 362.20 L 24.91 370.08 L 29.24 377.86 L 33.92 385.33 L 39.08 392.68 L 44.73 399.90 L 50.91 407.01 L 57.62 414.00 L 65.40 421.23 L 73.07 427.60 L 80.64 433.18 L 88.13 438.01 L 96.04 442.46 L 103.80 446.27 L 111.45 449.47 L 118.99 452.09 L 126.77 454.30 L 134.38 456.04 L 141.83 457.33 L 149.14 458.18 L 158.99 458.75 L 168.45 458.75 L 177.55 458.19 L 186.61 457.15 L 195.14 455.76 L 203.15 454.06 L 211.12 452.03 L 218.36 449.91 L 224.92 447.72 L 234.34 444.20 L 241.80 441.09 L 252.75 436.10 L 257.73 433.94 L 265.82 430.84 L 274.95 427.77 L 286.68 424.36 L 294.85 422.29 L 303.93 420.31 L 313.97 418.43 L 324.05 416.90 L 334.82 415.70 L 346.33 414.84 L 357.84 414.47 L 369.85 414.65 L 382.39 415.40 L 391.71 416.37 L 401.21 417.76 L 410.90 419.60 L 420.79 421.89 L 430.48 424.59 L 440.26 427.85 L 450.16 431.67 L 460.18 436.10 L 474.14 442.48 L 487.23 447.99 L 499.50 452.68 L 511.00 456.62 L 521.75 459.86 L 531.82 462.44 L 541.24 464.41 L 550.53 465.88 L 559.19 466.76 L 567.27 467.08 L 574.82 466.89 L 581.87 466.23 L 588.47 465.11 L 594.64 463.56 L 600.44 461.60 L 606.24 459.04 L 611.68 456.01 L 616.77 452.48 L 621.55 448.45 L 626.02 443.90 L 630.20 438.78 L 634.09 433.05 L 637.68 426.68 L 640.36 421.03 L 642.49 415.82 L 644.10 411.00 L 645.26 406.55 L 646.11 401.89 L 646.57 397.48 L 646.66 393.29 L 646.41 389.31 L 645.60 384.00 L 644.30 378.83 L 642.50 373.76 L 640.34 368.82 L 637.80 363.79 L 634.89 358.67 L 630.19 351.04 L 624.93 342.85 L 619.57 334.40 L 613.98 325.06 L 610.41 318.64 L 606.89 311.66 L 603.40 304.10 L 599.86 295.07 L 597.06 286.37 L 594.95 277.97 L 593.33 269.44 L 592.19 261.26 L 591.50 253.39 L 591.04 241.68 L 591.13 230.80 L 591.93 210.62 L 592.17 201.36 L 591.98 193.26 L 591.49 188.01 L 590.61 183.33 L 589.37 179.16 L 586.83 172.57 L 583.13 163.92 L 578.83 154.81 L 573.31 144.40 L 569.26 137.46 L 564.66 130.29 L 559.50 122.87 L 554.01 115.71 L 547.96 108.62 L 541.31 101.61 L 536.09 96.63 L 530.53 91.85 L 524.63 87.27 L 518.36 82.89 L 511.91 78.90 L 505.09 75.26 L 497.88 71.95 L 490.25 68.99 L 482.41 66.53 L 474.95 64.65 L 467.84 63.30 L 461.06 62.46 L 454.11 62.01 L 447.46 61.95 L 441.08 62.25 L 434.96 62.91 L 426.80 64.27 L 419.05 66.04 L 411.68 68.20 L 400.92 72.03 L 390.97 76.19 L 372.54 84.74 L 363.93 88.62 L 356.14 91.70 L 351.61 93.01 L 346.17 94.03 L 339.66 94.69 L 331.93 94.91 L 322.82 94.62 L 312.16 93.73 L 299.76 92.14 L 285.41 89.73 L 268.93 86.40 L 250.07 82.03 L 228.63 76.48 Z" fill="#000000" fill-rule="evenodd" node-id="53" stroke-linecap="butt" stroke-width="1" target-height="408.69205" target-width="642.89264" target-x="3.76923" target-y="58.38785"></path></clipPath><clipPath id="mask-2_4" node-id="13"><path d="M 228.63 650.52 L 215.10 655.54 L 202.33 659.66 L 190.27 662.93 L 178.88 665.41 L 168.11 667.16 L 157.93 668.21 L 148.30 668.61 L 139.16 668.40 L 130.50 667.62 L 122.27 666.27 L 114.43 664.39 L 106.96 661.98 L 99.83 659.05 L 93.00 655.60 L 86.47 651.61 L 80.20 647.08 L 74.20 641.98 L 68.43 636.29 L 62.90 629.96 L 57.61 622.97 L 52.55 615.27 L 47.73 606.80 L 40.75 593.05 L 34.24 579.01 L 28.21 564.68 L 22.72 550.13 L 17.87 535.48 L 13.65 520.71 L 10.91 509.50 L 8.60 498.32 L 6.72 487.17 L 5.27 476.04 L 4.27 464.82 L 3.77 453.72 L 3.77 442.71 L 4.27 431.79 L 5.31 420.89 L 6.92 410.16 L 9.10 399.57 L 11.86 389.12 L 14.49 380.89 L 17.54 372.79 L 21.01 364.80 L 24.91 356.92 L 29.24 349.14 L 33.92 341.67 L 39.08 334.32 L 44.73 327.10 L 50.91 319.99 L 57.62 313.00 L 65.40 305.77 L 73.07 299.40 L 80.64 293.82 L 88.13 288.99 L 96.04 284.54 L 103.80 280.73 L 111.45 277.53 L 118.99 274.91 L 126.77 272.70 L 134.38 270.96 L 141.83 269.67 L 149.14 268.82 L 158.99 268.25 L 168.45 268.25 L 177.55 268.81 L 186.61 269.85 L 195.14 271.24 L 203.15 272.94 L 211.12 274.97 L 218.36 277.09 L 224.92 279.28 L 234.34 282.80 L 241.80 285.91 L 252.75 290.90 L 257.73 293.06 L 265.82 296.16 L 274.95 299.23 L 286.68 302.64 L 294.85 304.71 L 303.93 306.69 L 313.97 308.57 L 324.05 310.10 L 334.82 311.30 L 346.33 312.16 L 357.84 312.53 L 369.85 312.35 L 382.39 311.60 L 391.71 310.63 L 401.21 309.24 L 410.90 307.40 L 420.79 305.11 L 430.48 302.41 L 440.26 299.15 L 450.16 295.33 L 460.18 290.90 L 474.14 284.52 L 487.23 279.01 L 499.50 274.32 L 511.00 270.38 L 521.75 267.14 L 531.82 264.56 L 541.24 262.59 L 550.53 261.12 L 559.19 260.24 L 567.27 259.92 L 574.82 260.11 L 581.87 260.77 L 588.47 261.89 L 594.64 263.44 L 600.44 265.40 L 606.24 267.96 L 611.68 270.99 L 616.77 274.52 L 621.55 278.55 L 626.02 283.10 L 630.20 288.22 L 634.09 293.95 L 637.68 300.32 L 640.36 305.97 L 642.49 311.18 L 644.10 316.00 L 645.26 320.45 L 646.11 325.11 L 646.57 329.52 L 646.66 333.71 L 646.41 337.69 L 645.60 343.00 L 644.30 348.17 L 642.50 353.24 L 640.34 358.18 L 637.80 363.21 L 634.89 368.33 L 630.19 375.96 L 624.93 384.15 L 619.57 392.60 L 613.98 401.94 L 610.41 408.36 L 606.89 415.34 L 603.40 422.90 L 599.86 431.93 L 597.06 440.63 L 594.95 449.03 L 593.33 457.56 L 592.19 465.74 L 591.50 473.61 L 591.04 485.32 L 591.13 496.20 L 591.93 516.38 L 592.17 525.64 L 591.98 533.74 L 591.49 538.99 L 590.61 543.67 L 589.37 547.84 L 586.83 554.43 L 583.13 563.08 L 578.83 572.19 L 573.31 582.60 L 569.26 589.54 L 564.66 596.71 L 559.50 604.13 L 554.01 611.29 L 547.96 618.38 L 541.31 625.39 L 536.09 630.37 L 530.53 635.15 L 524.63 639.73 L 518.36 644.11 L 511.91 648.10 L 505.09 651.74 L 497.88 655.05 L 490.25 658.01 L 482.41 660.47 L 474.95 662.35 L 467.84 663.70 L 461.06 664.54 L 454.11 664.99 L 447.46 665.05 L 441.08 664.75 L 434.96 664.09 L 426.80 662.73 L 419.05 660.96 L 411.68 658.80 L 400.92 654.97 L 390.97 650.81 L 372.54 642.26 L 363.93 638.38 L 356.14 635.30 L 351.61 633.99 L 346.17 632.97 L 339.66 632.31 L 331.93 632.09 L 322.82 632.38 L 312.16 633.27 L 299.76 634.86 L 285.41 637.27 L 268.93 640.60 L 250.07 644.97 L 228.63 650.52 Z" fill="#000000" fill-rule="evenodd" node-id="53" stroke-linecap="butt" stroke-width="1" target-height="408.69205" target-width="642.89264" target-x="3.76923" target-y="259.92007"></path></clipPath><clipPath id="mask-4_3" node-id="19"><path d="M 228.63 76.48 L 215.10 71.46 L 202.33 67.34 L 190.27 64.07 L 178.88 61.59 L 168.11 59.84 L 157.93 58.79 L 148.30 58.39 L 139.16 58.60 L 130.50 59.38 L 122.27 60.73 L 114.43 62.61 L 106.96 65.02 L 99.83 67.95 L 93.00 71.40 L 86.47 75.39 L 80.20 79.92 L 74.20 85.02 L 68.43 90.71 L 62.90 97.04 L 57.61 104.03 L 52.55 111.73 L 47.73 120.20 L 40.75 133.95 L 34.24 147.99 L 28.21 162.32 L 22.72 176.87 L 17.87 191.52 L 13.65 206.29 L 10.91 217.50 L 8.60 228.68 L 6.72 239.83 L 5.27 250.96 L 4.27 262.18 L 3.77 273.28 L 3.77 284.29 L 4.27 295.21 L 5.31 306.11 L 6.92 316.84 L 9.10 327.43 L 11.86 337.88 L 14.49 346.11 L 17.54 354.21 L 21.01 362.20 L 24.91 370.08 L 29.24 377.86 L 33.92 385.33 L 39.08 392.68 L 44.73 399.90 L 50.91 407.01 L 57.62 414.00 L 65.40 421.23 L 73.07 427.60 L 80.64 433.18 L 88.13 438.01 L 96.04 442.46 L 103.80 446.27 L 111.45 449.47 L 118.99 452.09 L 126.77 454.30 L 134.38 456.04 L 141.83 457.33 L 149.14 458.18 L 158.99 458.75 L 168.45 458.75 L 177.55 458.19 L 186.61 457.15 L 195.14 455.76 L 203.15 454.06 L 211.12 452.03 L 218.36 449.91 L 224.92 447.72 L 234.34 444.20 L 241.80 441.09 L 252.75 436.10 L 257.73 433.94 L 265.82 430.84 L 274.95 427.77 L 286.68 424.36 L 294.85 422.29 L 303.93 420.31 L 313.97 418.43 L 324.05 416.90 L 334.82 415.70 L 346.33 414.84 L 357.84 414.47 L 369.85 414.65 L 382.39 415.40 L 391.71 416.37 L 401.21 417.76 L 410.90 419.60 L 420.79 421.89 L 430.48 424.59 L 440.26 427.85 L 450.16 431.67 L 460.18 436.10 L 474.14 442.48 L 487.23 447.99 L 499.50 452.68 L 511.00 456.62 L 521.75 459.86 L 531.82 462.44 L 541.24 464.41 L 550.53 465.88 L 559.19 466.76 L 567.27 467.08 L 574.82 466.89 L 581.87 466.23 L 588.47 465.11 L 594.64 463.56 L 600.44 461.60 L 606.24 459.04 L 611.68 456.01 L 616.77 452.48 L 621.55 448.45 L 626.02 443.90 L 630.20 438.78 L 634.09 433.05 L 637.68 426.68 L 640.36 421.03 L 642.49 415.82 L 644.10 411.00 L 645.26 406.55 L 646.11 401.89 L 646.57 397.48 L 646.66 393.29 L 646.41 389.31 L 645.60 384.00 L 644.30 378.83 L 642.50 373.76 L 640.34 368.82 L 637.80 363.79 L 634.89 358.67 L 630.19 351.04 L 624.93 342.85 L 619.57 334.40 L 613.98 325.06 L 610.41 318.64 L 606.89 311.66 L 603.40 304.10 L 599.86 295.07 L 597.06 286.37 L 594.95 277.97 L 593.33 269.44 L 592.19 261.26 L 591.50 253.39 L 591.04 241.68 L 591.13 230.80 L 591.93 210.62 L 592.17 201.36 L 591.98 193.26 L 591.49 188.01 L 590.61 183.33 L 589.37 179.16 L 586.83 172.57 L 583.13 163.92 L 578.83 154.81 L 573.31 144.40 L 569.26 137.46 L 564.66 130.29 L 559.50 122.87 L 554.01 115.71 L 547.96 108.62 L 541.31 101.61 L 536.09 96.63 L 530.53 91.85 L 524.63 87.27 L 518.36 82.89 L 511.91 78.90 L 505.09 75.26 L 497.88 71.95 L 490.25 68.99 L 482.41 66.53 L 474.95 64.65 L 467.84 63.30 L 461.06 62.46 L 454.11 62.01 L 447.46 61.95 L 441.08 62.25 L 434.96 62.91 L 426.80 64.27 L 419.05 66.04 L 411.68 68.20 L 400.92 72.03 L 390.97 76.19 L 372.54 84.74 L 363.93 88.62 L 356.14 91.70 L 351.61 93.01 L 346.17 94.03 L 339.66 94.69 L 331.93 94.91 L 322.82 94.62 L 312.16 93.73 L 299.76 92.14 L 285.41 89.73 L 268.93 86.40 L 250.07 82.03 L 228.63 76.48 Z" fill="#000000" fill-rule="evenodd" node-id="57" stroke-linecap="butt" stroke-width="1" target-height="408.69205" target-width="642.89264" target-x="3.76923" target-y="58.38785"></path></clipPath><clipPath id="mask-4_4" node-id="19"><path d="M 228.63 650.52 L 215.10 655.54 L 202.33 659.66 L 190.27 662.93 L 178.88 665.41 L 168.11 667.16 L 157.93 668.21 L 148.30 668.61 L 139.16 668.40 L 130.50 667.62 L 122.27 666.27 L 114.43 664.39 L 106.96 661.98 L 99.83 659.05 L 93.00 655.60 L 86.47 651.61 L 80.20 647.08 L 74.20 641.98 L 68.43 636.29 L 62.90 629.96 L 57.61 622.97 L 52.55 615.27 L 47.73 606.80 L 40.75 593.05 L 34.24 579.01 L 28.21 564.68 L 22.72 550.13 L 17.87 535.48 L 13.65 520.71 L 10.91 509.50 L 8.60 498.32 L 6.72 487.17 L 5.27 476.04 L 4.27 464.82 L 3.77 453.72 L 3.77 442.71 L 4.27 431.79 L 5.31 420.89 L 6.92 410.16 L 9.10 399.57 L 11.86 389.12 L 14.49 380.89 L 17.54 372.79 L 21.01 364.80 L 24.91 356.92 L 29.24 349.14 L 33.92 341.67 L 39.08 334.32 L 44.73 327.10 L 50.91 319.99 L 57.62 313.00 L 65.40 305.77 L 73.07 299.40 L 80.64 293.82 L 88.13 288.99 L 96.04 284.54 L 103.80 280.73 L 111.45 277.53 L 118.99 274.91 L 126.77 272.70 L 134.38 270.96 L 141.83 269.67 L 149.14 268.82 L 158.99 268.25 L 168.45 268.25 L 177.55 268.81 L 186.61 269.85 L 195.14 271.24 L 203.15 272.94 L 211.12 274.97 L 218.36 277.09 L 224.92 279.28 L 234.34 282.80 L 241.80 285.91 L 252.75 290.90 L 257.73 293.06 L 265.82 296.16 L 274.95 299.23 L 286.68 302.64 L 294.85 304.71 L 303.93 306.69 L 313.97 308.57 L 324.05 310.10 L 334.82 311.30 L 346.33 312.16 L 357.84 312.53 L 369.85 312.35 L 382.39 311.60 L 391.71 310.63 L 401.21 309.24 L 410.90 307.40 L 420.79 305.11 L 430.48 302.41 L 440.26 299.15 L 450.16 295.33 L 460.18 290.90 L 474.14 284.52 L 487.23 279.01 L 499.50 274.32 L 511.00 270.38 L 521.75 267.14 L 531.82 264.56 L 541.24 262.59 L 550.53 261.12 L 559.19 260.24 L 567.27 259.92 L 574.82 260.11 L 581.87 260.77 L 588.47 261.89 L 594.64 263.44 L 600.44 265.40 L 606.24 267.96 L 611.68 270.99 L 616.77 274.52 L 621.55 278.55 L 626.02 283.10 L 630.20 288.22 L 634.09 293.95 L 637.68 300.32 L 640.36 305.97 L 642.49 311.18 L 644.10 316.00 L 645.26 320.45 L 646.11 325.11 L 646.57 329.52 L 646.66 333.71 L 646.41 337.69 L 645.60 343.00 L 644.30 348.17 L 642.50 353.24 L 640.34 358.18 L 637.80 363.21 L 634.89 368.33 L 630.19 375.96 L 624.93 384.15 L 619.57 392.60 L 613.98 401.94 L 610.41 408.36 L 606.89 415.34 L 603.40 422.90 L 599.86 431.93 L 597.06 440.63 L 594.95 449.03 L 593.33 457.56 L 592.19 465.74 L 591.50 473.61 L 591.04 485.32 L 591.13 496.20 L 591.93 516.38 L 592.17 525.64 L 591.98 533.74 L 591.49 538.99 L 590.61 543.67 L 589.37 547.84 L 586.83 554.43 L 583.13 563.08 L 578.83 572.19 L 573.31 582.60 L 569.26 589.54 L 564.66 596.71 L 559.50 604.13 L 554.01 611.29 L 547.96 618.38 L 541.31 625.39 L 536.09 630.37 L 530.53 635.15 L 524.63 639.73 L 518.36 644.11 L 511.91 648.10 L 505.09 651.74 L 497.88 655.05 L 490.25 658.01 L 482.41 660.47 L 474.95 662.35 L 467.84 663.70 L 461.06 664.54 L 454.11 664.99 L 447.46 665.05 L 441.08 664.75 L 434.96 664.09 L 426.80 662.73 L 419.05 660.96 L 411.68 658.80 L 400.92 654.97 L 390.97 650.81 L 372.54 642.26 L 363.93 638.38 L 356.14 635.30 L 351.61 633.99 L 346.17 632.97 L 339.66 632.31 L 331.93 632.09 L 322.82 632.38 L 312.16 633.27 L 299.76 634.86 L 285.41 637.27 L 268.93 640.60 L 250.07 644.97 L 228.63 650.52 Z" fill="#000000" fill-rule="evenodd" node-id="57" stroke-linecap="butt" stroke-width="1" target-height="408.69205" target-width="642.89264" target-x="3.76923" target-y="259.92007"></path></clipPath></defs><g node-id="89"><g node-id="90"><g node-id="91"><g node-id="95"><path d="M 228.63 76.48 L 215.10 71.46 L 202.33 67.34 L 190.27 64.07 L 178.88 61.59 L 168.11 59.84 L 157.93 58.79 L 148.30 58.39 L 139.16 58.60 L 130.50 59.38 L 122.27 60.73 L 114.43 62.61 L 106.96 65.02 L 99.83 67.95 L 93.00 71.40 L 86.47 75.39 L 80.20 79.92 L 74.20 85.02 L 68.43 90.71 L 62.90 97.04 L 57.61 104.03 L 52.55 111.73 L 47.73 120.20 L 40.75 133.95 L 34.24 147.99 L 28.21 162.32 L 22.72 176.87 L 17.87 191.52 L 13.65 206.29 L 10.91 217.50 L 8.60 228.68 L 6.72 239.83 L 5.27 250.96 L 4.27 262.18 L 3.77 273.28 L 3.77 284.29 L 4.27 295.21 L 5.31 306.11 L 6.92 316.84 L 9.10 327.43 L 11.86 337.88 L 14.49 346.11 L 17.54 354.21 L 21.01 362.20 L 24.91 370.08 L 29.24 377.86 L 33.92 385.33 L 39.08 392.68 L 44.73 399.90 L 50.91 407.01 L 57.62 414.00 L 65.40 421.23 L 73.07 427.60 L 80.64 433.18 L 88.13 438.01 L 96.04 442.46 L 103.80 446.27 L 111.45 449.47 L 118.99 452.09 L 126.77 454.30 L 134.38 456.04 L 141.83 457.33 L 149.14 458.18 L 158.99 458.75 L 168.45 458.75 L 177.55 458.19 L 186.61 457.15 L 195.14 455.76 L 203.15 454.06 L 211.12 452.03 L 218.36 449.91 L 224.92 447.72 L 234.34 444.20 L 241.80 441.09 L 252.75 436.10 L 257.73 433.94 L 265.82 430.84 L 274.95 427.77 L 286.68 424.36 L 294.85 422.29 L 303.93 420.31 L 313.97 418.43 L 324.05 416.90 L 334.82 415.70 L 346.33 414.84 L 357.84 414.47 L 369.85 414.65 L 382.39 415.40 L 391.71 416.37 L 401.21 417.76 L 410.90 419.60 L 420.79 421.89 L 430.48 424.59 L 440.26 427.85 L 450.16 431.67 L 460.18 436.10 L 474.14 442.48 L 487.23 447.99 L 499.50 452.68 L 511.00 456.62 L 521.75 459.86 L 531.82 462.44 L 541.24 464.41 L 550.53 465.88 L 559.19 466.76 L 567.27 467.08 L 574.82 466.89 L 581.87 466.23 L 588.47 465.11 L 594.64 463.56 L 600.44 461.60 L 606.24 459.04 L 611.68 456.01 L 616.77 452.48 L 621.55 448.45 L 626.02 443.90 L 630.20 438.78 L 634.09 433.05 L 637.68 426.68 L 640.36 421.03 L 642.49 415.82 L 644.10 411.00 L 645.26 406.55 L 646.11 401.89 L 646.57 397.48 L 646.66 393.29 L 646.41 389.31 L 645.60 384.00 L 644.30 378.83 L 642.50 373.76 L 640.34 368.82 L 637.80 363.79 L 634.89 358.67 L 630.19 351.04 L 624.93 342.85 L 619.57 334.40 L 613.98 325.06 L 610.41 318.64 L 606.89 311.66 L 603.40 304.10 L 599.86 295.07 L 597.06 286.37 L 594.95 277.97 L 593.33 269.44 L 592.19 261.26 L 591.50 253.39 L 591.04 241.68 L 591.13 230.80 L 591.93 210.62 L 592.17 201.36 L 591.98 193.26 L 591.49 188.01 L 590.61 183.33 L 589.37 179.16 L 586.83 172.57 L 583.13 163.92 L 578.83 154.81 L 573.31 144.40 L 569.26 137.46 L 564.66 130.29 L 559.50 122.87 L 554.01 115.71 L 547.96 108.62 L 541.31 101.61 L 536.09 96.63 L 530.53 91.85 L 524.63 87.27 L 518.36 82.89 L 511.91 78.90 L 505.09 75.26 L 497.88 71.95 L 490.25 68.99 L 482.41 66.53 L 474.95 64.65 L 467.84 63.30 L 461.06 62.46 L 454.11 62.01 L 447.46 61.95 L 441.08 62.25 L 434.96 62.91 L 426.80 64.27 L 419.05 66.04 L 411.68 68.20 L 400.92 72.03 L 390.97 76.19 L 372.54 84.74 L 363.93 88.62 L 356.14 91.70 L 351.61 93.01 L 346.17 94.03 L 339.66 94.69 L 331.93 94.91 L 322.82 94.62 L 312.16 93.73 L 299.76 92.14 L 285.41 89.73 L 268.93 86.40 L 250.07 82.03 L 228.63 76.48 Z" fill="#f3f7ff" fill-rule="evenodd" group-id="1,2,3,7" node-id="66" stroke-linecap="butt" stroke-width="1" target-height="408.69205" target-width="642.89264" target-x="3.76923" target-y="58.38785"></path></g><g node-id="96"><g clip-path="url(#mask-2_3)" group-id="1,2,3,8" node-id="69"><path d="M 9.33 370.00 L 706.33 370.00 L 706.33 488.00 L 9.33 488.00 Z" fill="#d0defe" fill-rule="evenodd" group-id="1,2,3,8" id="矩形" node-id="16" stroke-linecap="butt" stroke-width="1" target-height="118" target-width="697" target-x="9.332275" target-y="370"></path></g></g><g clip-path="url(#mask-2_4)" group-id="1,2,3,9" node-id="73"><path d="M 9.33 370.00 L 706.33 370.00 L 706.33 357.00 L 9.33 357.00 Z" fill="#a4c3fc" fill-rule="evenodd" group-id="1,2,3,9" id="矩形" node-id="17" stroke-linecap="butt" stroke-width="1" target-height="13" target-width="697" target-x="9.332275" target-y="356.99997"></path></g></g><g node-id="92"><g node-id="98"><path d="M 228.63 76.48 L 215.10 71.46 L 202.33 67.34 L 190.27 64.07 L 178.88 61.59 L 168.11 59.84 L 157.93 58.79 L 148.30 58.39 L 139.16 58.60 L 130.50 59.38 L 122.27 60.73 L 114.43 62.61 L 106.96 65.02 L 99.83 67.95 L 93.00 71.40 L 86.47 75.39 L 80.20 79.92 L 74.20 85.02 L 68.43 90.71 L 62.90 97.04 L 57.61 104.03 L 52.55 111.73 L 47.73 120.20 L 40.75 133.95 L 34.24 147.99 L 28.21 162.32 L 22.72 176.87 L 17.87 191.52 L 13.65 206.29 L 10.91 217.50 L 8.60 228.68 L 6.72 239.83 L 5.27 250.96 L 4.27 262.18 L 3.77 273.28 L 3.77 284.29 L 4.27 295.21 L 5.31 306.11 L 6.92 316.84 L 9.10 327.43 L 11.86 337.88 L 14.49 346.11 L 17.54 354.21 L 21.01 362.20 L 24.91 370.08 L 29.24 377.86 L 33.92 385.33 L 39.08 392.68 L 44.73 399.90 L 50.91 407.01 L 57.62 414.00 L 65.40 421.23 L 73.07 427.60 L 80.64 433.18 L 88.13 438.01 L 96.04 442.46 L 103.80 446.27 L 111.45 449.47 L 118.99 452.09 L 126.77 454.30 L 134.38 456.04 L 141.83 457.33 L 149.14 458.18 L 158.99 458.75 L 168.45 458.75 L 177.55 458.19 L 186.61 457.15 L 195.14 455.76 L 203.15 454.06 L 211.12 452.03 L 218.36 449.91 L 224.92 447.72 L 234.34 444.20 L 241.80 441.09 L 252.75 436.10 L 257.73 433.94 L 265.82 430.84 L 274.95 427.77 L 286.68 424.36 L 294.85 422.29 L 303.93 420.31 L 313.97 418.43 L 324.05 416.90 L 334.82 415.70 L 346.33 414.84 L 357.84 414.47 L 369.85 414.65 L 382.39 415.40 L 391.71 416.37 L 401.21 417.76 L 410.90 419.60 L 420.79 421.89 L 430.48 424.59 L 440.26 427.85 L 450.16 431.67 L 460.18 436.10 L 474.14 442.48 L 487.23 447.99 L 499.50 452.68 L 511.00 456.62 L 521.75 459.86 L 531.82 462.44 L 541.24 464.41 L 550.53 465.88 L 559.19 466.76 L 567.27 467.08 L 574.82 466.89 L 581.87 466.23 L 588.47 465.11 L 594.64 463.56 L 600.44 461.60 L 606.24 459.04 L 611.68 456.01 L 616.77 452.48 L 621.55 448.45 L 626.02 443.90 L 630.20 438.78 L 634.09 433.05 L 637.68 426.68 L 640.36 421.03 L 642.49 415.82 L 644.10 411.00 L 645.26 406.55 L 646.11 401.89 L 646.57 397.48 L 646.66 393.29 L 646.41 389.31 L 645.60 384.00 L 644.30 378.83 L 642.50 373.76 L 640.34 368.82 L 637.80 363.79 L 634.89 358.67 L 630.19 351.04 L 624.93 342.85 L 619.57 334.40 L 613.98 325.06 L 610.41 318.64 L 606.89 311.66 L 603.40 304.10 L 599.86 295.07 L 597.06 286.37 L 594.95 277.97 L 593.33 269.44 L 592.19 261.26 L 591.50 253.39 L 591.04 241.68 L 591.13 230.80 L 591.93 210.62 L 592.17 201.36 L 591.98 193.26 L 591.49 188.01 L 590.61 183.33 L 589.37 179.16 L 586.83 172.57 L 583.13 163.92 L 578.83 154.81 L 573.31 144.40 L 569.26 137.46 L 564.66 130.29 L 559.50 122.87 L 554.01 115.71 L 547.96 108.62 L 541.31 101.61 L 536.09 96.63 L 530.53 91.85 L 524.63 87.27 L 518.36 82.89 L 511.91 78.90 L 505.09 75.26 L 497.88 71.95 L 490.25 68.99 L 482.41 66.53 L 474.95 64.65 L 467.84 63.30 L 461.06 62.46 L 454.11 62.01 L 447.46 61.95 L 441.08 62.25 L 434.96 62.91 L 426.80 64.27 L 419.05 66.04 L 411.68 68.20 L 400.92 72.03 L 390.97 76.19 L 372.54 84.74 L 363.93 88.62 L 356.14 91.70 L 351.61 93.01 L 346.17 94.03 L 339.66 94.69 L 331.93 94.91 L 322.82 94.62 L 312.16 93.73 L 299.76 92.14 L 285.41 89.73 L 268.93 86.40 L 250.07 82.03 L 228.63 76.48 Z" fill="#f3f7ff" fill-rule="evenodd" group-id="1,2,4,10" node-id="80" stroke-linecap="butt" stroke-width="1" target-height="408.69205" target-width="642.89264" target-x="3.76923" target-y="58.38785"></path></g><g node-id="99"><g clip-path="url(#mask-4_3)" group-id="1,2,4,11" node-id="83"><path d="M 9.33 370.00 L 706.33 370.00 L 706.33 488.00 L 9.33 488.00 Z" fill="#d0defe" fill-rule="evenodd" group-id="1,2,4,11" id="矩形" node-id="22" stroke-linecap="butt" stroke-width="1" target-height="118" target-width="697" target-x="9.332275" target-y="370"></path></g></g><g clip-path="url(#mask-4_4)" group-id="1,2,4,12" node-id="87"><path d="M 9.33 370.00 L 706.33 370.00 L 706.33 357.00 L 9.33 357.00 Z" fill="#a4c3fc" fill-rule="evenodd" group-id="1,2,4,12" id="矩形" node-id="23" stroke-linecap="butt" stroke-width="1" target-height="13" target-width="697" target-x="9.332275" target-y="356.99997"></path></g></g><g node-id="93"><path d="M 197.52 114.57 L 482.87 235.69 L 484.73 236.80 L 486.16 238.28 L 487.17 240.06 L 487.68 242.04 L 487.68 244.10 L 487.11 246.18 L 403.89 442.25 L 402.78 444.11 L 401.30 445.54 L 399.52 446.54 L 397.54 447.06 L 395.48 447.06 L 393.40 446.49 L 108.04 325.36 L 106.18 324.26 L 104.75 322.78 L 103.75 321.00 L 103.23 319.02 L 103.23 316.96 L 103.80 314.87 L 187.03 118.81 L 188.13 116.95 L 189.61 115.52 L 191.39 114.51 L 193.37 114.00 L 195.43 114.00 L 197.52 114.57 Z" fill="#ffe3ae" fill-rule="evenodd" group-id="1,2,5" id="矩形" node-id="25" stroke-linecap="butt" stroke-width="1" target-height="333.06686" target-width="384.4549" target-x="103.22966" target-y="113.995674"></path><path d="M 194.06 102.24 L 479.42 223.36 L 481.28 224.47 L 482.71 225.95 L 483.71 227.73 L 484.23 229.71 L 484.23 231.77 L 483.66 233.85 L 400.43 429.92 L 399.33 431.78 L 397.85 433.21 L 396.06 434.21 L 394.08 434.73 L 392.03 434.73 L 389.94 434.16 L 104.58 313.03 L 102.72 311.93 L 101.29 310.45 L 100.29 308.67 L 99.77 306.69 L 99.77 304.63 L 100.35 302.54 L 183.57 106.48 L 184.68 104.62 L 186.15 103.19 L 187.94 102.18 L 189.92 101.66 L 191.97 101.67 L 194.06 102.24 Z" fill="#96baff" fill-rule="evenodd" group-id="1,2,5" id="矩形" node-id="26" stroke-linecap="butt" stroke-width="1" target-height="333.06683" target-width="384.45486" target-x="99.77294" target-y="101.66478"></path><path d="M 161.39 44.54 L 446.75 165.67 L 448.61 166.77 L 450.04 168.25 L 451.04 170.03 L 451.56 172.01 L 451.56 174.07 L 450.99 176.16 L 367.76 372.22 L 366.66 374.08 L 365.18 375.51 L 363.39 376.51 L 361.42 377.03 L 359.36 377.03 L 357.27 376.46 L 71.92 255.33 L 70.06 254.23 L 68.63 252.75 L 67.62 250.97 L 67.10 248.99 L 67.11 246.93 L 67.68 244.84 L 150.90 48.78 L 152.01 46.92 L 153.49 45.49 L 155.27 44.49 L 157.25 43.97 L 159.31 43.97 L 161.39 44.54 Z" fill="#dde9ff" fill-rule="evenodd" group-id="1,2,5" id="矩形" node-id="27" stroke-linecap="butt" stroke-width="1" target-height="333.06683" target-width="384.45486" target-x="67.10486" target-y="43.9666"></path><path d="M 154.27 24.51 L 439.62 145.64 L 441.48 146.74 L 442.91 148.22 L 443.92 150.00 L 444.43 151.98 L 444.43 154.04 L 443.86 156.13 L 360.64 352.19 L 359.53 354.05 L 358.05 355.48 L 356.27 356.49 L 354.29 357.00 L 352.23 357.00 L 350.15 356.43 L 64.79 235.31 L 62.93 234.20 L 61.50 232.72 L 60.50 230.94 L 59.98 228.96 L 59.98 226.90 L 60.55 224.82 L 143.78 28.75 L 144.88 26.89 L 146.36 25.46 L 148.15 24.46 L 150.12 23.94 L 152.18 23.94 L 154.27 24.51 Z" fill="#ffffff" fill-rule="evenodd" group-id="1,2,5" id="矩形" node-id="28" stroke-linecap="butt" stroke-width="1" target-height="333.0668" target-width="384.45483" target-x="59.980057" target-y="23.937523"></path><path d="M 439.62 145.64 L 441.48 146.74 L 442.91 148.22 L 443.92 150.00 L 444.43 151.98 L 444.43 154.04 L 443.86 156.13 L 360.64 352.19 L 359.53 354.05 L 358.05 355.48 L 356.27 356.49 L 354.29 357.00 L 352.23 357.00 L 350.15 356.43 L 64.79 235.31 L 62.93 234.20 L 61.50 232.72 L 60.50 230.94 L 59.98 228.96 L 59.98 226.90 L 60.55 224.82 L 143.78 28.75 L 144.88 26.89 L 146.36 25.46 L 148.15 24.46 L 150.12 23.94 L 152.18 23.94 L 154.27 24.51 L 439.62 145.64 Z M 439.23 146.56 L 153.88 25.43 L 152.06 24.94 L 150.33 24.92 L 148.62 25.34 L 147.07 26.17 L 145.81 27.35 L 144.80 28.92 L 144.70 29.14 L 61.47 225.21 L 60.98 227.02 L 60.96 228.75 L 61.38 230.46 L 62.22 232.01 L 63.39 233.28 L 64.96 234.29 L 65.18 234.38 L 350.54 355.51 L 352.35 356.00 L 354.09 356.03 L 355.79 355.60 L 357.34 354.77 L 358.61 353.59 L 359.62 352.02 L 359.72 351.80 L 442.94 155.74 L 443.43 153.92 L 443.46 152.19 L 443.03 150.48 L 442.20 148.93 L 441.02 147.67 L 439.45 146.65 L 439.23 146.56 Z" fill="#c4d6ff" fill-rule="nonzero" group-id="1,2,5" id="矩形" node-id="29" stroke-linecap="butt" stroke-width="1" target-height="333.0668" target-width="384.45483" target-x="59.980057" target-y="23.937523"></path><path d="M 294.50 131.08 L 377.34 166.25 L 379.36 167.33 L 381.06 168.67 L 382.49 170.28 L 383.61 172.11 L 384.40 174.06 L 384.86 176.16 L 384.95 178.31 L 384.66 180.45 L 383.97 182.64 L 367.56 221.30 L 366.47 223.31 L 365.13 225.02 L 363.52 226.44 L 361.69 227.57 L 359.74 228.36 L 357.64 228.81 L 355.50 228.91 L 353.35 228.62 L 351.17 227.92 L 268.32 192.75 L 266.30 191.67 L 264.60 190.33 L 263.18 188.72 L 262.05 186.89 L 261.26 184.94 L 260.80 182.84 L 260.71 180.69 L 261.00 178.55 L 261.70 176.36 L 278.11 137.70 L 279.20 135.69 L 280.54 133.98 L 282.14 132.56 L 283.97 131.43 L 285.92 130.64 L 288.02 130.19 L 290.17 130.09 L 292.32 130.38 L 294.50 131.08 Z" fill="#dde9ff" fill-rule="evenodd" group-id="1,2,5" id="矩形" node-id="30" stroke-linecap="butt" stroke-width="1" target-height="98.81624" target-width="124.24539" target-x="260.7096" target-y="130.09187"></path><path d="M 320.11 138.80 L 375.34 162.25 L 377.36 163.33 L 379.06 164.67 L 380.49 166.28 L 381.61 168.11 L 382.40 170.06 L 382.86 172.16 L 382.95 174.31 L 382.66 176.45 L 381.97 178.64 L 365.56 217.30 L 364.47 219.31 L 363.13 221.02 L 361.52 222.44 L 359.69 223.57 L 357.74 224.36 L 355.64 224.81 L 353.50 224.91 L 351.35 224.62 L 349.17 223.92 L 293.94 200.48 L 291.92 199.39 L 290.22 198.05 L 288.79 196.44 L 287.67 194.61 L 286.88 192.66 L 286.42 190.56 L 286.32 188.42 L 286.62 186.27 L 287.31 184.09 L 303.72 145.42 L 304.81 143.41 L 306.15 141.71 L 307.76 140.28 L 309.59 139.15 L 311.54 138.37 L 313.64 137.91 L 315.78 137.81 L 317.93 138.11 L 320.11 138.80 Z" fill="#ffe0a5" fill-rule="evenodd" group-id="1,2,5" id="矩形" node-id="31" stroke-linecap="butt" stroke-width="1" target-height="87.094315" target-width="96.63022" target-x="286.32477" target-y="137.8138"></path><path d="M 344.64 216.45 L 343.71 215.79 L 343.37 214.97 L 343.56 213.89 L 356.89 182.47 L 357.54 181.59 L 358.36 181.27 L 359.49 181.47 L 360.42 182.14 L 360.76 182.95 L 360.58 184.04 L 347.24 215.45 L 346.59 216.34 L 345.77 216.66 L 344.64 216.45 Z M 331.70 210.97 L 331.23 210.64 L 330.92 210.16 L 330.79 209.60 L 330.88 209.06 L 337.57 193.30 L 337.89 192.86 L 338.39 192.56 L 338.95 192.46 L 339.52 192.56 L 340.43 192.95 L 340.90 193.28 L 341.22 193.77 L 341.35 194.33 L 341.25 194.86 L 334.56 210.62 L 334.24 211.07 L 333.75 211.36 L 333.18 211.47 L 332.62 211.36 L 331.70 210.97 Z M 318.31 204.94 L 317.77 204.57 L 317.39 204.06 L 317.22 203.47 L 317.31 202.92 L 325.07 184.62 L 325.41 184.18 L 325.95 183.89 L 326.58 183.80 L 327.22 183.94 L 327.55 184.08 L 328.23 184.16 L 328.62 184.43 L 328.88 184.87 L 328.95 185.42 L 328.75 186.18 L 320.99 204.48 L 320.65 204.92 L 320.10 205.21 L 319.47 205.30 L 318.83 205.16 L 318.31 204.94 Z M 302.33 198.23 L 301.89 197.95 L 301.66 197.63 L 301.63 196.94 L 304.82 189.43 L 305.07 189.10 L 305.42 188.94 L 306.24 189.03 L 307.80 189.69 L 308.24 189.97 L 308.47 190.30 L 308.50 190.99 L 305.31 198.50 L 304.80 198.96 L 304.40 199.02 L 303.90 198.90 L 302.33 198.23 Z M 312.48 180.64 L 312.45 180.63 L 312.21 180.34 L 311.15 176.79 L 311.18 176.44 L 311.45 176.20 L 337.54 166.67 L 337.90 166.68 L 338.14 166.92 L 342.04 174.93 L 357.07 168.14 L 354.91 161.92 L 355.02 161.43 L 355.49 161.28 L 370.76 165.19 L 370.82 165.21 L 371.09 165.50 L 371.01 165.95 L 361.79 177.99 L 361.33 178.18 L 361.22 178.14 L 360.95 177.86 L 359.07 172.34 L 340.41 180.99 L 340.02 180.99 L 339.78 180.77 L 335.43 172.52 L 312.83 180.65 L 312.48 180.64 Z" fill="#ffffff" fill-rule="nonzero" group-id="1,2,5" id="形状" node-id="32" stroke-linecap="butt" stroke-width="1" target-height="55.374634" target-width="69.45874" target-x="301.6311" target-y="161.2843"></path><path d="M 242.40 204.98 L 342.74 247.57 L 343.56 248.13 L 344.08 248.93 L 344.26 249.86 L 344.06 250.84 L 344.06 250.84 L 343.49 251.67 L 342.70 252.19 L 341.76 252.37 L 340.78 252.17 L 240.45 209.58 L 239.62 209.01 L 239.11 208.21 L 238.92 207.28 L 239.12 206.30 L 239.12 206.30 L 239.69 205.48 L 240.49 204.96 L 241.42 204.78 L 242.40 204.98 Z" fill="#dde9ff" fill-rule="evenodd" group-id="1,2,5" id="矩形" node-id="33" stroke-linecap="butt" stroke-width="1" target-height="47.591064" target-width="105.336426" target-x="238.92432" target-y="204.77737"></path><path d="M 238.49 214.18 L 338.83 256.77 L 339.65 257.34 L 340.17 258.14 L 340.35 259.07 L 340.15 260.05 L 340.15 260.05 L 339.59 260.87 L 338.79 261.39 L 337.86 261.57 L 336.88 261.37 L 236.54 218.78 L 235.72 218.22 L 235.20 217.42 L 235.02 216.49 L 235.22 215.51 L 235.22 215.51 L 235.78 214.68 L 236.58 214.17 L 237.51 213.98 L 238.49 214.18 Z" fill="#dde9ff" fill-rule="evenodd" group-id="1,2,5" id="矩形" node-id="34" stroke-linecap="butt" stroke-width="1" target-height="47.59105" target-width="105.336426" target-x="235.017" target-y="213.98244"></path><path d="M 234.59 223.39 L 334.92 265.98 L 335.75 266.54 L 336.26 267.34 L 336.45 268.27 L 336.25 269.25 L 336.25 269.25 L 335.68 270.08 L 334.88 270.60 L 333.95 270.78 L 332.97 270.58 L 232.63 227.99 L 231.81 227.42 L 231.29 226.62 L 231.11 225.69 L 231.31 224.71 L 231.31 224.71 L 231.88 223.89 L 232.67 223.37 L 233.61 223.19 L 234.59 223.39 Z" fill="#dde9ff" fill-rule="evenodd" group-id="1,2,5" id="矩形" node-id="35" stroke-linecap="butt" stroke-width="1" target-height="47.59108" target-width="105.336426" target-x="231.10968" target-y="223.18748"></path><path d="M 103.84 199.00 L 162.04 223.71 L 165.74 242.55 L 149.54 253.16 L 91.33 228.46 Z" fill="#eaf2ff" fill-rule="evenodd" group-id="1,2,5" id="Rectangle" node-id="36" stroke-linecap="butt" stroke-width="1" target-height="54.16194" target-width="74.41006" target-x="91.33228" target-y="199"></path><path d="M 166.10 225.07 L 260.68 265.22 L 264.47 284.20 L 248.18 294.67 L 153.60 254.52 L 169.89 244.06 Z" fill="#e5eeff" fill-rule="evenodd" group-id="1,2,5" id="Rectangle-Copy-2" node-id="37" stroke-linecap="butt" stroke-width="1" target-height="69.60428" target-width="110.871826" target-x="153.59811" target-y="225.06763"></path><path d="M 267.36 267.69 L 339.70 298.40 L 343.38 317.34 L 327.19 327.85 L 254.86 297.15 L 271.05 286.64 Z" fill="#dde9ff" fill-rule="evenodd" group-id="1,2,5" id="Rectangle-Copy-2备份" node-id="38" stroke-linecap="butt" stroke-width="1" target-height="60.160828" target-width="88.52579" target-x="254.85745" target-y="267.69104"></path></g><g node-id="94"><path d="M 228.90 93.50 L 229.15 90.11 L 229.81 86.93 L 230.90 83.92 L 232.38 81.09 L 234.19 78.52 L 236.33 76.20 L 238.76 74.17 L 241.41 72.49 L 244.33 71.14 L 242.08 63.63 L 238.89 54.80 L 235.29 46.19 L 233.43 42.30 L 231.81 39.32 L 227.38 41.28 L 223.12 43.01 L 220.25 43.95 L 217.55 44.54 L 214.99 44.79 L 212.48 44.61 L 210.10 43.86 L 207.81 42.52 L 205.59 39.96 L 203.81 37.24 L 202.45 34.34 L 201.50 31.29 L 200.96 28.20 L 200.83 25.04 L 201.11 21.89 L 201.80 18.82 L 202.91 15.80 L 197.31 12.75 L 191.50 10.10 L 185.47 7.85 L 179.20 6.00 L 177.84 8.92 L 176.15 11.58 L 174.12 14.00 L 171.80 16.14 L 169.23 17.95 L 166.40 19.43 L 163.39 20.52 L 160.22 21.19 L 156.83 21.43 L 154.25 21.20 L 151.39 20.56 L 148.19 19.44 L 143.55 17.24 L 138.90 14.40 L 134.56 11.11 L 130.88 7.66 L 128.71 5.14 L 127.13 2.80 L 126.05 0.61 L 118.70 2.67 L 115.54 3.79 L 112.48 5.08 L 109.42 6.60 L 105.88 8.61 L 107.25 12.17 L 108.55 16.61 L 109.50 21.29 L 110.06 26.17 L 110.15 29.45 L 109.95 32.52 L 109.48 35.42 L 108.64 38.19 L 107.43 40.54 L 105.88 42.52 L 103.31 44.75 L 100.59 46.52 L 97.69 47.88 L 94.64 48.84 L 91.55 49.38 L 88.39 49.51 L 85.24 49.23 L 82.17 48.55 L 79.16 47.45 L 76.09 53.03 L 73.43 58.83 L 71.18 64.86 L 69.33 71.14 L 72.25 72.49 L 74.91 74.18 L 77.33 76.21 L 79.48 78.53 L 81.28 81.10 L 82.76 83.93 L 83.85 86.94 L 84.52 90.11 L 84.76 93.50 L 84.49 96.01 L 83.77 98.48 L 82.56 100.93 L 81.03 103.21 L 79.20 105.42 L 77.06 107.54 L 73.56 110.41 L 69.86 112.89 L 66.04 114.99 L 62.60 116.50 L 64.84 124.33 L 66.13 127.93 L 67.59 131.42 L 69.27 134.87 L 71.30 138.50 L 73.60 137.68 L 76.29 137.09 L 79.41 136.76 L 84.16 136.75 L 89.18 137.30 L 94.12 138.38 L 98.65 139.93 L 101.50 141.30 L 103.89 142.81 L 105.86 144.48 L 107.39 146.40 L 108.23 148.21 L 108.52 149.98 L 108.38 151.81 L 107.90 153.71 L 107.04 155.70 L 105.41 158.62 L 103.47 161.72 L 101.54 164.87 L 99.86 168.12 L 102.92 169.74 L 107.17 171.66 L 116.75 175.38 L 126.53 178.69 L 134.47 181.00 L 135.83 178.08 L 137.51 175.42 L 139.54 173.00 L 141.87 170.86 L 144.43 169.05 L 147.27 167.57 L 150.27 166.48 L 153.45 165.81 L 156.83 165.57 L 159.35 165.72 L 161.32 166.12 L 162.85 166.72 L 164.25 167.58 L 165.42 168.64 L 166.39 169.91 L 167.57 172.10 L 168.65 174.79 L 170.86 181.00 L 178.39 179.17 L 187.30 176.92 L 191.82 175.62 L 195.99 174.25 L 199.89 172.71 L 202.89 171.20 L 201.78 168.17 L 201.09 165.10 L 200.81 161.95 L 200.94 158.79 L 201.48 155.70 L 202.43 152.65 L 203.79 149.76 L 205.57 147.04 L 207.79 144.48 L 210.36 142.25 L 213.08 140.48 L 215.97 139.12 L 219.02 138.16 L 222.11 137.62 L 225.27 137.49 L 228.42 137.77 L 231.49 138.45 L 234.51 139.55 L 237.58 133.97 L 240.23 128.17 L 242.49 122.14 L 244.33 115.86 L 241.41 114.51 L 238.76 112.83 L 236.33 110.80 L 234.19 108.48 L 232.38 105.91 L 230.90 103.08 L 229.81 100.07 L 229.15 96.89 L 228.90 93.50 Z M 156.83 117.52 L 153.53 117.29 L 150.43 116.66 L 147.48 115.63 L 144.70 114.23 L 142.16 112.52 L 139.85 110.48 L 137.81 108.18 L 136.10 105.64 L 134.70 102.85 L 133.67 99.90 L 133.04 96.80 L 132.81 93.50 L 133.04 90.20 L 133.67 87.10 L 134.70 84.15 L 136.10 81.36 L 137.81 78.82 L 139.85 76.52 L 142.16 74.48 L 144.70 72.77 L 147.48 71.37 L 150.43 70.34 L 153.53 69.71 L 156.83 69.48 L 160.13 69.71 L 163.24 70.34 L 166.18 71.37 L 168.97 72.77 L 171.51 74.48 L 173.82 76.52 L 175.85 78.83 L 177.56 81.36 L 178.97 84.15 L 180.00 87.10 L 180.63 90.20 L 180.86 93.50 L 180.63 96.80 L 180.00 99.90 L 178.97 102.85 L 177.56 105.64 L 175.85 108.18 L 173.82 110.48 L 171.51 112.52 L 168.97 114.23 L 166.18 115.63 L 163.24 116.66 L 160.13 117.29 L 156.83 117.52 Z" fill="#ffbb3c" fill-rule="nonzero" group-id="1,2,6" id="形状" node-id="40" stroke-linecap="butt" stroke-width="1" target-height="180.39014" target-width="181.73584" target-x="62.596436" target-y="0.609863"></path><path d="M 218.90 88.50 L 219.15 85.11 L 219.81 81.93 L 220.90 78.92 L 222.38 76.09 L 224.19 73.52 L 226.33 71.20 L 228.76 69.17 L 231.41 67.49 L 234.33 66.14 L 232.48 59.86 L 230.24 53.83 L 227.58 48.03 L 224.53 42.45 L 221.50 43.55 L 218.43 44.24 L 215.28 44.52 L 212.13 44.39 L 209.04 43.85 L 205.99 42.89 L 203.10 41.53 L 200.38 39.75 L 197.81 37.52 L 195.59 34.96 L 193.81 32.24 L 192.45 29.34 L 191.50 26.29 L 190.96 23.20 L 190.83 20.04 L 191.11 16.89 L 191.80 13.82 L 192.91 10.80 L 187.31 7.75 L 181.50 5.10 L 175.47 2.85 L 169.20 1.00 L 167.84 3.92 L 166.15 6.58 L 164.12 9.00 L 161.80 11.14 L 159.23 12.95 L 156.40 14.43 L 153.39 15.52 L 150.22 16.19 L 146.83 16.43 L 143.44 16.19 L 140.26 15.52 L 137.25 14.43 L 134.42 12.95 L 131.85 11.14 L 129.53 9.00 L 127.50 6.58 L 125.82 3.92 L 124.47 1.00 L 118.19 2.85 L 112.16 5.10 L 106.36 7.75 L 100.78 10.80 L 101.89 13.83 L 102.58 16.90 L 102.86 20.05 L 102.73 23.21 L 102.19 26.30 L 101.23 29.35 L 99.87 32.24 L 98.10 34.96 L 95.88 37.52 L 93.31 39.75 L 90.59 41.52 L 87.69 42.88 L 84.64 43.84 L 81.55 44.38 L 78.39 44.51 L 75.24 44.23 L 72.17 43.55 L 69.16 42.45 L 66.09 48.03 L 63.43 53.83 L 61.18 59.86 L 59.33 66.14 L 62.25 67.49 L 64.91 69.18 L 67.33 71.21 L 69.48 73.53 L 71.28 76.10 L 72.76 78.93 L 73.85 81.94 L 74.52 85.11 L 74.76 88.50 L 74.52 91.89 L 73.85 95.07 L 72.76 98.08 L 71.28 100.91 L 69.48 103.48 L 67.33 105.80 L 64.91 107.83 L 62.25 109.51 L 59.33 110.86 L 61.18 117.14 L 63.43 123.17 L 66.08 128.97 L 69.14 134.55 L 72.16 133.45 L 75.23 132.76 L 78.38 132.48 L 81.54 132.61 L 84.63 133.15 L 87.68 134.11 L 90.57 135.47 L 93.29 137.25 L 95.86 139.48 L 98.08 142.04 L 99.85 144.76 L 101.21 147.66 L 102.17 150.71 L 102.71 153.80 L 102.84 156.96 L 102.56 160.11 L 101.87 163.18 L 100.76 166.20 L 106.36 169.25 L 112.16 171.90 L 118.20 174.15 L 124.47 176.00 L 125.83 173.08 L 127.51 170.42 L 129.54 168.00 L 131.87 165.86 L 134.43 164.05 L 137.27 162.57 L 140.27 161.48 L 143.45 160.81 L 146.83 160.57 L 150.22 160.81 L 153.41 161.48 L 156.41 162.57 L 159.25 164.05 L 161.81 165.86 L 164.14 168.00 L 166.16 170.42 L 167.84 173.08 L 169.20 176.00 L 175.47 174.15 L 181.50 171.90 L 187.30 169.25 L 192.89 166.20 L 191.78 163.17 L 191.09 160.10 L 190.81 156.95 L 190.94 153.79 L 191.48 150.70 L 192.43 147.65 L 193.79 144.76 L 195.57 142.04 L 197.79 139.48 L 200.36 137.25 L 203.08 135.48 L 205.97 134.12 L 209.02 133.16 L 212.11 132.62 L 215.27 132.49 L 218.42 132.77 L 221.49 133.45 L 224.51 134.55 L 227.58 128.97 L 230.23 123.17 L 232.49 117.14 L 234.33 110.86 L 231.41 109.51 L 228.76 107.83 L 226.33 105.80 L 224.19 103.48 L 222.38 100.91 L 220.90 98.08 L 219.81 95.07 L 219.15 91.89 L 218.90 88.50 Z M 146.83 112.52 L 143.53 112.29 L 140.43 111.66 L 137.48 110.63 L 134.70 109.23 L 132.16 107.52 L 129.85 105.48 L 127.81 103.18 L 126.10 100.64 L 124.70 97.85 L 123.67 94.90 L 123.04 91.80 L 122.81 88.50 L 123.04 85.20 L 123.67 82.10 L 124.70 79.15 L 126.10 76.36 L 127.81 73.82 L 129.85 71.52 L 132.16 69.48 L 134.70 67.77 L 137.48 66.37 L 140.43 65.34 L 143.53 64.71 L 146.83 64.48 L 150.13 64.71 L 153.24 65.34 L 156.18 66.37 L 158.97 67.77 L 161.51 69.48 L 163.82 71.52 L 165.85 73.82 L 167.56 76.36 L 168.97 79.15 L 170.00 82.10 L 170.63 85.20 L 170.86 88.50 L 170.63 91.80 L 170.00 94.90 L 168.97 97.85 L 167.56 100.64 L 165.85 103.17 L 163.82 105.48 L 161.51 107.52 L 158.97 109.23 L 156.18 110.63 L 153.24 111.66 L 150.13 112.29 L 146.83 112.52 Z" fill="#ffca65" fill-rule="nonzero" group-id="1,2,6" id="形状" node-id="41" stroke-linecap="butt" stroke-width="1" target-height="175" target-width="175" target-x="59.332275" target-y="0.9999997"></path></g><path d="M 338.33 76.00 L 338.11 78.37 L 337.52 80.55 L 336.56 82.56 L 335.27 84.39 L 333.72 85.93 L 331.89 87.23 L 329.88 88.19 L 327.71 88.78 L 325.33 89.00 L 322.96 88.78 L 320.78 88.19 L 318.77 87.23 L 316.95 85.93 L 315.40 84.39 L 314.11 82.56 L 313.15 80.55 L 312.55 78.37 L 312.33 76.00 L 312.55 73.63 L 313.15 71.45 L 314.11 69.44 L 315.40 67.61 L 316.95 66.07 L 318.77 64.77 L 320.78 63.81 L 322.96 63.22 L 325.33 63.00 L 327.71 63.22 L 329.88 63.81 L 331.89 64.77 L 333.72 66.07 L 335.27 67.61 L 336.56 69.44 L 337.52 71.45 L 338.11 73.63 L 338.33 76.00 Z" fill="#c9dcff" fill-rule="evenodd" group-id="1,2" id="椭圆形" node-id="42" stroke-linecap="butt" stroke-width="1" target-height="26" target-width="26" target-x="312.33228" target-y="63"></path><path d="M 234.33 11.50 L 234.17 13.23 L 233.74 14.82 L 233.04 16.29 L 231.55 18.22 L 229.63 19.70 L 228.16 20.41 L 226.57 20.84 L 224.83 21.00 L 223.10 20.84 L 221.51 20.41 L 220.04 19.70 L 218.11 18.22 L 216.63 16.29 L 215.93 14.82 L 215.49 13.23 L 215.33 11.50 L 215.49 9.77 L 215.93 8.18 L 216.63 6.71 L 218.11 4.78 L 220.04 3.30 L 221.51 2.59 L 223.10 2.16 L 224.83 2.00 L 226.57 2.16 L 228.16 2.59 L 229.63 3.30 L 231.55 4.78 L 233.04 6.71 L 233.74 8.18 L 234.17 9.77 L 234.33 11.50 Z" fill="#c9dcff" fill-rule="evenodd" group-id="1,2" id="椭圆形" node-id="43" stroke-linecap="butt" stroke-width="1" target-height="19" target-width="19" target-x="215.33228" target-y="2"></path><path d="M 43.33 94.00 L 43.10 95.63 L 42.52 97.03 L 41.57 98.24 L 40.36 99.19 L 38.96 99.77 L 37.33 100.00 L 35.70 99.77 L 34.31 99.19 L 33.09 98.24 L 32.15 97.03 L 31.56 95.63 L 31.33 94.00 L 31.56 92.37 L 32.15 90.97 L 33.09 89.76 L 34.31 88.81 L 35.70 88.23 L 37.33 88.00 L 38.96 88.23 L 40.36 88.81 L 41.57 89.76 L 42.52 90.97 L 43.10 92.37 L 43.33 94.00 Z" fill="#f2f6ff" fill-rule="evenodd" group-id="1,2" id="椭圆形" node-id="44" stroke-linecap="butt" stroke-width="1" target-height="12" target-width="12" target-x="31.332275" target-y="88"></path><path d="M 312.33 444.50 L 312.07 446.76 L 311.34 448.84 L 310.15 450.81 L 308.59 452.53 L 306.69 454.02 L 304.41 455.29 L 301.95 456.21 L 299.28 456.78 L 296.33 457.00 L 293.39 456.78 L 290.71 456.21 L 288.26 455.29 L 285.97 454.02 L 284.07 452.53 L 282.52 450.81 L 281.32 448.84 L 280.60 446.76 L 280.33 444.50 L 280.60 442.24 L 281.32 440.16 L 282.52 438.19 L 284.07 436.47 L 285.97 434.98 L 288.26 433.71 L 290.71 432.79 L 293.39 432.22 L 296.33 432.00 L 299.28 432.22 L 301.95 432.79 L 304.41 433.71 L 306.69 434.98 L 308.59 436.47 L 310.15 438.19 L 311.34 440.16 L 312.07 442.24 L 312.33 444.50 Z" fill="#d0defe" fill-rule="evenodd" group-id="1,2" id="椭圆形" node-id="45" stroke-linecap="butt" stroke-width="1" target-height="25" target-width="32" target-x="280.33228" target-y="432"></path><path d="M 621.02 270.96 L 622.62 278.27 L 623.66 284.94 L 624.23 291.39 L 624.28 296.75 L 624.02 300.22 L 623.56 302.98 L 622.93 305.14 L 621.97 307.12 L 620.88 308.31 L 619.66 308.92 L 618.30 308.95 L 616.79 308.41 L 615.00 307.12 L 613.44 305.50 L 611.73 303.29 L 609.87 300.34 L 607.40 295.58 L 604.88 289.63 L 602.67 283.25 L 600.64 276.04 L 599.05 268.73 L 598.01 262.06 L 597.44 255.61 L 597.38 250.25 L 597.64 246.78 L 598.11 244.02 L 598.73 241.86 L 599.70 239.88 L 600.79 238.69 L 602.00 238.08 L 603.36 238.05 L 604.88 238.59 L 606.66 239.88 L 608.23 241.50 L 609.93 243.71 L 611.79 246.66 L 614.26 251.42 L 616.78 257.37 L 619.00 263.75 L 621.02 270.96 Z" fill="#d0defe" fill-rule="evenodd" group-id="1,2" id="椭圆形" node-id="46" stroke-linecap="butt" stroke-width="1" target-height="70.90004" target-width="26.895813" target-x="597.3844" target-y="238.05"></path><path d="M 441.19 205.46 L 461.28 208.51 L 479.79 211.83 L 496.81 215.39 L 509.71 218.47 L 521.57 221.63 L 532.47 224.87 L 542.46 228.17 L 552.66 231.95 L 561.72 235.74 L 569.72 239.52 L 576.75 243.28 L 582.52 246.79 L 587.49 250.24 L 591.74 253.63 L 595.33 256.96 L 598.33 260.23 L 601.14 263.99 L 603.23 267.66 L 604.68 271.28 L 605.53 274.88 L 605.83 278.50 L 605.51 282.25 L 604.59 285.97 L 603.05 289.71 L 600.83 293.49 L 597.85 297.36 L 594.66 300.71 L 590.86 304.11 L 586.38 307.57 L 581.15 311.08 L 575.09 314.64 L 567.71 318.46 L 559.36 322.27 L 549.95 326.08 L 539.39 329.86 L 529.05 333.17 L 517.83 336.39 L 505.68 339.52 L 492.55 342.54 L 475.19 346.04 L 456.50 349.27 L 436.38 352.20 L 416.25 354.62 L 395.03 356.68 L 372.70 358.34 L 350.38 359.52 L 327.26 360.25 L 303.33 360.50 L 279.40 360.25 L 256.28 359.52 L 233.96 358.34 L 211.63 356.68 L 190.42 354.62 L 170.28 352.20 L 150.17 349.27 L 131.47 346.04 L 114.12 342.54 L 100.99 339.52 L 88.84 336.39 L 77.62 333.17 L 67.28 329.86 L 56.71 326.08 L 47.30 322.27 L 38.95 318.46 L 31.57 314.64 L 25.51 311.08 L 20.28 307.57 L 15.81 304.11 L 12.01 300.71 L 8.82 297.36 L 5.83 293.49 L 3.61 289.71 L 2.07 285.97 L 1.15 282.25 L 0.83 278.50 L 1.10 275.04 L 1.88 271.60 L 3.20 268.13 L 5.10 264.62 L 7.65 261.02 L 11.17 257.07 L 15.58 253.04 L 21.00 248.89 L 27.56 244.64 L 34.08 240.98 L 41.56 237.28 L 50.07 233.55 L 59.71 229.80 L 60.86 229.37 L 61.20 230.31 L 51.47 234.06 L 42.88 237.77 L 35.34 241.45 L 28.76 245.09 L 22.13 249.32 L 16.67 253.43 L 12.24 257.43 L 8.70 261.32 L 6.12 264.88 L 4.21 268.35 L 2.88 271.75 L 2.10 275.13 L 1.83 278.50 L 2.15 282.17 L 3.06 285.82 L 4.60 289.49 L 6.81 293.21 L 9.80 297.02 L 12.97 300.32 L 16.76 303.66 L 21.22 307.07 L 26.44 310.53 L 32.48 314.05 L 39.84 317.81 L 48.16 321.58 L 57.55 325.35 L 68.08 329.09 L 78.39 332.36 L 89.57 335.55 L 101.68 338.65 L 114.78 341.65 L 132.07 345.12 L 150.71 348.33 L 170.76 351.24 L 190.82 353.65 L 211.96 355.70 L 234.21 357.35 L 256.46 358.52 L 279.49 359.25 L 303.33 359.50 L 327.17 359.25 L 350.21 358.52 L 372.45 357.35 L 394.70 355.70 L 415.84 353.65 L 435.91 351.24 L 455.96 348.33 L 474.59 345.12 L 491.89 341.65 L 504.98 338.65 L 517.09 335.55 L 528.28 332.36 L 538.58 329.09 L 549.12 325.35 L 558.50 321.58 L 566.83 317.81 L 574.18 314.05 L 580.23 310.53 L 585.44 307.07 L 589.91 303.66 L 593.69 300.32 L 596.87 297.02 L 599.85 293.21 L 602.07 289.49 L 603.60 285.82 L 604.51 282.17 L 604.83 278.50 L 604.54 275.01 L 603.71 271.53 L 602.30 268.02 L 600.26 264.45 L 597.52 260.80 L 593.77 256.81 L 589.10 252.73 L 583.38 248.55 L 576.46 244.26 L 569.60 240.58 L 561.79 236.87 L 552.95 233.14 L 542.98 229.42 L 529.78 225.09 L 514.97 220.87 L 498.40 216.78 L 481.76 213.24 L 463.67 209.93 L 444.04 206.87 L 441.06 206.45 L 441.19 205.46 Z" fill="#ffca65" fill-rule="nonzero" group-id="1,2" id="路径" node-id="47" stroke-linecap="butt" stroke-width="1" target-height="155.03667" target-width="605" target-x="0.8322754" target-y="205.46333"></path><path d="M 439.38 164.69 L 455.94 162.82 L 471.30 161.49 L 485.53 160.64 L 498.71 160.25 L 512.36 160.30 L 524.62 160.83 L 535.59 161.78 L 545.37 163.11 L 553.63 164.68 L 560.86 166.49 L 567.16 168.52 L 572.63 170.73 L 577.35 173.10 L 581.37 175.62 L 584.71 178.26 L 587.45 181.01 L 589.66 183.88 L 591.37 186.89 L 592.61 190.06 L 593.40 193.74 L 593.61 197.56 L 593.23 201.59 L 592.22 205.86 L 590.49 210.43 L 588.42 214.57 L 585.78 218.93 L 582.51 223.54 L 578.54 228.43 L 573.78 233.60 L 567.84 239.41 L 560.97 245.50 L 553.08 251.89 L 544.09 258.60 L 535.17 264.79 L 525.38 271.15 L 514.68 277.69 L 503.00 284.42 L 487.43 292.84 L 470.49 301.39 L 452.11 310.08 L 433.57 318.28 L 413.88 326.45 L 393.02 334.57 L 372.01 342.23 L 350.12 349.68 L 327.31 356.92 L 304.34 363.67 L 282.03 369.74 L 260.33 375.14 L 238.49 380.07 L 217.61 384.31 L 197.64 387.88 L 177.55 390.96 L 158.73 393.34 L 141.11 395.06 L 127.67 396.01 L 115.13 396.57 L 103.46 396.77 L 92.61 396.63 L 81.40 396.10 L 71.29 395.22 L 62.18 394.01 L 54.01 392.51 L 47.18 390.88 L 41.15 389.05 L 35.86 387.06 L 31.23 384.92 L 27.20 382.64 L 23.21 379.82 L 19.98 376.85 L 17.42 373.73 L 15.45 370.43 L 14.05 366.94 L 13.27 363.37 L 13.04 359.64 L 13.38 355.72 L 14.33 351.54 L 15.95 347.07 L 17.90 343.02 L 20.42 338.74 L 23.57 334.19 L 27.42 329.37 L 32.04 324.24 L 37.81 318.50 L 44.54 312.44 L 52.34 306.05 L 61.29 299.31 L 70.15 293.11 L 79.96 286.68 L 90.78 280.03 L 102.67 273.14 L 104.59 272.07 L 105.07 272.94 L 93.02 279.86 L 82.05 286.54 L 72.11 292.99 L 63.13 299.22 L 54.05 305.99 L 46.15 312.39 L 39.31 318.46 L 33.45 324.21 L 28.75 329.35 L 24.84 334.17 L 21.63 338.71 L 19.07 342.97 L 17.07 347.00 L 15.40 351.45 L 14.41 355.60 L 14.04 359.48 L 14.25 363.14 L 15.01 366.65 L 16.38 370.07 L 18.32 373.29 L 20.86 376.35 L 24.07 379.26 L 28.04 382.03 L 32.03 384.26 L 36.63 386.35 L 41.90 388.30 L 47.90 390.09 L 54.71 391.68 L 62.84 393.13 L 71.91 394.31 L 81.98 395.16 L 93.15 395.66 L 103.96 395.78 L 115.59 395.56 L 128.08 394.98 L 141.48 394.02 L 159.03 392.28 L 177.79 389.90 L 197.81 386.82 L 217.71 383.26 L 238.52 379.04 L 260.29 374.11 L 281.90 368.73 L 304.14 362.69 L 327.01 355.96 L 349.74 348.75 L 371.55 341.32 L 392.48 333.70 L 413.28 325.61 L 432.89 317.47 L 451.38 309.30 L 469.70 300.65 L 486.59 292.14 L 502.11 283.76 L 513.76 277.07 L 524.43 270.56 L 534.19 264.24 L 543.09 258.10 L 552.07 251.44 L 559.95 245.10 L 566.81 239.06 L 572.74 233.30 L 577.49 228.17 L 581.47 223.34 L 584.74 218.78 L 587.38 214.47 L 589.45 210.39 L 591.19 205.87 L 592.23 201.66 L 592.62 197.71 L 592.42 193.95 L 591.66 190.35 L 590.45 187.30 L 588.80 184.40 L 586.66 181.62 L 584.00 178.95 L 580.74 176.39 L 576.82 173.94 L 572.22 171.63 L 566.89 169.48 L 560.75 167.49 L 553.69 165.71 L 545.63 164.17 L 536.08 162.85 L 525.37 161.89 L 513.40 161.34 L 500.07 161.24 L 487.20 161.58 L 473.28 162.35 L 458.27 163.60 L 442.08 165.36 L 439.51 165.68 L 439.38 164.69 Z" fill="#ffca65" fill-rule="nonzero" group-id="1,2" id="路径" node-id="48" stroke-linecap="butt" stroke-width="0.99999994" target-height="236.52061" target-width="580.5733" target-x="13.0412445" target-y="160.25014"></path></g></g></svg>